<svg width="35" height="36" viewBox="0 0 35 36" fill="none" xmlns="http://www.w3.org/2000/svg">
<path d="M26.25 28.0845H25.1417C23.975 28.0845 22.8667 28.5406 22.05 29.3645L19.5562 31.8508C18.4187 32.9836 16.5667 32.9836 15.4292 31.8508L12.9354 29.3645C12.1187 28.5406 10.9958 28.0845 9.84375 28.0845H8.75C6.32917 28.0845 4.375 26.1279 4.375 23.7151V7.66433C4.375 5.25157 6.32917 3.29492 8.75 3.29492H26.25C28.6708 3.29492 30.625 5.25157 30.625 7.66433V23.7151C30.625 26.1132 28.6708 28.0845 26.25 28.0845Z" stroke="#333333" stroke-width="1.5" stroke-miterlimit="10" stroke-linecap="round" stroke-linejoin="round"/>
<path d="M17.4997 15.051C19.3764 15.051 20.8977 13.5163 20.8977 11.6231C20.8977 9.72996 19.3764 8.19531 17.4997 8.19531C15.6231 8.19531 14.1018 9.72996 14.1018 11.6231C14.1018 13.5163 15.6231 15.051 17.4997 15.051Z" stroke="#333333" stroke-width="1.5" stroke-linecap="round" stroke-linejoin="round"/>
<path d="M23.3332 23.3761C23.3332 20.7279 20.7228 18.5801 17.4998 18.5801C14.2769 18.5801 11.6665 20.7279 11.6665 23.3761" stroke="#333333" stroke-width="1.5" stroke-linecap="round" stroke-linejoin="round"/>
</svg>
