<?xml version="1.0" encoding="UTF-8"?>
<svg version="1.1" xmlns="http://www.w3.org/2000/svg" width="1000" height="1000">
<path d="M0 0 C0.77190674 -0.00902344 1.54381348 -0.01804688 2.33911133 -0.02734375 C9.9574837 0.01218515 16.0633119 1.04714768 21.9375 6.25 C22.9275 6.58 23.9175 6.91 24.9375 7.25 C24.9375 7.91 24.9375 8.57 24.9375 9.25 C27.4125 9.745 27.4125 9.745 29.9375 10.25 C29.9375 10.91 29.9375 11.57 29.9375 12.25 C30.53304687 12.3428125 31.12859375 12.435625 31.7421875 12.53125 C34.44626569 13.41657097 35.32440187 14.52960238 37.0625 16.75 C39.13637681 19.4380384 39.13637681 19.4380384 41.9375 21.25 C41.9375 21.91 41.9375 22.57 41.9375 23.25 C42.9275 23.58 43.9175 23.91 44.9375 24.25 C47.9375 28.58333333 47.9375 28.58333333 47.9375 31.25 C48.5975 31.25 49.2575 31.25 49.9375 31.25 C49.9375 32.24 49.9375 33.23 49.9375 34.25 C50.5975 34.25 51.2575 34.25 51.9375 34.25 C52.2675 35.9 52.5975 37.55 52.9375 39.25 C53.5975 39.25 54.2575 39.25 54.9375 39.25 C55.21464844 40.10464844 55.49179687 40.95929688 55.77734375 41.83984375 C56.13957031 42.94457031 56.50179687 44.04929687 56.875 45.1875 C57.23464844 46.28964844 57.59429688 47.39179688 57.96484375 48.52734375 C58.67606668 51.13123475 58.67606668 51.13123475 59.9375 52.25 C60.24609375 54.61328125 60.24609375 54.61328125 60.375 57.5625 C60.43558594 58.52800781 60.49617187 59.49351562 60.55859375 60.48828125 C59.9375 63.25 59.9375 63.25 57.43359375 65.55859375 C53.28655728 67.56492536 50.10075445 67.90972731 45.5625 68 C44.82644531 68.02964844 44.09039063 68.05929687 43.33203125 68.08984375 C41.5344257 68.15988033 39.7359621 68.20728119 37.9375 68.25 C37.9375 68.58 37.9375 68.91 37.9375 69.25 C37.08285156 69.37117188 36.22820313 69.49234375 35.34765625 69.6171875 C34.24292969 69.78476562 33.13820313 69.95234375 32 70.125 C30.89785156 70.28742188 29.79570313 70.44984375 28.66015625 70.6171875 C27.76167969 70.82601562 26.86320313 71.03484375 25.9375 71.25 C25.6075 71.91 25.2775 72.57 24.9375 73.25 C26.2575 73.25 27.5775 73.25 28.9375 73.25 C28.9375 73.91 28.9375 74.57 28.9375 75.25 C29.7728125 75.435625 29.7728125 75.435625 30.625 75.625 C33.15864364 76.30976855 35.51671032 77.24133763 37.9375 78.25 C37.9375 78.91 37.9375 79.57 37.9375 80.25 C39.9175 80.58 41.8975 80.91 43.9375 81.25 C43.9375 81.91 43.9375 82.57 43.9375 83.25 C45.9175 83.58 47.8975 83.91 49.9375 84.25 C49.9375 84.91 49.9375 85.57 49.9375 86.25 C52.58978812 87.32525194 55.22118454 88.34456151 57.9375 89.25 C57.9375 89.91 57.9375 90.57 57.9375 91.25 C60.4125 91.745 60.4125 91.745 62.9375 92.25 C62.9375 92.91 62.9375 93.57 62.9375 94.25 C63.989375 94.37375 63.989375 94.37375 65.0625 94.5 C68.59448979 95.42138864 70.95678357 97.17645814 73.9375 99.25 C74.9275 99.58 75.9175 99.91 76.9375 100.25 C76.9375 100.91 76.9375 101.57 76.9375 102.25 C79.4125 102.745 79.4125 102.745 81.9375 103.25 C81.9375 103.91 81.9375 104.57 81.9375 105.25 C82.72125 105.559375 83.505 105.86875 84.3125 106.1875 C86.9375 107.25 86.9375 107.25 88.9375 108.25 C88.9375 108.91 88.9375 109.57 88.9375 110.25 C91.4125 110.745 91.4125 110.745 93.9375 111.25 C93.9375 111.91 93.9375 112.57 93.9375 113.25 C96.4125 113.745 96.4125 113.745 98.9375 114.25 C98.9375 114.91 98.9375 115.57 98.9375 116.25 C99.72125 116.559375 100.505 116.86875 101.3125 117.1875 C103.9375 118.25 103.9375 118.25 105.9375 119.25 C105.9375 119.91 105.9375 120.57 105.9375 121.25 C108.4125 121.745 108.4125 121.745 110.9375 122.25 C110.9375 122.91 110.9375 123.57 110.9375 124.25 C112.2575 124.58 113.5775 124.91 114.9375 125.25 C114.9375 125.91 114.9375 126.57 114.9375 127.25 C115.9275 127.25 116.9175 127.25 117.9375 127.25 C117.9375 127.91 117.9375 128.57 117.9375 129.25 C119.2575 129.58 120.5775 129.91 121.9375 130.25 C121.9375 130.91 121.9375 131.57 121.9375 132.25 C123.2575 132.58 124.5775 132.91 125.9375 133.25 C125.9375 133.91 125.9375 134.57 125.9375 135.25 C126.7109375 135.62125 126.7109375 135.62125 127.5 136 C130.70934151 137.64581616 133.81335664 139.4476096 136.9375 141.25 C136.9375 141.91 136.9375 142.57 136.9375 143.25 C138.2575 143.58 139.5775 143.91 140.9375 144.25 C140.9375 144.91 140.9375 145.57 140.9375 146.25 C141.5975 146.25 142.2575 146.25 142.9375 146.25 C144.5625 147.625 144.5625 147.625 145.9375 149.25 C145.9375 149.91 145.9375 150.57 145.9375 151.25 C147.2575 151.58 148.5775 151.91 149.9375 152.25 C149.9375 152.91 149.9375 153.57 149.9375 154.25 C150.7728125 154.62125 150.7728125 154.62125 151.625 155 C155.49451002 157.09162704 159.05559266 159.91305466 161.9375 163.25 C161.9375 163.91 161.9375 164.57 161.9375 165.25 C162.5975 165.25 163.2575 165.25 163.9375 165.25 C165.33984375 166.89453125 165.33984375 166.89453125 166.875 169.0625 C168.35246419 171.13699575 169.73943126 173.05480182 171.5546875 174.84375 C173.41285627 176.73341316 174.06832019 178.77618055 174.9375 181.25 C175.5975 181.25 176.2575 181.25 176.9375 181.25 C176.9375 186.53 176.9375 191.81 176.9375 197.25 C176.2775 197.25 175.6175 197.25 174.9375 197.25 C174.80472656 197.83265625 174.67195312 198.4153125 174.53515625 199.015625 C173.97119266 201.12403789 173.23171406 202.99686182 172.375 205 C169.94256703 211.41494577 170.49090266 216.82768198 172.9375 223.25 C172.9375 223.91 172.9375 224.57 172.9375 225.25 C173.5975 225.25 174.2575 225.25 174.9375 225.25 C174.9375 226.24 174.9375 227.23 174.9375 228.25 C175.5975 228.25 176.2575 228.25 176.9375 228.25 C177.2675 228.91 177.5975 229.57 177.9375 230.25 C178.9275 230.58 179.9175 230.91 180.9375 231.25 C180.9375 231.91 180.9375 232.57 180.9375 233.25 C182.5875 233.58 184.2375 233.91 185.9375 234.25 C185.9375 234.91 185.9375 235.57 185.9375 236.25 C186.9275 236.25 187.9175 236.25 188.9375 236.25 C188.9375 236.91 188.9375 237.57 188.9375 238.25 C190.154375 238.37375 191.37125 238.4975 192.625 238.625 C196.02614974 239.04415578 198.78196454 239.88544413 201.9375 241.25 C203.59669896 241.61871088 205.2622643 241.96281674 206.9375 242.25 C206.9375 242.91 206.9375 243.57 206.9375 244.25 C209.5775 244.58 212.2175 244.91 214.9375 245.25 C214.9375 245.91 214.9375 246.57 214.9375 247.25 C215.741875 247.435625 215.741875 247.435625 216.5625 247.625 C219.4013286 248.37206016 222.15973202 249.30303364 224.9375 250.25 C224.9375 250.91 224.9375 251.57 224.9375 252.25 C226.9175 252.58 228.8975 252.91 230.9375 253.25 C230.9375 253.91 230.9375 254.57 230.9375 255.25 C231.7728125 255.435625 231.7728125 255.435625 232.625 255.625 C235.15864364 256.30976855 237.51671032 257.24133763 239.9375 258.25 C239.9375 258.91 239.9375 259.57 239.9375 260.25 C241.5875 260.58 243.2375 260.91 244.9375 261.25 C244.9375 261.91 244.9375 262.57 244.9375 263.25 C246.5875 263.58 248.2375 263.91 249.9375 264.25 C249.9375 264.91 249.9375 265.57 249.9375 266.25 C250.5975 266.25 251.2575 266.25 251.9375 266.25 C251.9375 266.91 251.9375 267.57 251.9375 268.25 C252.700625 268.53875 253.46375 268.8275 254.25 269.125 C256.9375 270.25 256.9375 270.25 259.9375 272.25 C259.9375 272.91 259.9375 273.57 259.9375 274.25 C260.63875 274.270625 261.34 274.29125 262.0625 274.3125 C265.8249818 275.53939624 267.22593304 277.59236233 269.60546875 280.65625 C270.86686016 282.38113625 270.86686016 282.38113625 272.9375 283.25 C272.9375 283.91 272.9375 284.57 272.9375 285.25 C273.9275 285.58 274.9175 285.91 275.9375 286.25 C275.9375 286.91 275.9375 287.57 275.9375 288.25 C276.5975 288.25 277.2575 288.25 277.9375 288.25 C279.30389342 289.8896721 280.6324419 291.56110128 281.9375 293.25 C283.25244512 294.60147138 284.58014858 295.94112542 285.9375 297.25 C285.6075 297.91 285.2775 298.57 284.9375 299.25 C254.60459003 299.45638953 254.60459003 299.45638953 241.9375 298.25 C241.9375 297.59 241.9375 296.93 241.9375 296.25 C241.33164062 296.27320313 240.72578125 296.29640625 240.1015625 296.3203125 C234.67218314 296.43725298 229.83353101 295.94767945 224.54296875 294.76171875 C220.04961218 293.87921544 215.49974791 293.57959205 210.9375 293.25 C210.9375 292.59 210.9375 291.93 210.9375 291.25 C210.36386719 291.26160156 209.79023437 291.27320313 209.19921875 291.28515625 C199.75801105 291.38544222 190.35853476 290.7967129 180.9375 290.25 C180.9375 289.92 180.9375 289.59 180.9375 289.25 C177.3075 289.25 173.6775 289.25 169.9375 289.25 C169.9375 289.58 169.9375 289.91 169.9375 290.25 C163.0075 290.91 156.0775 291.57 148.9375 292.25 C150.67782935 297.65602414 150.67782935 297.65602414 153.5 302.0625 C153.93441406 302.64644531 154.36882813 303.23039062 154.81640625 303.83203125 C155.87065369 305.22186434 155.87065369 305.22186434 156.9375 306.25 C156.9375 305.92 156.9375 305.59 156.9375 305.25 C160.5675 304.59 164.1975 303.93 167.9375 303.25 C167.9375 302.92 167.9375 302.59 167.9375 302.25 C168.53288574 302.19465088 169.12827148 302.13930176 169.74169922 302.08227539 C172.43237215 301.82981135 175.12242286 301.57123184 177.8125 301.3125 C178.74964844 301.22548828 179.68679688 301.13847656 180.65234375 301.04882812 C181.54824219 300.96181641 182.44414063 300.87480469 183.3671875 300.78515625 C184.60831299 300.66732788 184.60831299 300.66732788 185.87451172 300.54711914 C187.9956666 300.35222637 187.9956666 300.35222637 189.9375 299.25 C191.91474061 299.15327168 193.8954006 299.12020097 195.875 299.125 C196.93589844 299.12242187 197.99679687 299.11984375 199.08984375 299.1171875 C201.9375 299.25 201.9375 299.25 204.9375 300.25 C206.48928929 300.46183708 208.04638672 300.63619937 209.60546875 300.78515625 C210.49814453 300.87216797 211.39082031 300.95917969 212.31054688 301.04882812 C213.23931641 301.13583984 214.16808594 301.22285156 215.125 301.3125 C216.06537109 301.40337891 217.00574219 301.49425781 217.97460938 301.58789062 C220.2952922 301.81171283 222.61623689 302.03229246 224.9375 302.25 C224.9375 302.91 224.9375 303.57 224.9375 304.25 C228.5675 304.58 232.1975 304.91 235.9375 305.25 C235.9375 305.91 235.9375 306.57 235.9375 307.25 C236.618125 307.37375 237.29875 307.4975 238 307.625 C241.3652412 308.34100877 244.63763425 309.27945125 247.9375 310.25 C247.9375 310.91 247.9375 311.57 247.9375 312.25 C249.9175 312.58 251.8975 312.91 253.9375 313.25 C253.9375 313.91 253.9375 314.57 253.9375 315.25 C255.5875 315.58 257.2375 315.91 258.9375 316.25 C258.9375 316.91 258.9375 317.57 258.9375 318.25 C259.9275 318.25 260.9175 318.25 261.9375 318.25 C261.9375 318.91 261.9375 319.57 261.9375 320.25 C263.5875 320.58 265.2375 320.91 266.9375 321.25 C266.9375 321.91 266.9375 322.57 266.9375 323.25 C268.2575 323.58 269.5775 323.91 270.9375 324.25 C270.9375 324.91 270.9375 325.57 270.9375 326.25 C271.5975 326.25 272.2575 326.25 272.9375 326.25 C272.9375 326.91 272.9375 327.57 272.9375 328.25 C274.2575 328.58 275.5775 328.91 276.9375 329.25 C276.9375 329.91 276.9375 330.57 276.9375 331.25 C277.81535156 331.38148438 277.81535156 331.38148438 278.7109375 331.515625 C282.90703246 332.89960018 285.37428471 336.79551442 287.9375 340.25 C288.64036303 341.90172812 289.32405243 343.56301918 289.9375 345.25 C290.9275 345.58 291.9175 345.91 292.9375 346.25 C292.9375 346.91 292.9375 347.57 292.9375 348.25 C293.5975 348.25 294.2575 348.25 294.9375 348.25 C294.9375 349.24 294.9375 350.23 294.9375 351.25 C295.5975 351.25 296.2575 351.25 296.9375 351.25 C298.4453125 353.3671875 298.4453125 353.3671875 300.0625 356.125 C300.60132813 357.02992188 301.14015625 357.93484375 301.6953125 358.8671875 C302.9375 361.25 302.9375 361.25 302.9375 363.25 C303.5975 363.58 304.2575 363.91 304.9375 364.25 C305.5625 366.8125 305.5625 366.8125 305.9375 369.25 C306.5975 369.25 307.2575 369.25 307.9375 369.25 C308.46150391 370.85681641 308.46150391 370.85681641 308.99609375 372.49609375 C309.45557145 373.89328104 309.91521546 375.29041365 310.375 376.6875 C310.60509766 377.39455078 310.83519531 378.10160156 311.07226562 378.83007812 C312.01171147 382.31306795 312.01171147 382.31306795 313.9375 385.25 C313.97830783 387.24958364 313.98004356 389.25045254 313.9375 391.25 C314.5975 391.25 315.2575 391.25 315.9375 391.25 C317.58131683 400.77683592 318.25646292 409.93792981 318.19824219 419.58129883 C318.18752423 421.68274887 318.19821198 423.78334121 318.2109375 425.88476562 C318.21905141 435.1634308 317.39365491 444.08269221 315.9375 453.25 C315.6075 453.25 315.2775 453.25 314.9375 453.25 C314.68355469 454.095625 314.42960938 454.94125 314.16796875 455.8125 C312.27716638 462.04435798 310.315249 468.18674005 307.9375 474.25 C307.2775 474.25 306.6175 474.25 305.9375 474.25 C305.81375 475.5803125 305.81375 475.5803125 305.6875 476.9375 C304.82144231 480.76258812 303.46109868 482.2937844 300.9375 485.25 C299.95516487 486.99285266 298.97326622 488.73602076 298.0078125 490.48828125 C296.92376338 492.27261027 295.73383833 493.79240087 294.375 495.375 C291.92331732 498.08891299 291.92331732 498.08891299 290.4375 500.875 C288.64866 503.70733 286.68022935 505.35118737 283.9375 507.25 C283.2775 507.25 282.6175 507.25 281.9375 507.25 C281.6075 508.57 281.2775 509.89 280.9375 511.25 C279.6175 511.58 278.2975 511.91 276.9375 512.25 C276.9375 512.91 276.9375 513.57 276.9375 514.25 C275.625 515.875 275.625 515.875 273.9375 517.25 C272.9475 517.25 271.9575 517.25 270.9375 517.25 C270.9375 517.91 270.9375 518.57 270.9375 519.25 C269.16792094 521.5783935 268.12166484 522.20288806 265.25 522.9375 C264.1053125 523.0921875 264.1053125 523.0921875 262.9375 523.25 C262.9375 523.91 262.9375 524.57 262.9375 525.25 C258.9375 527.25 258.9375 527.25 254.9375 529.25 C254.25171875 529.62382813 253.5659375 529.99765625 252.859375 530.3828125 C250.9375 531.25 250.9375 531.25 247.9375 531.25 C247.9375 531.91 247.9375 532.57 247.9375 533.25 C241.00457281 535.84655258 234.0553153 538.21192707 226.9375 540.25 C226.9375 540.58 226.9375 540.91 226.9375 541.25 C216.68250665 542.85798003 206.77330747 543.56235867 196.375 543.5 C195.08142578 543.50773438 193.78785156 543.51546875 192.45507812 543.5234375 C183.75315796 543.50599004 175.51057084 542.70860986 166.9375 541.25 C166.9375 540.59 166.9375 539.93 166.9375 539.25 C166.133125 539.311875 165.32875 539.37375 164.5 539.4375 C159.96101267 539.19860593 156.16848399 537.82956736 151.9375 536.25 C151.9375 535.59 151.9375 534.93 151.9375 534.25 C149.6275 533.92 147.3175 533.59 144.9375 533.25 C144.9375 532.59 144.9375 531.93 144.9375 531.25 C143.885625 531.1675 142.83375 531.085 141.75 531 C137.62886976 530.18928585 135.9840729 529.03543808 132.9375 526.25 C132.2775 525.92 131.6175 525.59 130.9375 525.25 C130.9375 524.59 130.9375 523.93 130.9375 523.25 C129.2875 522.92 127.6375 522.59 125.9375 522.25 C125.9375 521.59 125.9375 520.93 125.9375 520.25 C124.6175 519.92 123.2975 519.59 121.9375 519.25 C121.9375 518.59 121.9375 517.93 121.9375 517.25 C121.2775 517.25 120.6175 517.25 119.9375 517.25 C119.9375 516.59 119.9375 515.93 119.9375 515.25 C118.6175 514.92 117.2975 514.59 115.9375 514.25 C115.9375 513.59 115.9375 512.93 115.9375 512.25 C115.36128906 512.18554688 114.78507813 512.12109375 114.19140625 512.0546875 C111.02311666 510.92354771 109.88039367 509.04113032 107.875 506.375 C105.20304346 502.81509108 105.20304346 502.81509108 102.19140625 499.5546875 C100.9375 498.25 100.9375 498.25 100.9375 496.25 C100.2775 496.25 99.6175 496.25 98.9375 496.25 C98.6075 494.93 98.2775 493.61 97.9375 492.25 C97.2775 492.25 96.6175 492.25 95.9375 492.25 C94.4296875 490.16796875 94.4296875 490.16796875 92.8125 487.4375 C92.27367187 486.54417969 91.73484375 485.65085937 91.1796875 484.73046875 C89.9375 482.25 89.9375 482.25 89.9375 479.25 C89.2775 479.25 88.6175 479.25 87.9375 479.25 C81.57255867 466.97295902 77.50089625 455.06000017 75.9375 441.25 C75.6075 440.92 75.2775 440.59 74.9375 440.25 C74.83650512 437.52275721 74.79779471 434.82137477 74.8046875 432.09375 C74.80373077 431.27628296 74.80277405 430.45881592 74.80178833 429.61657715 C74.80110655 427.88484622 74.80296071 426.15311276 74.80712891 424.42138672 C74.81247721 421.76133518 74.80718388 419.1014525 74.80078125 416.44140625 C74.80144203 414.76302046 74.8027232 413.08463477 74.8046875 411.40625 C74.80266327 410.60521851 74.80063904 409.80418701 74.79855347 408.97888184 C74.82254921 403.36495079 74.82254921 403.36495079 75.9375 402.25 C76.28958981 400.75879612 76.59375472 399.25617308 76.875 397.75 C77.80575815 392.89326197 78.84830203 388.073591 79.9375 383.25 C80.5975 383.25 81.2575 383.25 81.9375 383.25 C81.98648438 382.64671875 82.03546875 382.0434375 82.0859375 381.421875 C82.16070313 380.62265625 82.23546875 379.8234375 82.3125 379 C82.41691406 377.81664062 82.41691406 377.81664062 82.5234375 376.609375 C82.95257113 374.164123 83.72350638 372.40163097 84.9375 370.25 C85.5975 370.25 86.2575 370.25 86.9375 370.25 C87.2675 368.27 87.5975 366.29 87.9375 364.25 C88.5975 364.25 89.2575 364.25 89.9375 364.25 C90.2675 362.6 90.5975 360.95 90.9375 359.25 C91.5975 359.25 92.2575 359.25 92.9375 359.25 C93.2675 357.6 93.5975 355.95 93.9375 354.25 C94.5975 354.25 95.2575 354.25 95.9375 354.25 C95.9375 353.26 95.9375 352.27 95.9375 351.25 C97.3125 349.75 97.3125 349.75 98.9375 348.25 C99.5975 347.26 100.2575 346.27 100.9375 345.25 C101.5975 345.25 102.2575 345.25 102.9375 345.25 C103.205625 344.66734375 103.47375 344.0846875 103.75 343.484375 C104.95230991 341.22213399 106.27575913 339.44423682 107.9375 337.5 C108.453125 336.88640625 108.96875 336.2728125 109.5 335.640625 C110.9375 334.25 110.9375 334.25 112.9375 334.25 C112.9375 333.59 112.9375 332.93 112.9375 332.25 C113.9275 331.59 114.9175 330.93 115.9375 330.25 C115.59305119 327.77733235 115.59305119 327.77733235 114.9375 325.25 C114.2775 324.92 113.6175 324.59 112.9375 324.25 C112.3125 322.1875 112.3125 322.1875 111.9375 320.25 C111.2775 320.25 110.6175 320.25 109.9375 320.25 C109.69 319.445625 109.4425 318.64125 109.1875 317.8125 C108.2112391 315.09997953 108.2112391 315.09997953 105.875 314.375 C105.235625 314.33375 104.59625 314.2925 103.9375 314.25 C103.6075 314.58 103.2775 314.91 102.9375 315.25 C100.40700598 315.32313567 97.90445163 315.34247527 95.375 315.3125 C94.30862305 315.30573242 94.30862305 315.30573242 93.22070312 315.29882812 C91.45959987 315.28700864 89.69853964 315.26907263 87.9375 315.25 C87.9375 314.59 87.9375 313.93 87.9375 313.25 C82.3275 313.25 76.7175 313.25 70.9375 313.25 C69.4525 318.2 69.4525 318.2 67.9375 323.25 C67.2775 323.25 66.6175 323.25 65.9375 323.25 C65.94910156 323.84167969 65.96070313 324.43335938 65.97265625 325.04296875 C65.98619141 326.22826172 65.98619141 326.22826172 66 327.4375 C66.01160156 328.21480469 66.02320313 328.99210937 66.03515625 329.79296875 C65.9375 332.25 65.9375 332.25 65.44996643 334.59843445 C64.95675486 337.15037297 64.74526447 339.53795875 64.64038086 342.13208008 C64.5804319 343.54297661 64.5804319 343.54297661 64.51927185 344.9823761 C64.48068558 345.9846373 64.4420993 346.9868985 64.40234375 348.01953125 C64.35936661 349.05567062 64.31638947 350.09181 64.27210999 351.15934753 C64.136043 354.4602594 64.00545033 357.76136186 63.875 361.0625 C63.78356426 363.30405122 63.69177154 365.54558791 63.59960938 367.78710938 C63.3747677 373.27457786 63.15441709 378.76221285 62.9375 384.25 C62.2775 384.25 61.6175 384.25 60.9375 384.25 C60.94910156 385.00023437 60.96070313 385.75046875 60.97265625 386.5234375 C61.0312829 393.17337417 60.75519308 399.65004873 59.9375 406.25 C59.2775 406.25 58.6175 406.25 57.9375 406.25 C58.0303125 407.7040625 58.0303125 407.7040625 58.125 409.1875 C58.125 413.89872758 56.589601 417.88904871 54.9375 422.25 C54.65132812 423.02601563 54.36515625 423.80203125 54.0703125 424.6015625 C53.37023438 426.48843972 52.65538483 428.36982543 51.9375 430.25 C51.2775 430.25 50.6175 430.25 49.9375 430.25 C49.81375 430.971875 49.69 431.69375 49.5625 432.4375 C48.9470069 435.20721894 48.05305626 437.6470354 46.9375 440.25 C46.2775 440.25 45.6175 440.25 44.9375 440.25 C44.6075 441.9 44.2775 443.55 43.9375 445.25 C43.2775 445.25 42.6175 445.25 41.9375 445.25 C41.6075 446.57 41.2775 447.89 40.9375 449.25 C40.2775 449.25 39.6175 449.25 38.9375 449.25 C38.669375 450.054375 38.40125 450.85875 38.125 451.6875 C37.733125 452.533125 37.34125 453.37875 36.9375 454.25 C35.9475 454.58 34.9575 454.91 33.9375 455.25 C33.20426204 457.26508358 33.20426204 457.26508358 32.9375 459.25 C31.6175 459.58 30.2975 459.91 28.9375 460.25 C28.9375 460.91 28.9375 461.57 28.9375 462.25 C27.2578125 463.7578125 27.2578125 463.7578125 25.0625 465.375 C24.34320312 465.91382813 23.62390625 466.45265625 22.8828125 467.0078125 C20.9375 468.25 20.9375 468.25 18.9375 468.25 C18.9375 468.91 18.9375 469.57 18.9375 470.25 C16.9575 470.58 14.9775 470.91 12.9375 471.25 C12.9375 471.91 12.9375 472.57 12.9375 473.25 C10.2975 473.58 7.6575 473.91 4.9375 474.25 C4.9375 474.91 4.9375 475.57 4.9375 476.25 C1.62657899 476.76083558 -1.68643479 477.25663214 -5 477.75 C-5.92619141 477.89308594 -6.85238281 478.03617188 -7.80664062 478.18359375 C-8.72509766 478.31894531 -9.64355469 478.45429687 -10.58984375 478.59375 C-11.42249756 478.71943359 -12.25515137 478.84511719 -13.11303711 478.97460938 C-20.22200132 479.63837162 -27.30044439 479.18335885 -34.40234375 478.62890625 C-35.25051163 478.56468979 -36.0986795 478.50047333 -36.97254944 478.43431091 C-38.74656094 478.29898458 -40.52044115 478.1619268 -42.29418945 478.02319336 C-45.01668677 477.81120065 -47.73972122 477.60745279 -50.46289062 477.40429688 C-52.19274631 477.27132644 -53.9225655 477.1378802 -55.65234375 477.00390625 C-56.46686508 476.9434462 -57.28138641 476.88298615 -58.12059021 476.82069397 C-63.83292763 476.36478618 -63.83292763 476.36478618 -66.0625 475.25 C-68.09196119 475.02712919 -70.12739743 474.85760065 -72.1640625 474.71484375 C-73.37578125 474.62783203 -74.5875 474.54082031 -75.8359375 474.45117188 C-77.10695313 474.36416016 -78.37796875 474.27714844 -79.6875 474.1875 C-80.96625 474.09662109 -82.245 474.00574219 -83.5625 473.91210938 C-86.72891994 473.68762438 -89.89556591 473.46709077 -93.0625 473.25 C-93.0625 472.59 -93.0625 471.93 -93.0625 471.25 C-93.77792969 471.26160156 -94.49335937 471.27320313 -95.23046875 471.28515625 C-102.89145572 471.35453129 -110.43398446 470.93902721 -118.0625 470.25 C-118.0625 469.92 -118.0625 469.59 -118.0625 469.25 C-118.83335937 469.18941406 -119.60421875 469.12882812 -120.3984375 469.06640625 C-121.40132813 468.98261719 -122.40421875 468.89882813 -123.4375 468.8125 C-124.43523437 468.73128906 -125.43296875 468.65007812 -126.4609375 468.56640625 C-129.0625 468.25 -129.0625 468.25 -131.0625 467.25 C-132.3906456 467.05553687 -133.72573918 466.90704616 -135.0625 466.78515625 C-135.86244385 466.70837646 -136.6623877 466.63159668 -137.48657227 466.55249023 C-138.33662842 466.47329346 -139.18668457 466.39409668 -140.0625 466.3125 C-146.07474923 465.7216362 -151.93798625 465.01333906 -157.83984375 463.69140625 C-161.87392377 462.89026206 -165.96701736 462.58112413 -170.0625 462.25 C-170.0625 461.59 -170.0625 460.93 -170.0625 460.25 C-172.0115625 460.2809375 -172.0115625 460.2809375 -174 460.3125 C-178.75632325 460.32004972 -183.34638953 459.84887117 -188.0625 459.25 C-188.0625 458.59 -188.0625 457.93 -188.0625 457.25 C-189.7640625 457.311875 -189.7640625 457.311875 -191.5 457.375 C-195.46228054 457.38198815 -198.97864188 456.70296502 -202.8125 455.7578125 C-205.06413932 455.24963001 -207.26944254 454.94137422 -209.5625 454.6875 C-213.0625 454.25 -213.0625 454.25 -214.0625 453.25 C-216.75112664 452.85006314 -219.42602217 452.49865457 -222.125 452.1875 C-222.88361328 452.09662109 -223.64222656 452.00574219 -224.42382812 451.91210938 C-226.3029301 451.6875626 -228.18266095 451.46829022 -230.0625 451.25 C-230.0625 450.92 -230.0625 450.59 -230.0625 450.25 C-230.65675781 450.14453857 -231.25101562 450.03907715 -231.86328125 449.93041992 C-234.59781159 449.44055412 -237.33010036 448.93910875 -240.0625 448.4375 C-240.99707031 448.27185547 -241.93164062 448.10621094 -242.89453125 447.93554688 C-248.57915397 446.88210281 -253.71414673 445.45115011 -259.0625 443.25 C-259.0625 442.59 -259.0625 441.93 -259.0625 441.25 C-260.7125 440.92 -262.3625 440.59 -264.0625 440.25 C-264.0625 439.59 -264.0625 438.93 -264.0625 438.25 C-264.7225 438.25 -265.3825 438.25 -266.0625 438.25 C-269.12471507 435.85348386 -270.55194891 432.77461922 -272.0625 429.25 C-272.0625 427.93 -272.0625 426.61 -272.0625 425.25 C-272.7225 425.25 -273.3825 425.25 -274.0625 425.25 C-274.55662936 423.67127225 -275.03164921 422.08656632 -275.5 420.5 C-275.90025391 419.17742187 -275.90025391 419.17742187 -276.30859375 417.828125 C-278.22858741 408.71561625 -278.21296152 399.27897306 -278.5 390 C-278.87360597 371.19959211 -278.87360597 371.19959211 -284.16015625 353.36328125 C-285.16300977 351.01460699 -285.6357977 348.76182489 -286.0625 346.25 C-286.7225 346.25 -287.3825 346.25 -288.0625 346.25 C-288.3925 345.26 -288.7225 344.27 -289.0625 343.25 C-289.7225 342.92 -290.3825 342.59 -291.0625 342.25 C-291.0625 341.26 -291.0625 340.27 -291.0625 339.25 C-291.7225 338.92 -292.3825 338.59 -293.0625 338.25 C-293.3925 337.26 -293.7225 336.27 -294.0625 335.25 C-295.0525 334.92 -296.0425 334.59 -297.0625 334.25 C-297.72916667 332.58333333 -298.39583333 330.91666667 -299.0625 329.25 C-300.0525 328.92 -301.0425 328.59 -302.0625 328.25 C-302.0625 327.59 -302.0625 326.93 -302.0625 326.25 C-302.7225 326.25 -303.3825 326.25 -304.0625 326.25 C-305.46484375 324.60546875 -305.46484375 324.60546875 -307 322.4375 C-308.50002322 320.33132929 -309.89408512 318.41296959 -311.75390625 316.61328125 C-313.0625 315.25 -313.0625 315.25 -313.0625 313.25 C-314.0525 312.92 -315.0425 312.59 -316.0625 312.25 C-316.0625 311.59 -316.0625 310.93 -316.0625 310.25 C-316.7225 310.25 -317.3825 310.25 -318.0625 310.25 C-318.495625 309.5075 -318.92875 308.765 -319.375 308 C-320.93933598 305.09683637 -320.93933598 305.09683637 -323.75 303.125 C-324.513125 302.50625 -325.27625 301.8875 -326.0625 301.25 C-326.0625 300.26 -326.0625 299.27 -326.0625 298.25 C-326.7225 298.25 -327.3825 298.25 -328.0625 298.25 C-328.289375 297.6725 -328.51625 297.095 -328.75 296.5 C-330.39288023 293.6836339 -332.45783227 292.16922886 -335.0625 290.25 C-335.0625 291.57 -335.0625 292.89 -335.0625 294.25 C-335.7225 294.25 -336.3825 294.25 -337.0625 294.25 C-337.17851562 294.92289063 -337.29453125 295.59578125 -337.4140625 296.2890625 C-338.18727266 299.81974504 -339.28384624 303.20524065 -340.4375 306.625 C-340.64632812 307.25921875 -340.85515625 307.8934375 -341.0703125 308.546875 C-342.52309485 312.88750519 -344.21249962 317.06315703 -346.0625 321.25 C-346.7225 321.25 -347.3825 321.25 -348.0625 321.25 C-348.0625 321.91 -348.0625 322.57 -348.0625 323.25 C-346.7425 323.58 -345.4225 323.91 -344.0625 324.25 C-344.0625 324.91 -344.0625 325.57 -344.0625 326.25 C-343.4025 326.25 -342.7425 326.25 -342.0625 326.25 C-342.0625 326.91 -342.0625 327.57 -342.0625 328.25 C-340.7425 328.58 -339.4225 328.91 -338.0625 329.25 C-338.0625 329.91 -338.0625 330.57 -338.0625 331.25 C-337.19431641 331.35054687 -337.19431641 331.35054687 -336.30859375 331.453125 C-333.18166889 332.56250356 -332.09589616 334.36173109 -330.125 337 C-327.91559101 339.89366626 -325.80022022 342.65197665 -323.125 345.125 C-321.06085898 347.25169075 -320.38529645 348.34483196 -320.0625 351.25 C-319.4025 351.25 -318.7425 351.25 -318.0625 351.25 C-315.0625 355.63461538 -315.0625 355.63461538 -315.0625 358.25 C-314.4025 358.25 -313.7425 358.25 -313.0625 358.25 C-312.7325 360.23 -312.4025 362.21 -312.0625 364.25 C-311.4025 364.25 -310.7425 364.25 -310.0625 364.25 C-306.97349799 369.91507011 -304.48585385 374.75857435 -304.0625 381.25 C-303.4025 381.25 -302.7425 381.25 -302.0625 381.25 C-301.92972656 382.03246094 -301.79695312 382.81492187 -301.66015625 383.62109375 C-301.39525391 385.13896484 -301.39525391 385.13896484 -301.125 386.6875 C-300.95097656 387.69683594 -300.77695312 388.70617187 -300.59765625 389.74609375 C-300.31498903 392.1787438 -300.31498903 392.1787438 -299.0625 393.25 C-299.02157063 395.58297433 -299.02008277 397.91705225 -299.0625 400.25 C-298.4025 400.25 -297.7425 400.25 -297.0625 400.25 C-295.94311886 414.70201007 -295.94311886 428.79798993 -297.0625 443.25 C-297.7225 443.25 -298.3825 443.25 -299.0625 443.25 C-299.02125 444.44625 -298.98 445.6425 -298.9375 446.875 C-298.93075243 450.70087486 -299.70393495 453.6537984 -301.0625 457.25 C-301.42356097 458.91088045 -301.76712173 460.57618981 -302.0625 462.25 C-302.7225 462.25 -303.3825 462.25 -304.0625 462.25 C-304.18431641 463.72146484 -304.18431641 463.72146484 -304.30859375 465.22265625 C-304.96952538 469.84917765 -306.95731069 473.59547165 -309.125 477.6875 C-309.50205078 478.41904297 -309.87910156 479.15058594 -310.26757812 479.90429688 C-311.19009296 481.69093953 -312.1250312 483.47115829 -313.0625 485.25 C-313.7225 485.25 -314.3825 485.25 -315.0625 485.25 C-315.31 485.95125 -315.5575 486.6525 -315.8125 487.375 C-317.23430238 490.64514548 -318.93496288 493.391122 -321.0625 496.25 C-321.7225 496.25 -322.3825 496.25 -323.0625 496.25 C-323.3925 497.57 -323.7225 498.89 -324.0625 500.25 C-324.7225 500.25 -325.3825 500.25 -326.0625 500.25 C-326.0625 501.24 -326.0625 502.23 -326.0625 503.25 C-327.453125 504.6796875 -327.453125 504.6796875 -329.3125 506.125 C-331.62667087 507.99771257 -333.32107386 509.57701988 -335.1875 511.9375 C-337.23740673 514.4657183 -339.25631216 515.65729879 -342.0625 517.25 C-342.3925 517.91 -342.7225 518.57 -343.0625 519.25 C-345.625 519.875 -345.625 519.875 -348.0625 520.25 C-348.0625 520.91 -348.0625 521.57 -348.0625 522.25 C-349.3825 522.58 -350.7025 522.91 -352.0625 523.25 C-352.0625 523.91 -352.0625 524.57 -352.0625 525.25 C-354.96798882 527.29169485 -356.46392046 528.25 -360.0625 528.25 C-360.0625 528.91 -360.0625 529.57 -360.0625 530.25 C-362.0425 530.58 -364.0225 530.91 -366.0625 531.25 C-366.0625 531.91 -366.0625 532.57 -366.0625 533.25 C-368.79020166 534.23341615 -371.51952105 535.21185053 -374.25 536.1875 C-375.01892578 536.46529297 -375.78785156 536.74308594 -376.58007812 537.02929688 C-380.38585366 538.38500232 -384.0557364 539.61566268 -388.0625 540.25 C-388.0625 540.58 -388.0625 540.91 -388.0625 541.25 C-397.96175099 542.93424423 -407.45452105 543.56006265 -417.5 543.5 C-418.78970703 543.50773438 -420.07941406 543.51546875 -421.40820312 543.5234375 C-430.46881371 543.50528906 -439.12799032 542.65092857 -448.0625 541.25 C-448.0625 540.59 -448.0625 539.93 -448.0625 539.25 C-449.2690625 539.3428125 -449.2690625 539.3428125 -450.5 539.4375 C-455.03898733 539.19860593 -458.83151601 537.82956736 -463.0625 536.25 C-463.0625 535.59 -463.0625 534.93 -463.0625 534.25 C-465.3725 533.92 -467.6825 533.59 -470.0625 533.25 C-470.0625 532.59 -470.0625 531.93 -470.0625 531.25 C-471.6403125 531.12625 -471.6403125 531.12625 -473.25 531 C-477.4758633 530.16868263 -478.87861128 529.03590263 -482.0625 526.25 C-484.35561309 524.83182733 -486.69775154 523.54829327 -489.0625 522.25 C-489.0625 521.59 -489.0625 520.93 -489.0625 520.25 C-490.3825 519.92 -491.7025 519.59 -493.0625 519.25 C-493.0625 518.59 -493.0625 517.93 -493.0625 517.25 C-493.68125 516.940625 -494.3 516.63125 -494.9375 516.3125 C-496.3125 515.625 -497.6875 514.9375 -499.0625 514.25 C-499.0625 513.59 -499.0625 512.93 -499.0625 512.25 C-500.3825 511.92 -501.7025 511.59 -503.0625 511.25 C-503.165625 510.610625 -503.26875 509.97125 -503.375 509.3125 C-503.601875 508.631875 -503.82875 507.95125 -504.0625 507.25 C-505.0525 506.92 -506.0425 506.59 -507.0625 506.25 C-507.0625 505.59 -507.0625 504.93 -507.0625 504.25 C-508.0525 503.92 -509.0425 503.59 -510.0625 503.25 C-510.0625 502.59 -510.0625 501.93 -510.0625 501.25 C-511.0525 500.92 -512.0425 500.59 -513.0625 500.25 C-513.76187532 498.93352881 -514.42979133 497.59977849 -515.0625 496.25 C-515.7225 495.92 -516.3825 495.59 -517.0625 495.25 C-517.0625 494.59 -517.0625 493.93 -517.0625 493.25 C-517.7225 493.25 -518.3825 493.25 -519.0625 493.25 C-522.52336503 486.97429808 -525.90256153 480.68273189 -529.0625 474.25 C-529.42859375 473.59902344 -529.7946875 472.94804688 -530.171875 472.27734375 C-531.0625 470.25 -531.0625 470.25 -531.0625 466.25 C-531.7225 466.25 -532.3825 466.25 -533.0625 466.25 C-534.967747 461.14665983 -536.48839023 456.78657294 -536.0625 451.25 C-536.7225 451.25 -537.3825 451.25 -538.0625 451.25 C-538.11784912 450.67967041 -538.17319824 450.10934082 -538.23022461 449.52172852 C-538.48223743 446.95151247 -538.74102728 444.38202369 -539 441.8125 C-539.08701172 440.91466797 -539.17402344 440.01683594 -539.26367188 439.09179688 C-539.35068359 438.23779297 -539.43769531 437.38378906 -539.52734375 436.50390625 C-539.605896 435.71314697 -539.68444824 434.9223877 -539.76538086 434.10766602 C-539.87801499 432.23896652 -539.87801499 432.23896652 -541.0625 431.25 C-541.14919432 429.7612814 -541.16953494 428.268555 -541.16015625 426.77734375 C-541.15693359 425.87822266 -541.15371094 424.97910156 -541.15039062 424.05273438 C-541.14201172 423.10720703 -541.13363281 422.16167969 -541.125 421.1875 C-541.12048828 420.23810547 -541.11597656 419.28871094 -541.11132812 418.31054688 C-541.0995011 415.95696935 -541.08302025 413.60351523 -541.0625 411.25 C-540.4025 411.25 -539.7425 411.25 -539.0625 411.25 C-539.07410156 410.46496094 -539.08570313 409.67992187 -539.09765625 408.87109375 C-539.14625507 403.21280225 -539.07544749 397.82121122 -538.0625 392.25 C-537.4025 392.25 -536.7425 392.25 -536.0625 392.25 C-536.0625 390.27 -536.0625 388.29 -536.0625 386.25 C-535.4025 386.25 -534.7425 386.25 -534.0625 386.25 C-533.7325 383.28 -533.4025 380.31 -533.0625 377.25 C-532.4025 377.25 -531.7425 377.25 -531.0625 377.25 C-530.7325 374.94 -530.4025 372.63 -530.0625 370.25 C-529.4025 370.25 -528.7425 370.25 -528.0625 370.25 C-527.876875 369.13625 -527.876875 369.13625 -527.6875 368 C-527.10763299 365.44858515 -526.32541261 363.5232427 -525.0625 361.25 C-524.4025 361.25 -523.7425 361.25 -523.0625 361.25 C-522.7325 359.6 -522.4025 357.95 -522.0625 356.25 C-521.4025 356.25 -520.7425 356.25 -520.0625 356.25 C-520.0625 355.26 -520.0625 354.27 -520.0625 353.25 C-519.4025 353.25 -518.7425 353.25 -518.0625 353.25 C-517.7325 351.6 -517.4025 349.95 -517.0625 348.25 C-516.4025 348.25 -515.7425 348.25 -515.0625 348.25 C-514.7325 347.26 -514.4025 346.27 -514.0625 345.25 C-513.4025 345.25 -512.7425 345.25 -512.0625 345.25 C-511.794375 344.486875 -511.52625 343.72375 -511.25 342.9375 C-510.08809892 340.30793439 -509.17953418 339.11299008 -507.0625 337.25 C-506.2890625 336.4146875 -506.2890625 336.4146875 -505.5 335.5625 C-504.0625 334.25 -504.0625 334.25 -502.0625 334.25 C-501.7325 333.26 -501.4025 332.27 -501.0625 331.25 C-500.4025 331.25 -499.7425 331.25 -499.0625 331.25 C-499.0625 330.59 -499.0625 329.93 -499.0625 329.25 C-497.7425 328.92 -496.4225 328.59 -495.0625 328.25 C-495.0625 327.59 -495.0625 326.93 -495.0625 326.25 C-494.4025 326.25 -493.7425 326.25 -493.0625 326.25 C-493.0625 325.59 -493.0625 324.93 -493.0625 324.25 C-491.7425 323.92 -490.4225 323.59 -489.0625 323.25 C-489.0625 322.59 -489.0625 321.93 -489.0625 321.25 C-487.4125 320.92 -485.7625 320.59 -484.0625 320.25 C-484.0625 319.59 -484.0625 318.93 -484.0625 318.25 C-483.0725 318.25 -482.0825 318.25 -481.0625 318.25 C-481.0625 317.59 -481.0625 316.93 -481.0625 316.25 C-479.4125 315.92 -477.7625 315.59 -476.0625 315.25 C-476.0625 314.59 -476.0625 313.93 -476.0625 313.25 C-474.00200145 312.43243762 -471.93901147 311.62115266 -469.875 310.8125 C-468.72644531 310.36003906 -467.57789063 309.90757812 -466.39453125 309.44140625 C-463.59126767 308.43906699 -460.99137424 307.72987205 -458.0625 307.25 C-458.0625 306.59 -458.0625 305.93 -458.0625 305.25 C-454.4325 304.92 -450.8025 304.59 -447.0625 304.25 C-447.0625 303.59 -447.0625 302.93 -447.0625 302.25 C-446.18513184 302.16697632 -446.18513184 302.16697632 -445.29003906 302.08227539 C-442.63054892 301.82882735 -439.97153168 301.57071175 -437.3125 301.3125 C-436.39210938 301.22548828 -435.47171875 301.13847656 -434.5234375 301.04882812 C-433.63398438 300.96181641 -432.74453125 300.87480469 -431.828125 300.78515625 C-431.01118164 300.706604 -430.19423828 300.62805176 -429.35253906 300.54711914 C-427.07651069 300.29671905 -427.07651069 300.29671905 -424.953125 299.72265625 C-422.22647655 299.04099414 -419.61571349 299.15703029 -416.8125 299.1875 C-415.73484375 299.19652344 -414.6571875 299.20554687 -413.546875 299.21484375 C-412.31710937 299.23224609 -412.31710937 299.23224609 -411.0625 299.25 C-409.5775 294.795 -409.5775 294.795 -408.0625 290.25 C-407.4025 290.25 -406.7425 290.25 -406.0625 290.25 C-405.7325 287.61 -405.4025 284.97 -405.0625 282.25 C-404.4025 282.25 -403.7425 282.25 -403.0625 282.25 C-402.7325 279.61 -402.4025 276.97 -402.0625 274.25 C-401.4025 274.25 -400.7425 274.25 -400.0625 274.25 C-399.98 273.280625 -399.8975 272.31125 -399.8125 271.3125 C-399.14010391 266.55769905 -397.10374653 262.55173807 -395.0625 258.25 C-394.4724175 256.89876065 -393.88835183 255.54486502 -393.3125 254.1875 C-392.9 253.218125 -392.4875 252.24875 -392.0625 251.25 C-395.0325 250.26 -395.0325 250.26 -398.0625 249.25 C-398.0625 248.59 -398.0625 247.93 -398.0625 247.25 C-398.866875 247.064375 -398.866875 247.064375 -399.6875 246.875 C-402.5263286 246.12793984 -405.28473202 245.19696636 -408.0625 244.25 C-408.0625 243.59 -408.0625 242.93 -408.0625 242.25 C-410.0425 241.92 -412.0225 241.59 -414.0625 241.25 C-414.0625 240.59 -414.0625 239.93 -414.0625 239.25 C-415.0525 239.25 -416.0425 239.25 -417.0625 239.25 C-417.0625 239.91 -417.0625 240.57 -417.0625 241.25 C-418.3825 241.58 -419.7025 241.91 -421.0625 242.25 C-421.0625 242.91 -421.0625 243.57 -421.0625 244.25 C-422.4375 245.875 -422.4375 245.875 -424.0625 247.25 C-424.7225 247.25 -425.3825 247.25 -426.0625 247.25 C-426.3925 248.24 -426.7225 249.23 -427.0625 250.25 C-427.7225 250.25 -428.3825 250.25 -429.0625 250.25 C-429.0625 250.91 -429.0625 251.57 -429.0625 252.25 C-432.52403846 255.25 -432.52403846 255.25 -435.0625 255.25 C-435.3925 256.24 -435.7225 257.23 -436.0625 258.25 C-436.7225 258.25 -437.3825 258.25 -438.0625 258.25 C-438.0625 258.91 -438.0625 259.57 -438.0625 260.25 C-439.48828125 261.65234375 -439.48828125 261.65234375 -441.375 263.1875 C-443.23992731 264.71619303 -445.00674782 266.19126352 -446.66796875 267.94140625 C-448.0625 269.25 -448.0625 269.25 -450.0625 269.25 C-450.3925 270.24 -450.7225 271.23 -451.0625 272.25 C-451.7225 272.25 -452.3825 272.25 -453.0625 272.25 C-453.0625 272.91 -453.0625 273.57 -453.0625 274.25 C-454.5234375 275.7578125 -454.5234375 275.7578125 -456.4375 277.375 C-457.37722656 278.18324219 -457.37722656 278.18324219 -458.3359375 279.0078125 C-460.0625 280.25 -460.0625 280.25 -462.0625 280.25 C-462.0625 280.91 -462.0625 281.57 -462.0625 282.25 C-463.48828125 283.65234375 -463.48828125 283.65234375 -465.375 285.1875 C-467.23992731 286.71619303 -469.00674782 288.19126352 -470.66796875 289.94140625 C-472.0625 291.25 -472.0625 291.25 -474.0625 291.25 C-474.0625 291.91 -474.0625 292.57 -474.0625 293.25 C-475.4375 294.875 -475.4375 294.875 -477.0625 296.25 C-477.7225 296.25 -478.3825 296.25 -479.0625 296.25 C-479.0625 296.91 -479.0625 297.57 -479.0625 298.25 C-479.701875 298.353125 -480.34125 298.45625 -481 298.5625 C-482.0209375 298.9028125 -482.0209375 298.9028125 -483.0625 299.25 C-483.3925 300.24 -483.7225 301.23 -484.0625 302.25 C-484.7225 302.25 -485.3825 302.25 -486.0625 302.25 C-486.3925 303.24 -486.7225 304.23 -487.0625 305.25 C-487.7225 305.25 -488.3825 305.25 -489.0625 305.25 C-489.0625 305.91 -489.0625 306.57 -489.0625 307.25 C-489.7225 307.25 -490.3825 307.25 -491.0625 307.25 C-491.0625 307.91 -491.0625 308.57 -491.0625 309.25 C-495.53308824 313.25 -495.53308824 313.25 -498.0625 313.25 C-498.0625 313.91 -498.0625 314.57 -498.0625 315.25 C-499.4375 316.875 -499.4375 316.875 -501.0625 318.25 C-501.7225 318.25 -502.3825 318.25 -503.0625 318.25 C-503.0625 318.91 -503.0625 319.57 -503.0625 320.25 C-504.5234375 321.7578125 -504.5234375 321.7578125 -506.4375 323.375 C-507.06398438 323.91382813 -507.69046875 324.45265625 -508.3359375 325.0078125 C-510.0625 326.25 -510.0625 326.25 -512.0625 326.25 C-512.0625 326.91 -512.0625 327.57 -512.0625 328.25 C-516.53308824 332.25 -516.53308824 332.25 -519.0625 332.25 C-519.0625 332.91 -519.0625 333.57 -519.0625 334.25 C-521.02140881 335.64300182 -523.0264118 336.97245446 -525.0625 338.25 C-526.0525 338.91 -527.0425 339.57 -528.0625 340.25 C-529.0525 340.25 -530.0425 340.25 -531.0625 340.25 C-531.0625 340.91 -531.0625 341.57 -531.0625 342.25 C-534.92973631 343.51582219 -538.79401262 343.3618765 -542.8125 343.3125 C-543.50988281 343.30798828 -544.20726562 343.30347656 -544.92578125 343.29882812 C-546.63805803 343.2871002 -548.35029033 343.26916653 -550.0625 343.25 C-551.1796875 339.53125 -551.1796875 339.53125 -550.125 337 C-549.5990625 336.13375 -549.5990625 336.13375 -549.0625 335.25 C-548.4025 335.25 -547.7425 335.25 -547.0625 335.25 C-547.0625 334.26 -547.0625 333.27 -547.0625 332.25 C-545.6875 330.5625 -545.6875 330.5625 -544.0625 329.25 C-543.4025 329.25 -542.7425 329.25 -542.0625 329.25 C-541.98 328.5075 -541.8975 327.765 -541.8125 327 C-540.91652764 323.71476803 -539.54969278 322.50401846 -537.0625 320.25 C-536.7325 319.59 -536.4025 318.93 -536.0625 318.25 C-535.4025 318.25 -534.7425 318.25 -534.0625 318.25 C-533.98 317.5075 -533.8975 316.765 -533.8125 316 C-532.91652764 312.71476803 -531.54969278 311.50401846 -529.0625 309.25 C-528.7325 308.59 -528.4025 307.93 -528.0625 307.25 C-527.4025 307.25 -526.7425 307.25 -526.0625 307.25 C-525.93875 306.445625 -525.815 305.64125 -525.6875 304.8125 C-525.48125 303.966875 -525.275 303.12125 -525.0625 302.25 C-524.4025 301.92 -523.7425 301.59 -523.0625 301.25 C-522.7325 300.26 -522.4025 299.27 -522.0625 298.25 C-521.4025 298.25 -520.7425 298.25 -520.0625 298.25 C-519.7325 296.93 -519.4025 295.61 -519.0625 294.25 C-518.4025 294.25 -517.7425 294.25 -517.0625 294.25 C-517.0625 293.26 -517.0625 292.27 -517.0625 291.25 C-515.75120078 289.89499081 -514.41558313 288.56328657 -513.0625 287.25 C-511.82737921 285.11690808 -511.82737921 285.11690808 -511.0625 283.25 C-510.4025 283.25 -509.7425 283.25 -509.0625 283.25 C-509.0625 282.26 -509.0625 281.27 -509.0625 280.25 C-508.08601983 279.22702078 -507.08118662 278.23095748 -506.0625 277.25 C-505.546875 276.363125 -505.03125 275.47625 -504.5 274.5625 C-504.025625 273.799375 -503.55125 273.03625 -503.0625 272.25 C-502.4025 272.25 -501.7425 272.25 -501.0625 272.25 C-500.815 271.734375 -500.5675 271.21875 -500.3125 270.6875 C-495.61422414 261.52586207 -495.61422414 261.52586207 -493.0625 260.25 C-492.7325 259.26 -492.4025 258.27 -492.0625 257.25 C-491.4025 257.25 -490.7425 257.25 -490.0625 257.25 C-489.7325 255.93 -489.4025 254.61 -489.0625 253.25 C-488.4025 253.25 -487.7425 253.25 -487.0625 253.25 C-487.0625 252.26 -487.0625 251.27 -487.0625 250.25 C-486.4025 249.92 -485.7425 249.59 -485.0625 249.25 C-483.94615848 247.59948712 -483.94615848 247.59948712 -482.9375 245.6875 C-482.31875 244.553125 -481.7 243.41875 -481.0625 242.25 C-480.4025 242.25 -479.7425 242.25 -479.0625 242.25 C-479.0625 241.26 -479.0625 240.27 -479.0625 239.25 C-478.08601983 238.22702078 -477.08118662 237.23095748 -476.0625 236.25 C-475.546875 235.363125 -475.03125 234.47625 -474.5 233.5625 C-474.025625 232.799375 -473.55125 232.03625 -473.0625 231.25 C-472.4025 231.25 -471.7425 231.25 -471.0625 231.25 C-471.0625 230.26 -471.0625 229.27 -471.0625 228.25 C-470.0625 227.25 -469.0625 226.25 -468.0625 225.25 C-467.01627125 223.27379014 -466.00810065 221.2762871 -465.0625 219.25 C-464.4025 219.25 -463.7425 219.25 -463.0625 219.25 C-461.24475815 212.15215087 -459.63019509 205.59918342 -460.0625 198.25 C-460.7225 198.25 -461.3825 198.25 -462.0625 198.25 C-462.3925 196.27 -462.7225 194.29 -463.0625 192.25 C-463.7225 192.25 -464.3825 192.25 -465.0625 192.25 C-465.5575 189.775 -465.5575 189.775 -466.0625 187.25 C-466.7225 187.25 -467.3825 187.25 -468.0625 187.25 C-468.0625 186.26 -468.0625 185.27 -468.0625 184.25 C-468.7225 184.25 -469.3825 184.25 -470.0625 184.25 C-471.5 182.203125 -471.5 182.203125 -473.0625 179.5 C-473.8359375 178.17742187 -473.8359375 178.17742187 -474.625 176.828125 C-475.099375 175.97734375 -475.57375 175.1265625 -476.0625 174.25 C-476.44019531 173.61449219 -476.81789063 172.97898437 -477.20703125 172.32421875 C-478.37682017 169.48788124 -478.53462292 166.86661756 -478.75 163.8125 C-478.83636719 162.70003906 -478.92273438 161.58757812 -479.01171875 160.44140625 C-479.05832767 157.51221495 -478.76637107 155.08136106 -478.0625 152.25 C-477.4025 152.25 -476.7425 152.25 -476.0625 152.25 C-476.0625 151.26 -476.0625 150.27 -476.0625 149.25 C-474.5625 147.5625 -474.5625 147.5625 -473.0625 146.25 C-473.7225 145.79625 -474.3825 145.3425 -475.0625 144.875 C-475.7225 144.33875 -476.3825 143.8025 -477.0625 143.25 C-477.0625 142.59 -477.0625 141.93 -477.0625 141.25 C-478.3825 140.92 -479.7025 140.59 -481.0625 140.25 C-482.38880565 136.10529486 -483.04634711 131.21769422 -481.0625 127.25 C-480.4025 127.25 -479.7425 127.25 -479.0625 127.25 C-479.0625 126.59 -479.0625 125.93 -479.0625 125.25 C-477.0825 124.59 -475.1025 123.93 -473.0625 123.25 C-473.0625 122.92 -473.0625 122.59 -473.0625 122.25 C-468.4425 122.25 -463.8225 122.25 -459.0625 122.25 C-459.0625 122.91 -459.0625 123.57 -459.0625 124.25 C-458.38445312 124.22679687 -457.70640625 124.20359375 -457.0078125 124.1796875 C-451.31707075 124.06934071 -446.23271768 124.47915985 -440.69140625 125.7421875 C-436.66551825 126.51984789 -432.6186719 126.74580873 -428.53125 127.00390625 C-426.0625 127.25 -426.0625 127.25 -424.0625 128.25 C-422.61737563 128.46782467 -421.16513322 128.63973668 -419.7109375 128.78515625 C-418.43476563 128.91567383 -418.43476563 128.91567383 -417.1328125 129.04882812 C-416.24335938 129.13583984 -415.35390625 129.22285156 -414.4375 129.3125 C-413.5403125 129.40337891 -412.643125 129.49425781 -411.71875 129.58789062 C-409.50032728 129.81209292 -407.2816024 130.03264566 -405.0625 130.25 C-405.0625 130.91 -405.0625 131.57 -405.0625 132.25 C-396.6475 132.745 -396.6475 132.745 -388.0625 133.25 C-388.0625 133.58 -388.0625 133.91 -388.0625 134.25 C-387.4327124 134.36069824 -386.8029248 134.47139648 -386.15405273 134.58544922 C-383.26868325 135.09483474 -380.38434964 135.60987233 -377.5 136.125 C-376.50935547 136.29902344 -375.51871094 136.47304688 -374.49804688 136.65234375 C-369.23957825 137.5957235 -364.17851156 138.72047077 -359.0625 140.25 C-356.73462073 140.61950465 -354.40204855 140.96352467 -352.0625 141.25 C-352.0625 141.91 -352.0625 142.57 -352.0625 143.25 C-347.7725 143.58 -343.4825 143.91 -339.0625 144.25 C-339.0625 144.91 -339.0625 145.57 -339.0625 146.25 C-338.216875 146.20875 -337.37125 146.1675 -336.5 146.125 C-333.47389062 146.23504034 -331.11102189 146.71684874 -328.2421875 147.609375 C-320.65624622 149.8389348 -312.92993284 151.47868306 -305.0625 152.25 C-305.0625 152.91 -305.0625 153.57 -305.0625 154.25 C-300.7725 154.58 -296.4825 154.91 -292.0625 155.25 C-292.0625 155.91 -292.0625 156.57 -292.0625 157.25 C-290.3609375 157.2190625 -290.3609375 157.2190625 -288.625 157.1875 C-285.0625 157.25 -285.0625 157.25 -284.0625 158.25 C-281.54054033 158.64943176 -279.03286344 159.00079848 -276.5 159.3125 C-275.78908203 159.40337891 -275.07816406 159.49425781 -274.34570312 159.58789062 C-272.58511597 159.81239503 -270.82386522 160.03168397 -269.0625 160.25 C-269.0625 160.91 -269.0625 161.57 -269.0625 162.25 C-262.7925 162.58 -256.5225 162.91 -250.0625 163.25 C-250.0625 163.58 -250.0625 163.91 -250.0625 164.25 C-249.36382812 164.31058594 -248.66515625 164.37117187 -247.9453125 164.43359375 C-247.03523438 164.51738281 -246.12515625 164.60117187 -245.1875 164.6875 C-243.83011719 164.80931641 -243.83011719 164.80931641 -242.4453125 164.93359375 C-240.0625 165.25 -240.0625 165.25 -238.0625 166.25 C-235.19283544 166.5486656 -232.33748853 166.79594924 -229.4609375 167.00390625 C-228.59167633 167.06907944 -227.72241516 167.13425262 -226.82681274 167.20140076 C-224.97584619 167.33881214 -223.12471384 167.47400507 -221.2734375 167.60717773 C-218.4967891 167.80820746 -215.72109381 168.01979723 -212.9453125 168.23242188 C-195.30354242 170.35354317 -195.30354242 170.35354317 -178.0625 168.25 C-174.81656652 168.02171035 -171.56564272 168.06483703 -168.3125 168.0625 C-167.43078125 168.05025391 -166.5490625 168.03800781 -165.640625 168.02539062 C-160.35812606 168.01359933 -156.06583609 168.56081208 -151.0625 170.25 C-149.40003959 170.60371498 -147.73475729 170.94595322 -146.0625 171.25 C-146.0625 171.91 -146.0625 172.57 -146.0625 173.25 C-145.11375 173.3325 -144.165 173.415 -143.1875 173.5 C-141.640625 173.87125 -141.640625 173.87125 -140.0625 174.25 C-138.9375 176.25 -138.9375 176.25 -138.0625 178.25 C-136.01249129 179.05528889 -136.01249129 179.05528889 -134.0625 179.25 C-134.0625 179.91 -134.0625 180.57 -134.0625 181.25 C-133.464375 181.3325 -132.86625 181.415 -132.25 181.5 C-129.43317727 182.46576779 -128.58450868 183.73868567 -127.0625 186.25 C-127.0625 186.91 -127.0625 187.57 -127.0625 188.25 C-126.4025 188.25 -125.7425 188.25 -125.0625 188.25 C-124.7325 189.57 -124.4025 190.89 -124.0625 192.25 C-123.4025 192.25 -122.7425 192.25 -122.0625 192.25 C-119.0625 196.63461538 -119.0625 196.63461538 -119.0625 199.25 C-118.4025 199.25 -117.7425 199.25 -117.0625 199.25 C-116.7325 200.9 -116.4025 202.55 -116.0625 204.25 C-115.4025 204.25 -114.7425 204.25 -114.0625 204.25 C-113.629375 205.301875 -113.19625 206.35375 -112.75 207.4375 C-111.75135231 209.79145526 -110.72204551 211.80481473 -109.375 214 C-108.0625 216.25 -108.0625 216.25 -108.0625 219.25 C-107.4025 219.25 -106.7425 219.25 -106.0625 219.25 C-105.1608142 222.33433792 -104.92781951 225.10341821 -104.9375 228.3125 C-104.93492187 229.16972656 -104.93234375 230.02695312 -104.9296875 230.91015625 C-105.0625 233.25 -105.0625 233.25 -106.0625 236.25 C-107.0525 236.25 -108.0425 236.25 -109.0625 236.25 C-109.0625 236.91 -109.0625 237.57 -109.0625 238.25 C-110.02929688 238.58644531 -110.02929688 238.58644531 -111.015625 238.9296875 C-113.30638852 240.07889456 -113.30638852 240.07889456 -113.671875 242.6328125 C-113.71828125 243.53773438 -113.7646875 244.44265625 -113.8125 245.375 C-113.86921875 246.28507813 -113.9259375 247.19515625 -113.984375 248.1328125 C-114.01015625 248.83148438 -114.0359375 249.53015625 -114.0625 250.25 C-114.7225 250.25 -115.3825 250.25 -116.0625 250.25 C-116.3925 252.89 -116.7225 255.53 -117.0625 258.25 C-117.7225 258.25 -118.3825 258.25 -119.0625 258.25 C-119.165625 258.95125 -119.26875 259.6525 -119.375 260.375 C-120.15658387 263.64344165 -121.5628309 266.2506618 -123.0625 269.25 C-124.1997347 273.53180314 -124.24591242 277.78517989 -124.25 282.1875 C-124.26224609 282.87779297 -124.27449219 283.56808594 -124.28710938 284.27929688 C-124.29962835 288.68180233 -123.59116425 292.14358818 -122.0625 296.25 C-121.9375 299.125 -121.9375 299.125 -122.0625 301.25 C-121.4025 301.25 -120.7425 301.25 -120.0625 301.25 C-119.7325 303.89 -119.4025 306.53 -119.0625 309.25 C-118.4025 309.25 -117.7425 309.25 -117.0625 309.25 C-116.69125 310.405 -116.32 311.56 -115.9375 312.75 C-113.29333702 320.69508019 -110.24288064 328.49852772 -107.27514648 336.3269043 C-105.82196981 340.17638799 -104.45014292 344.04169357 -103.125 347.9375 C-101.65095147 351.99394652 -100.2193841 355.19495087 -97.0625 358.25 C-96.0725 358.58 -95.0825 358.91 -94.0625 359.25 C-94.0625 359.91 -94.0625 360.57 -94.0625 361.25 C-90.4325 361.58 -86.8025 361.91 -83.0625 362.25 C-83.0625 362.91 -83.0625 363.57 -83.0625 364.25 C-78.4425 364.58 -73.8225 364.91 -69.0625 365.25 C-69.0625 365.91 -69.0625 366.57 -69.0625 367.25 C-67.515625 367.188125 -67.515625 367.188125 -65.9375 367.125 C-62.12894445 367.24785663 -59.61766627 367.99087861 -56.0625 369.25 C-53.73002239 369.58926947 -51.39664529 369.92240066 -49.0625 370.25 C-47.928125 370.600625 -46.79375 370.95125 -45.625 371.3125 C-41.53917514 372.38771707 -38.26715983 372.39753192 -34.0625 372.25 C-34.0625 371.59 -34.0625 370.93 -34.0625 370.25 C-33.0725 369.92 -32.0825 369.59 -31.0625 369.25 C-29.85367904 367.24983534 -29.85367904 367.24983534 -29.0625 365.25 C-28.4025 365.25 -27.7425 365.25 -27.0625 365.25 C-26.7325 360.3 -26.4025 355.35 -26.0625 350.25 C-25.4025 350.25 -24.7425 350.25 -24.0625 350.25 C-24.09730469 349.35861328 -24.09730469 349.35861328 -24.1328125 348.44921875 C-24.25593194 342.79451881 -23.69153586 337.67177208 -22.5703125 332.13671875 C-21.84343106 328.00467736 -21.57516659 323.8671552 -21.30859375 319.68359375 C-21.0625 317.25 -21.0625 317.25 -20.0625 315.25 C-19.84061206 313.36659623 -19.67060213 311.47694809 -19.52734375 309.5859375 C-19.44033203 308.46445312 -19.35332031 307.34296875 -19.26367188 306.1875 C-19.17666016 305.011875 -19.08964844 303.83625 -19 302.625 C-18.90912109 301.44164062 -18.81824219 300.25828125 -18.72460938 299.0390625 C-18.50017767 296.10963815 -18.27964035 293.17997237 -18.0625 290.25 C-17.4025 290.25 -16.7425 290.25 -16.0625 290.25 C-16.07410156 289.52039063 -16.08570313 288.79078125 -16.09765625 288.0390625 C-16.18086783 278.41029394 -15.66628262 268.85661268 -15.0625 259.25 C-14.7325 259.25 -14.4025 259.25 -14.0625 259.25 C-14.00191406 257.97382813 -13.94132813 256.69765625 -13.87890625 255.3828125 C-13.79450432 253.71352984 -13.70985614 252.04425963 -13.625 250.375 C-13.58568359 249.53324219 -13.54636719 248.69148437 -13.50585938 247.82421875 C-13.44301758 246.61572266 -13.44301758 246.61572266 -13.37890625 245.3828125 C-13.34224854 244.63918457 -13.30559082 243.89555664 -13.26782227 243.12939453 C-13.0625 241.25 -13.0625 241.25 -12.0625 239.25 C-11.81526108 236.16103962 -11.63273392 233.09458102 -11.5 230 C-11.4575415 229.05302246 -11.41508301 228.10604492 -11.37133789 227.13037109 C-10.84453198 213.84468652 -10.97477846 200.54318759 -11.0625 187.25 C-11.7225 187.25 -12.3825 187.25 -13.0625 187.25 C-15.10419485 184.34451118 -16.0625 182.84857954 -16.0625 179.25 C-16.7225 179.25 -17.3825 179.25 -18.0625 179.25 C-19.92378204 173.66615387 -19.20020571 167.93852856 -18.0625 162.25 C-17.4025 162.25 -16.7425 162.25 -16.0625 162.25 C-16.0625 158.62 -16.0625 154.99 -16.0625 151.25 C-16.7225 151.25 -17.3825 151.25 -18.0625 151.25 C-18.3925 148.94 -18.7225 146.63 -19.0625 144.25 C-19.7225 144.25 -20.3825 144.25 -21.0625 144.25 C-24.0625 138.625 -24.0625 138.625 -24.0625 135.25 C-24.7225 135.25 -25.3825 135.25 -26.0625 135.25 C-26.3925 133.6 -26.7225 131.95 -27.0625 130.25 C-27.7225 130.25 -28.3825 130.25 -29.0625 130.25 C-29.32804688 129.70730469 -29.59359375 129.16460937 -29.8671875 128.60546875 C-30.22039063 127.89003906 -30.57359375 127.17460937 -30.9375 126.4375 C-31.28554688 125.72980469 -31.63359375 125.02210938 -31.9921875 124.29296875 C-33.1281486 122.03753582 -33.1281486 122.03753582 -35.0625 119.25 C-35.0625 118.26 -35.0625 117.27 -35.0625 116.25 C-35.7225 116.25 -36.3825 116.25 -37.0625 116.25 C-37.3925 114.6 -37.7225 112.95 -38.0625 111.25 C-38.7225 111.25 -39.3825 111.25 -40.0625 111.25 C-40.3925 109.27 -40.7225 107.29 -41.0625 105.25 C-41.7225 105.25 -42.3825 105.25 -43.0625 105.25 C-43.0625 104.26 -43.0625 103.27 -43.0625 102.25 C-43.7225 102.25 -44.3825 102.25 -45.0625 102.25 C-45.3925 100.6 -45.7225 98.95 -46.0625 97.25 C-46.7225 97.25 -47.3825 97.25 -48.0625 97.25 C-48.3925 95.27 -48.7225 93.29 -49.0625 91.25 C-49.7225 91.25 -50.3825 91.25 -51.0625 91.25 C-51.3925 89.6 -51.7225 87.95 -52.0625 86.25 C-52.7225 86.25 -53.3825 86.25 -54.0625 86.25 C-54.0625 85.26 -54.0625 84.27 -54.0625 83.25 C-54.7225 83.25 -55.3825 83.25 -56.0625 83.25 C-56.3925 81.27 -56.7225 79.29 -57.0625 77.25 C-57.7225 77.25 -58.3825 77.25 -59.0625 77.25 C-59.3925 75.6 -59.7225 73.95 -60.0625 72.25 C-60.7225 72.25 -61.3825 72.25 -62.0625 72.25 C-62.30484375 71.74210937 -62.5471875 71.23421875 -62.796875 70.7109375 C-64.46314801 67.28866909 -66.14154101 64.00738369 -68.3125 60.875 C-70.0625 58.25 -70.0625 58.25 -70.0625 56.25 C-70.68125 55.940625 -71.3 55.63125 -71.9375 55.3125 C-73.3125 54.625 -74.6875 53.9375 -76.0625 53.25 C-76.0625 52.59 -76.0625 51.93 -76.0625 51.25 C-83.54528706 50.75932544 -89.21535218 52.20546463 -96.0625 55.25 C-96.3925 55.58 -96.7225 55.91 -97.0625 56.25 C-102.74026737 56.63493338 -106.05842499 56.25244501 -111.0625 53.25 C-111.0625 52.26 -111.0625 51.27 -111.0625 50.25 C-111.7225 50.25 -112.3825 50.25 -113.0625 50.25 C-113.0625 48.6 -113.0625 46.95 -113.0625 45.25 C-112.4025 45.25 -111.7425 45.25 -111.0625 45.25 C-111.0625 44.59 -111.0625 43.93 -111.0625 43.25 C-106.59191176 39.25 -106.59191176 39.25 -104.0625 39.25 C-104.0625 38.59 -104.0625 37.93 -104.0625 37.25 C-102.27392578 37.05083984 -102.27392578 37.05083984 -100.44921875 36.84765625 C-98.88279322 36.66944017 -97.31638802 36.49104544 -95.75 36.3125 C-94.96431641 36.22548828 -94.17863281 36.13847656 -93.36914062 36.04882812 C-92.2331543 35.91831055 -92.2331543 35.91831055 -91.07421875 35.78515625 C-90.37772217 35.706604 -89.68122559 35.62805176 -88.96362305 35.54711914 C-86.84601766 35.27003217 -86.84601766 35.27003217 -84.0625 34.25 C-82.66810336 34.18334624 -81.27080125 34.16461801 -79.875 34.1875 C-78.616875 34.208125 -77.35875 34.22875 -76.0625 34.25 C-76.03671875 33.62351563 -76.0109375 32.99703125 -75.984375 32.3515625 C-75.92765625 31.53429687 -75.8709375 30.71703125 -75.8125 29.875 C-75.76609375 29.06289062 -75.7196875 28.25078125 -75.671875 27.4140625 C-75.0625 25.25 -75.0625 25.25 -73.015625 23.9609375 C-72.37109375 23.72632813 -71.7265625 23.49171875 -71.0625 23.25 C-71.0625 22.59 -71.0625 21.93 -71.0625 21.25 C-69.29292094 18.9216065 -68.24666484 18.29711194 -65.375 17.5625 C-64.611875 17.459375 -63.84875 17.35625 -63.0625 17.25 C-63.0625 16.59 -63.0625 15.93 -63.0625 15.25 C-62.0725 15.25 -61.0825 15.25 -60.0625 15.25 C-60.0625 14.59 -60.0625 13.93 -60.0625 13.25 C-58.4125 12.92 -56.7625 12.59 -55.0625 12.25 C-55.0625 11.59 -55.0625 10.93 -55.0625 10.25 C-54.12148438 9.98445312 -53.18046875 9.71890625 -52.2109375 9.4453125 C-50.96570313 9.09210938 -49.72046875 8.73890625 -48.4375 8.375 C-47.20773437 8.02695313 -45.97796875 7.67890625 -44.7109375 7.3203125 C-42.41445275 6.64661141 -40.13182537 5.9215266 -37.875 5.125 C-34.08023347 3.94440597 -31.01390458 4.11374467 -27.0625 4.25 C-27.0625 3.59 -27.0625 2.93 -27.0625 2.25 C-18.04126188 0.95630132 -9.12179718 0.04341559 0 0 Z M-443.0625 346.25 C-444.238125 346.600625 -445.41375 346.95125 -446.625 347.3125 C-449.26121092 348.22427959 -449.26121092 348.22427959 -452.0625 350.25 C-453.0525 350.58 -454.0425 350.91 -455.0625 351.25 C-455.0625 351.91 -455.0625 352.57 -455.0625 353.25 C-455.825625 353.37375 -456.58875 353.4975 -457.375 353.625 C-460.26517136 354.13102792 -460.26517136 354.13102792 -463.0625 356.25 C-463.0625 356.91 -463.0625 357.57 -463.0625 358.25 C-464.3825 358.58 -465.7025 358.91 -467.0625 359.25 C-467.0625 359.91 -467.0625 360.57 -467.0625 361.25 C-468.3825 361.58 -469.7025 361.91 -471.0625 362.25 C-471.0625 362.91 -471.0625 363.57 -471.0625 364.25 C-471.701875 364.518125 -472.34125 364.78625 -473 365.0625 C-475.39381686 366.13667752 -475.39381686 366.13667752 -476.0625 369.25 C-477.0525 369.58 -478.0425 369.91 -479.0625 370.25 C-480.09263277 371.89821244 -481.09364628 373.56503702 -482.0625 375.25 C-483.0525 375.745 -483.0525 375.745 -484.0625 376.25 C-484.0625 377.57 -484.0625 378.89 -484.0625 380.25 C-485.5475 380.745 -485.5475 380.745 -487.0625 381.25 C-489.08782117 385.22563044 -490.0625 387.7550702 -490.0625 392.25 C-490.7225 392.25 -491.3825 392.25 -492.0625 392.25 C-492.3925 394.89 -492.7225 397.53 -493.0625 400.25 C-493.7225 400.25 -494.3825 400.25 -495.0625 400.25 C-497.3171983 415.12004714 -499.29818384 428.56629603 -495.0625 443.25 C-494.4025 443.25 -493.7425 443.25 -493.0625 443.25 C-492.7325 446.22 -492.4025 449.19 -492.0625 452.25 C-491.4025 452.25 -490.7425 452.25 -490.0625 452.25 C-489.7325 454.56 -489.4025 456.87 -489.0625 459.25 C-488.4025 459.25 -487.7425 459.25 -487.0625 459.25 C-486.98 459.806875 -486.8975 460.36375 -486.8125 460.9375 C-485.83788491 463.94256318 -484.05425531 465.82254822 -482.0625 468.25 C-481.7325 469.24 -481.4025 470.23 -481.0625 471.25 C-480.4025 471.25 -479.7425 471.25 -479.0625 471.25 C-478.7325 472.24 -478.4025 473.23 -478.0625 474.25 C-477.4025 474.25 -476.7425 474.25 -476.0625 474.25 C-475.815 474.8275 -475.5675 475.405 -475.3125 476 C-473.87950012 478.57939979 -472.27825324 480.31121592 -470.0625 482.25 C-469.4025 482.25 -468.7425 482.25 -468.0625 482.25 C-468.0625 482.91 -468.0625 483.57 -468.0625 484.25 C-466.7425 484.58 -465.4225 484.91 -464.0625 485.25 C-464.0625 485.91 -464.0625 486.57 -464.0625 487.25 C-461.15701118 489.29169485 -459.66107954 490.25 -456.0625 490.25 C-456.0625 490.91 -456.0625 491.57 -456.0625 492.25 C-454.0825 492.58 -452.1025 492.91 -450.0625 493.25 C-450.0625 493.91 -450.0625 494.57 -450.0625 495.25 C-447.0925 495.58 -444.1225 495.91 -441.0625 496.25 C-441.0625 496.91 -441.0625 497.57 -441.0625 498.25 C-426.7164792 502.23500578 -410.32190776 503.00313592 -396.0625 498.25 C-396.0625 497.59 -396.0625 496.93 -396.0625 496.25 C-393.0925 495.92 -390.1225 495.59 -387.0625 495.25 C-387.0625 494.59 -387.0625 493.93 -387.0625 493.25 C-385.0825 492.92 -383.1025 492.59 -381.0625 492.25 C-381.0625 491.59 -381.0625 490.93 -381.0625 490.25 C-380.299375 490.12625 -379.53625 490.0025 -378.75 489.875 C-375.85982864 489.36897208 -375.85982864 489.36897208 -373.0625 487.25 C-373.0625 486.59 -373.0625 485.93 -373.0625 485.25 C-371.7425 484.92 -370.4225 484.59 -369.0625 484.25 C-369.0625 483.59 -369.0625 482.93 -369.0625 482.25 C-367.7425 481.92 -366.4225 481.59 -365.0625 481.25 C-365.0625 480.59 -365.0625 479.93 -365.0625 479.25 C-364.4025 479.25 -363.7425 479.25 -363.0625 479.25 C-361.69176214 477.61395804 -360.36194744 475.94321939 -359.0625 474.25 C-358.36833984 473.59064453 -358.36833984 473.59064453 -357.66015625 472.91796875 C-355.58583321 470.75235521 -354.06018929 468.39534719 -352.4375 465.875 C-351.82648438 464.93914062 -351.21546875 464.00328125 -350.5859375 463.0390625 C-349.11974827 460.35480837 -348.46745413 458.25979422 -348.0625 455.25 C-347.4025 455.25 -346.7425 455.25 -346.0625 455.25 C-345.7325 452.94 -345.4025 450.63 -345.0625 448.25 C-344.4025 448.25 -343.7425 448.25 -343.0625 448.25 C-342.08001476 444.1972484 -341.98090426 440.41138263 -342.0625 436.25 C-341.4025 436.25 -340.7425 436.25 -340.0625 436.25 C-340.0625 426.68 -340.0625 417.11 -340.0625 407.25 C-340.7225 407.25 -341.3825 407.25 -342.0625 407.25 C-341.98 406.3425 -341.8975 405.435 -341.8125 404.5 C-341.89800508 393.85461814 -347.8569311 383.57781974 -354.0625 375.25 C-354.7225 375.25 -355.3825 375.25 -356.0625 375.25 C-356.4646875 374.0434375 -356.4646875 374.0434375 -356.875 372.8125 C-357.4628125 371.5440625 -357.4628125 371.5440625 -358.0625 370.25 C-359.0525 369.92 -360.0425 369.59 -361.0625 369.25 C-361.18625 368.651875 -361.31 368.05375 -361.4375 367.4375 C-362.35852487 364.21391297 -364.39272418 363.1747221 -367.0625 361.25 C-367.784375 360.6725 -368.50625 360.095 -369.25 359.5 C-370.9699477 358.06075568 -370.9699477 358.06075568 -373.0625 358.25 C-373.0625 357.59 -373.0625 356.93 -373.0625 356.25 C-373.7225 356.25 -374.3825 356.25 -375.0625 356.25 C-375.3925 359.22 -375.7225 362.19 -376.0625 365.25 C-376.7225 365.25 -377.3825 365.25 -378.0625 365.25 C-378.0625 366.57 -378.0625 367.89 -378.0625 369.25 C-378.7225 369.25 -379.3825 369.25 -380.0625 369.25 C-380.3925 371.56 -380.7225 373.87 -381.0625 376.25 C-381.7225 376.25 -382.3825 376.25 -383.0625 376.25 C-383.7225 378.89 -384.3825 381.53 -385.0625 384.25 C-385.3925 384.25 -385.7225 384.25 -386.0625 384.25 C-386.0625 385.9 -386.0625 387.55 -386.0625 389.25 C-387.0525 389.745 -387.0525 389.745 -388.0625 390.25 C-388.46979228 392.57156597 -388.80688677 394.9068787 -389.0625 397.25 C-389.7225 397.25 -390.3825 397.25 -391.0625 397.25 C-391.3925 399.89 -391.7225 402.53 -392.0625 405.25 C-392.7225 405.25 -393.3825 405.25 -394.0625 405.25 C-394.3925 407.89 -394.7225 410.53 -395.0625 413.25 C-395.7225 413.25 -396.3825 413.25 -397.0625 413.25 C-397.0625 414.57 -397.0625 415.89 -397.0625 417.25 C-397.7225 417.25 -398.3825 417.25 -399.0625 417.25 C-399.248125 418.2090625 -399.248125 418.2090625 -399.4375 419.1875 C-399.64375 419.868125 -399.85 420.54875 -400.0625 421.25 C-401.0525 421.745 -401.0525 421.745 -402.0625 422.25 C-402.0625 422.91 -402.0625 423.57 -402.0625 424.25 C-403.5475 424.745 -403.5475 424.745 -405.0625 425.25 C-405.0625 425.91 -405.0625 426.57 -405.0625 427.25 C-406.0525 427.25 -407.0425 427.25 -408.0625 427.25 C-408.0625 427.91 -408.0625 428.57 -408.0625 429.25 C-414.3325 429.25 -420.6025 429.25 -427.0625 429.25 C-427.0625 428.59 -427.0625 427.93 -427.0625 427.25 C-428.0525 427.25 -429.0425 427.25 -430.0625 427.25 C-430.0625 426.59 -430.0625 425.93 -430.0625 425.25 C-430.84625 424.63125 -431.63 424.0125 -432.4375 423.375 C-435.50178655 420.89438708 -436.79709323 419.29556138 -437.31103516 415.33447266 C-437.48292451 413.05630489 -437.59664208 410.78280525 -437.6875 408.5 C-437.74550781 407.31083984 -437.74550781 407.31083984 -437.8046875 406.09765625 C-437.898608 404.14880584 -437.98162822 402.19943549 -438.0625 400.25 C-437.4025 400.25 -436.7425 400.25 -436.0625 400.25 C-435.7325 397.61 -435.4025 394.97 -435.0625 392.25 C-434.4025 392.25 -433.7425 392.25 -433.0625 392.25 C-432.38782438 390.50307205 -431.72305844 388.75231475 -431.0625 387 C-430.505625 385.53820312 -430.505625 385.53820312 -429.9375 384.046875 C-428.86344762 381.10216862 -428.86344762 381.10216862 -429.0625 377.25 C-428.4025 377.25 -427.7425 377.25 -427.0625 377.25 C-427.0625 375.6 -427.0625 373.95 -427.0625 372.25 C-426.4025 372.25 -425.7425 372.25 -425.0625 372.25 C-424.7325 369.61 -424.4025 366.97 -424.0625 364.25 C-423.4025 364.25 -422.7425 364.25 -422.0625 364.25 C-421.7325 361.61 -421.4025 358.97 -421.0625 356.25 C-420.4025 356.25 -419.7425 356.25 -419.0625 356.25 C-417.4125 351.96 -415.7625 347.67 -414.0625 343.25 C-424.22505192 342.92489467 -433.27272279 343.09551623 -443.0625 346.25 Z M178.9375 346.25 C180.05342209 348.25507927 181.18048712 350.25396096 182.3125 352.25 C182.93898438 353.36375 183.56546875 354.4775 184.2109375 355.625 C185.06558594 356.924375 185.06558594 356.924375 185.9375 358.25 C186.5975 358.25 187.2575 358.25 187.9375 358.25 C188.4325 361.22 188.4325 361.22 188.9375 364.25 C189.5975 364.25 190.2575 364.25 190.9375 364.25 C191.4325 366.725 191.4325 366.725 191.9375 369.25 C192.5975 369.25 193.2575 369.25 193.9375 369.25 C194.03417969 369.80171875 194.13085938 370.3534375 194.23046875 370.921875 C195.11650478 373.83943011 196.55869424 375.96485217 198.25 378.5 C201.16643898 382.97067293 203.66183808 387.42559673 205.9375 392.25 C206.5975 392.25 207.2575 392.25 207.9375 392.25 C207.9375 393.24 207.9375 394.23 207.9375 395.25 C208.5975 395.25 209.2575 395.25 209.9375 395.25 C210.4325 397.725 210.4325 397.725 210.9375 400.25 C211.5975 400.25 212.2575 400.25 212.9375 400.25 C213.06125 400.95125 213.185 401.6525 213.3125 402.375 C213.97588345 405.42656387 214.90961955 408.30340938 215.9375 411.25 C216.2675 411.25 216.5975 411.25 216.9375 411.25 C217.4325 416.695 217.4325 416.695 217.9375 422.25 C217.2775 422.25 216.6175 422.25 215.9375 422.25 C215.9375 423.9 215.9375 425.55 215.9375 427.25 C215.2775 427.25 214.6175 427.25 213.9375 427.25 C213.6075 428.9 213.2775 430.55 212.9375 432.25 C211.6175 432.58 210.2975 432.91 208.9375 433.25 C208.9375 433.91 208.9375 434.57 208.9375 435.25 C207.7309375 435.4665625 207.7309375 435.4665625 206.5 435.6875 C204.01646294 435.99135249 204.01646294 435.99135249 202.9375 437.25 C200.30003244 437.37685806 197.70040834 437.43520617 195.0625 437.4375 C194.32902344 437.44974609 193.59554687 437.46199219 192.83984375 437.47460938 C189.00186486 437.48509566 187.20402926 437.42768617 183.9375 435.25 C182.9475 435.25 181.9575 435.25 180.9375 435.25 C180.6075 434.26 180.2775 433.27 179.9375 432.25 C179.2775 432.25 178.6175 432.25 177.9375 432.25 C177.69 431.734375 177.4425 431.21875 177.1875 430.6875 C175.54168384 427.47815849 173.7398904 424.37414336 171.9375 421.25 C171.2775 421.25 170.6175 421.25 169.9375 421.25 C169.7828125 419.9196875 169.7828125 419.9196875 169.625 418.5625 C168.92034093 415.1673245 167.9820434 413.03057902 165.9375 410.25 C165.2775 410.25 164.6175 410.25 163.9375 410.25 C163.6075 408.6 163.2775 406.95 162.9375 405.25 C162.2775 405.25 161.6175 405.25 160.9375 405.25 C160.9375 404.26 160.9375 403.27 160.9375 402.25 C160.2775 402.25 159.6175 402.25 158.9375 402.25 C158.6075 400.6 158.2775 398.95 157.9375 397.25 C157.2775 397.25 156.6175 397.25 155.9375 397.25 C155.855 396.54875 155.7725 395.8475 155.6875 395.125 C154.76611136 391.59301021 153.01104186 389.23071643 150.9375 386.25 C150.6075 385.26 150.2775 384.27 149.9375 383.25 C149.2775 383.25 148.6175 383.25 147.9375 383.25 C147.4425 380.775 147.4425 380.775 146.9375 378.25 C146.2775 378.25 145.6175 378.25 144.9375 378.25 C144.81375 377.6725 144.69 377.095 144.5625 376.5 C143.93101176 374.22664233 143.04891809 372.3246471 141.9375 370.25 C141.2775 370.25 140.6175 370.25 139.9375 370.25 C139.6075 369.26 139.2775 368.27 138.9375 367.25 C138.9375 367.91 138.9375 368.57 138.9375 369.25 C138.2775 369.25 137.6175 369.25 136.9375 369.25 C136.9375 370.24 136.9375 371.23 136.9375 372.25 C135.9475 372.58 134.9575 372.91 133.9375 373.25 C133.9375 373.91 133.9375 374.57 133.9375 375.25 C133.2775 375.25 132.6175 375.25 131.9375 375.25 C131.4425 377.725 131.4425 377.725 130.9375 380.25 C130.2775 380.25 129.6175 380.25 128.9375 380.25 C128.9375 381.24 128.9375 382.23 128.9375 383.25 C127.9475 383.745 127.9475 383.745 126.9375 384.25 C126.28194881 386.77733235 126.28194881 386.77733235 125.9375 389.25 C125.2775 389.25 124.6175 389.25 123.9375 389.25 C123.6075 391.89 123.2775 394.53 122.9375 397.25 C122.2775 397.25 121.6175 397.25 120.9375 397.25 C119.6103739 401.2313783 119.86834087 405.10045227 119.9375 409.25 C119.2775 409.25 118.6175 409.25 117.9375 409.25 C117.9375 417.83 117.9375 426.41 117.9375 435.25 C118.5975 435.25 119.2575 435.25 119.9375 435.25 C119.87949219 436.41144531 119.82148437 437.57289063 119.76171875 438.76953125 C119.76472817 443.32479147 120.94817195 446.8013888 122.75 450.9375 C123.01103516 451.57494141 123.27207031 452.21238281 123.54101562 452.86914062 C125.06382508 456.51260326 126.67403636 460.00673566 128.9375 463.25 C129.5975 463.25 130.2575 463.25 130.9375 463.25 C131.2675 464.9 131.5975 466.55 131.9375 468.25 C132.5975 468.25 133.2575 468.25 133.9375 468.25 C134.205625 469.054375 134.47375 469.85875 134.75 470.6875 C135.141875 471.533125 135.53375 472.37875 135.9375 473.25 C136.9275 473.58 137.9175 473.91 138.9375 474.25 C139.62236725 475.57407669 140.28620203 476.90909241 140.9375 478.25 C142.85416921 480.50065102 142.85416921 480.50065102 144.9375 482.25 C145.5975 482.25 146.2575 482.25 146.9375 482.25 C146.9375 482.91 146.9375 483.57 146.9375 484.25 C148.2575 484.58 149.5775 484.91 150.9375 485.25 C150.9375 485.91 150.9375 486.57 150.9375 487.25 C151.9275 487.25 152.9175 487.25 153.9375 487.25 C153.9375 487.91 153.9375 488.57 153.9375 489.25 C155.5875 489.58 157.2375 489.91 158.9375 490.25 C158.9375 490.91 158.9375 491.57 158.9375 492.25 C161.2475 492.58 163.5575 492.91 165.9375 493.25 C165.9375 493.91 165.9375 494.57 165.9375 495.25 C168.5775 495.91 171.2175 496.57 173.9375 497.25 C173.9375 497.58 173.9375 497.91 173.9375 498.25 C175.071875 498.394375 176.20625 498.53875 177.375 498.6875 C180.9375 499.25 180.9375 499.25 181.9375 500.25 C194.3157085 502.23935494 206.87957569 501.59942342 218.9375 498.25 C218.9375 497.59 218.9375 496.93 218.9375 496.25 C221.9075 495.92 224.8775 495.59 227.9375 495.25 C227.9375 494.59 227.9375 493.93 227.9375 493.25 C229.9175 492.92 231.8975 492.59 233.9375 492.25 C233.9375 491.59 233.9375 490.93 233.9375 490.25 C234.700625 490.12625 235.46375 490.0025 236.25 489.875 C239.14017136 489.36897208 239.14017136 489.36897208 241.9375 487.25 C241.9375 486.59 241.9375 485.93 241.9375 485.25 C243.2575 484.92 244.5775 484.59 245.9375 484.25 C245.9375 483.59 245.9375 482.93 245.9375 482.25 C246.515 482.0025 247.0925 481.755 247.6875 481.5 C250.26689979 480.06700012 251.99871592 478.46575324 253.9375 476.25 C253.9375 475.59 253.9375 474.93 253.9375 474.25 C254.9275 473.92 255.9175 473.59 256.9375 473.25 C256.9375 472.59 256.9375 471.93 256.9375 471.25 C257.9275 470.92 258.9175 470.59 259.9375 470.25 C261.39027946 468.49888609 261.39027946 468.49888609 262.625 466.375 C263.06199219 465.67632813 263.49898437 464.97765625 263.94921875 464.2578125 C265.15830959 462.17437513 265.15830959 462.17437513 264.9375 459.25 C265.5975 459.25 266.2575 459.25 266.9375 459.25 C267.2675 456.94 267.5975 454.63 267.9375 452.25 C268.5975 452.25 269.2575 452.25 269.9375 452.25 C270.2675 449.61 270.5975 446.97 270.9375 444.25 C271.5975 444.25 272.2575 444.25 272.9375 444.25 C276.15211011 429.17194784 277.81358018 414.20331257 272.9375 399.25 C272.6075 399.25 272.2775 399.25 271.9375 399.25 C270.9475 395.29 270.9475 395.29 269.9375 391.25 C269.2775 391.25 268.6175 391.25 267.9375 391.25 C267.6075 388.94 267.2775 386.63 266.9375 384.25 C266.2775 384.25 265.6175 384.25 264.9375 384.25 C264.834375 383.693125 264.73125 383.13625 264.625 382.5625 C263.79571592 379.7730899 262.59450944 377.6360936 260.9375 375.25 C260.2775 375.25 259.6175 375.25 258.9375 375.25 C258.5353125 374.0434375 258.5353125 374.0434375 258.125 372.8125 C257.5371875 371.5440625 257.5371875 371.5440625 256.9375 370.25 C255.9475 369.92 254.9575 369.59 253.9375 369.25 C253.25263275 367.92592331 252.58879797 366.59090759 251.9375 365.25 C250.02083079 362.99934898 250.02083079 362.99934898 247.9375 361.25 C247.2775 361.25 246.6175 361.25 245.9375 361.25 C245.9375 360.59 245.9375 359.93 245.9375 359.25 C244.6175 358.92 243.2975 358.59 241.9375 358.25 C241.9375 357.59 241.9375 356.93 241.9375 356.25 C240.9475 356.25 239.9575 356.25 238.9375 356.25 C238.9375 355.59 238.9375 354.93 238.9375 354.25 C237.69289217 353.57332002 236.44153104 352.90905281 235.1875 352.25 C234.49140625 351.87875 233.7953125 351.5075 233.078125 351.125 C230.70582243 349.99775351 230.70582243 349.99775351 226.9375 350.25 C226.9375 349.59 226.9375 348.93 226.9375 348.25 C221.58151226 346.31892959 216.58260557 344.9556382 210.9375 344.25 C210.4425 343.755 210.4425 343.755 209.9375 343.25 C205.50662896 342.96764267 201.06379056 343.01814529 196.625 343 C194.75038086 342.9690625 194.75038086 342.9690625 192.83789062 342.9375 C191.63712891 342.93234375 190.43636719 342.9271875 189.19921875 342.921875 C188.09537842 342.9125293 186.99153809 342.90318359 185.85424805 342.89355469 C182.64084207 343.2862535 181.29001338 344.08635892 178.9375 346.25 Z " fill="#FFFFFF" transform="translate(613.0625,218.75)"/>
<path d="M0 0 C1.98 0 3.96 0 6 0 C6 0.33 6 0.66 6 1 C4.02 1 2.04 1 0 1 C0 0.67 0 0.34 0 0 Z " fill="#FFFFFF" transform="translate(805,658)"/>
<path d="M0 0 C1 4 1 4 1 4 Z " fill="#FFFFFF" transform="translate(173,625)"/>
<path d="" fill="#FFFFFF" transform="translate(0,0)"/>
<path d="" fill="#FFFFFF" transform="translate(0,0)"/>
</svg>
