<?xml version="1.0" encoding="UTF-8"?>
<svg version="1.1" xmlns="http://www.w3.org/2000/svg" width="1000" height="1000">
<path d="M0 0 C2.11910223 -0.00115308 4.23820427 -0.00274186 6.35730588 -0.00472724 C12.16409031 -0.00889483 17.97085825 -0.00684148 23.77764273 -0.00374103 C30.04625655 -0.00147672 36.31486757 -0.00497167 42.58348083 -0.00772095 C54.14777503 -0.01190963 65.71206256 -0.01154811 77.27635692 -0.00880948 C87.95919553 -0.00629206 98.64203222 -0.00563809 109.32487106 -0.00683212 C110.38857152 -0.0069467 110.38857152 -0.0069467 111.47376088 -0.00706359 C114.35247922 -0.00737494 117.23119756 -0.00769334 120.10991589 -0.00802336 C147.10187825 -0.01108083 174.09383727 -0.00831119 201.08579911 -0.00292646 C225.06064968 0.00182 249.03549494 0.00139348 273.01034546 -0.00338745 C299.95655441 -0.00874297 326.90276041 -0.01086501 353.84896982 -0.00777519 C356.72176576 -0.00745448 359.5945617 -0.00714164 362.46735764 -0.00683212 C363.17469552 -0.00675305 363.88203341 -0.00667397 364.61080577 -0.00659249 C375.28768383 -0.00545549 385.96455976 -0.0067844 396.64143753 -0.00931168 C408.78113906 -0.01217091 420.92083296 -0.01135982 433.06053425 -0.00603093 C439.25499437 -0.00340146 445.4494437 -0.00237616 451.64390373 -0.00568008 C457.31363911 -0.00865843 462.98335369 -0.00702448 468.65308718 -0.00170253 C470.70472169 -0.00058495 472.75635796 -0.00115496 474.80799134 -0.00357832 C477.596647 -0.00661973 480.38523148 -0.00349908 483.17388344 0.0011425 C483.9701252 -0.00119866 484.76636697 -0.00353983 485.58673728 -0.00595194 C498.16533559 0.03588233 510.03478793 2.22390723 520.26229858 10.12698364 C521.26970093 10.82887817 521.26970093 10.82887817 522.29745483 11.54495239 C528.67908644 16.15330043 533.74137603 21.68226426 538.26229858 28.12698364 C538.26229858 28.78698364 538.26229858 29.44698364 538.26229858 30.12698364 C535.06121737 30.75158486 532.21922514 31.12535823 528.94979858 31.00198364 C523.07408406 31.20116041 517.3530599 33.16288236 512.26229858 36.12698364 C511.01515456 38.53650387 511.01515456 38.53650387 510.26229858 41.12698364 C509.93229858 42.11698364 509.60229858 43.10698364 509.26229858 44.12698364 C509.15560154 45.72566937 509.10369037 47.32831374 509.08529663 48.93045044 C509.06604378 50.39293465 509.06604378 50.39293465 509.04640198 51.88496399 C509.03901505 52.93807266 509.03162811 53.99118134 509.02401733 55.07620239 C509.01594559 56.16278641 509.00787384 57.24937042 508.9995575 58.36888123 C508.98571971 60.67128912 508.97499619 62.97371751 508.96713257 65.27615356 C508.94995051 68.78347115 508.9060639 72.28983859 508.86190796 75.79690552 C508.85177807 78.03583089 508.8432629 80.27476427 508.83651733 82.51370239 C508.81900925 83.55668991 508.80150116 84.59967743 508.78346252 85.67427063 C508.80180972 91.88759004 509.39215847 97.06845747 513.26229858 102.12698364 C513.93794452 102.55241487 514.61359045 102.97784609 515.3097105 103.41616917 C517.26229858 105.12698364 517.26229858 105.12698364 517.75893402 107.40754128 C517.75667187 108.75748712 517.75667187 108.75748712 517.75436401 110.13470459 C517.76249619 111.16917725 517.77062836 112.2036499 517.77900696 113.26947021 C517.76769241 114.40403656 517.75637787 115.53860291 517.74472046 116.70755005 C517.74863297 117.90297424 517.75254547 119.09839844 517.75657654 120.33004761 C517.76412989 123.61156622 517.75428106 126.89251953 517.73807716 130.17398882 C517.7263119 133.61314957 517.74021147 137.05218808 517.75241089 140.49133301 C517.78145594 149.98723582 517.77074068 159.48301723 517.75971222 168.97894287 C517.75002279 177.66675062 517.74885967 186.35434082 517.77959299 195.04211175 C517.79073842 198.46249243 517.79343164 201.88244887 517.77644348 205.30281448 C517.75990879 209.1254641 517.76747463 212.94740048 517.77987671 216.77005005 C517.76856216 217.89247101 517.75724762 219.01489197 517.74559021 220.17132568 C517.79906509 227.08498235 518.97129621 232.05597812 522.26229858 238.12698364 C522.65417358 239.01385864 523.04604858 239.90073364 523.44979858 240.81448364 C527.99961954 246.61942762 534.251611 249.39280548 541.26229858 251.12698364 C544.69957061 251.4349267 544.69957061 251.4349267 548.26742554 251.41409302 C548.92847794 251.42092606 549.58953033 251.42775909 550.27061462 251.43479919 C551.69190948 251.44828963 553.1132515 251.45740514 554.53460121 251.46250916 C556.78321067 251.47085475 559.03142493 251.49140566 561.27992249 251.51504517 C566.85678727 251.57121591 572.4337472 251.60675738 578.01077271 251.64266968 C582.73954659 251.67387605 587.46812279 251.71300277 592.19673729 251.76292419 C594.41371141 251.78301283 596.63053376 251.79131202 598.84757996 251.79922485 C600.1997738 251.81219028 601.55196248 251.82570956 602.90414429 251.83987427 C604.67783134 251.85081116 604.67783134 251.85081116 606.48735046 251.86196899 C609.26229858 252.12698364 609.26229858 252.12698364 611.26229858 254.12698364 C611.59229858 259.07698364 611.92229858 264.02698364 612.26229858 269.12698364 C567.71229858 269.12698364 523.16229858 269.12698364 477.26229858 269.12698364 C476.65513057 263.05530346 476.13793164 257.55001851 476.14877319 251.53787231 C476.14862433 250.84217982 476.14847548 250.14648733 476.14832211 249.42971325 C476.14900794 247.13476041 476.15681006 244.83989105 476.16464233 242.54495239 C476.1665646 240.88484746 476.16802694 239.22474195 476.16906738 237.56463623 C476.17221371 234.00708931 476.17846001 230.4495665 476.18713379 226.89202881 C476.20072478 221.25965561 476.20656474 215.62729023 476.21127319 209.99490356 C476.22328551 197.02342079 476.24534726 184.05195882 476.26750183 171.08049011 C476.28771315 159.18591814 476.30577333 147.29135317 476.31571674 135.39676762 C476.32068073 129.80475239 476.33051264 124.21277383 476.34414673 118.62077332 C476.35163777 115.13497357 476.35492822 111.64917876 476.35711288 108.16337204 C476.35897525 106.55500361 476.36255672 104.94663605 476.36804581 103.33827591 C476.95321719 87.45688419 476.95321719 87.45688419 472.10214233 72.72073364 C471.26229858 71.12698364 471.26229858 71.12698364 471.26229858 69.12698364 C470.72604858 68.90010864 470.18979858 68.67323364 469.63729858 68.43948364 C467.10389052 67.03944235 465.12739973 65.32056414 463.02011108 63.34573364 C458.18146539 59.9909393 452.82965277 59.83365466 447.13781738 59.84851074 C446.33639812 59.84271834 445.53497886 59.83692594 444.70927417 59.83095801 C442.03306013 59.81399912 439.35701898 59.81108506 436.68075562 59.80813599 C434.75870849 59.79883497 432.83666539 59.78866604 430.91462708 59.7776947 C425.70234724 59.7504002 420.49009443 59.73524687 415.27776194 59.72226667 C409.828474 59.70663379 404.37924122 59.67984404 398.92999268 59.65423584 C388.61354197 59.60745091 378.29708088 59.57070538 367.9805783 59.53756297 C354.03813511 59.4921921 340.09576017 59.4313206 326.15337372 59.371315 C304.18971622 59.27719611 282.22603922 59.20379407 260.26229858 59.12698364 C260.59229858 104.33698364 260.92229858 149.54698364 261.26229858 196.12698364 C265.55229858 196.45698364 269.84229858 196.78698364 274.26229858 197.12698364 C280.73155012 200.97356564 284.26269025 204.33920738 286.22616577 211.77932739 C286.5137914 213.20574129 286.79082733 214.63431742 287.05917358 216.06448364 C287.21353882 216.84485489 287.36790405 217.62522614 287.52694702 218.429245 C288.031557 220.99340483 288.52212359 223.56002864 289.01229858 226.12698364 C289.36216794 227.92261495 289.71276392 229.71810482 290.0640564 231.51345825 C290.96688483 236.14304078 291.85695994 240.77496886 292.74227905 245.40792847 C293.24294518 248.0257894 293.74626763 250.64312371 294.25057983 253.26028442 C297.29737082 269.08322994 300.27695069 284.91303033 302.97714233 300.79934692 C304.20283956 307.9569306 305.64283684 315.04797283 307.26229858 322.12698364 C312.04170271 323.3676446 316.6791852 323.22536049 321.57553101 323.16116333 C322.50629456 323.15327789 323.43705811 323.14539246 324.39602661 323.13726807 C326.41380224 323.12009533 328.43156138 323.10089093 330.44930077 323.07988739 C334.74809052 323.0377894 339.04691736 323.01434279 343.34583759 322.98985672 C351.34397795 322.9441744 359.34187863 322.89132667 367.33969116 322.80471802 C372.9086591 322.74513103 378.47731512 322.71030109 384.0465641 322.69153595 C386.16238666 322.67983393 388.27818023 322.65908511 390.39381981 322.62889862 C412.35559248 322.32355251 412.35559248 322.32355251 419.26229858 328.12698364 C422.72822263 331.95629752 424.52847284 335.41883412 424.82479858 340.62698364 C424.52107749 345.37980826 423.09696979 349.29540971 420.26229858 353.12698364 C415.82041254 356.66236233 412.284039 358.24103495 406.64958191 358.28520203 C405.22981804 358.29988525 405.22981804 358.29988525 403.78137207 358.31486511 C402.22662674 358.32349831 402.22662674 358.32349831 400.64047241 358.33230591 C399.54763443 358.34220551 398.45479645 358.3521051 397.32884216 358.36230469 C393.70902692 358.39394532 390.08919854 358.41868735 386.46932983 358.44338989 C383.96254633 358.4639572 381.45576632 358.48495361 378.94898987 358.50636292 C373.020481 358.55595715 367.09194903 358.60121654 361.16339082 358.64438528 C353.75166226 358.69861857 346.33999149 358.75956528 338.92831421 358.82034302 C325.70634831 358.92795273 312.48434339 359.02957806 299.26229858 359.12698364 C299.07739365 358.58257629 298.89248871 358.03816895 298.70198059 357.4772644 C296.73938468 351.69948421 294.77547845 345.9221505 292.81088257 340.14505005 C292.08237091 338.0022557 291.35416982 335.85935573 290.62631226 333.71633911 C288.51866029 327.51120227 286.40182341 321.30930569 284.27810669 315.10964966 C283.29042299 312.20956391 282.31819691 309.30468416 281.34872437 306.39846802 C280.74860055 304.6255802 280.14819264 302.85278851 279.54745483 301.08010864 C279.15837196 299.89309357 279.15837196 299.89309357 278.76142883 298.68209839 C276.92709307 293.3201883 274.42990304 288.81468812 271.26229858 284.12698364 C270.70542358 283.26073364 270.14854858 282.39448364 269.57479858 281.50198364 C261.68176247 273.39562223 251.14733208 270.51656239 240.26229858 269.12698364 C238.47142887 267.33611393 239.13972066 264.91219499 239.13321728 262.52772135 C239.13613012 261.71742599 239.13904296 260.90713064 239.14204407 260.07228088 C239.14076243 258.79080558 239.14076243 258.79080558 239.1394549 257.48344189 C239.13779747 254.59824424 239.14332574 251.71310374 239.14877319 248.82791138 C239.14905503 246.76867677 239.14889739 244.70944207 239.14833069 242.65020752 C239.14804259 237.04093277 239.15394124 231.4316792 239.16090465 225.82240939 C239.16713621 219.96739734 239.16774183 214.11238485 239.16893005 208.25737 C239.17204395 197.16157603 239.18025813 186.06579187 239.19027954 174.97000223 C239.20143886 162.3414419 239.20695067 149.71288112 239.21197498 137.08431709 C239.2224407 111.09853383 239.24004127 85.11275928 239.26229858 59.12698364 C217.10473253 59.16416741 194.94733106 59.22405344 172.78990173 59.31088638 C162.50156394 59.35067748 152.21330265 59.38306964 141.92489624 59.39797974 C132.95639042 59.41099586 123.98805291 59.43795959 115.01964188 59.48159671 C110.27192554 59.50421234 105.52441682 59.51989426 100.77664185 59.51886749 C96.30483761 59.51812094 91.83349234 59.53606963 87.36180687 59.56815147 C85.72360516 59.57664695 84.08535195 59.57840278 82.44713783 59.57278633 C69.03881055 59.49401068 69.03881055 59.49401068 57.88729858 66.37698364 C57.35104858 66.95448364 56.81479858 67.53198364 56.26229858 68.12698364 C55.60229858 68.12698364 54.94229858 68.12698364 54.26229858 68.12698364 C53.99417358 68.80760864 53.72604858 69.48823364 53.44979858 70.18948364 C52.6038882 72.28199879 51.67775708 74.34282996 50.69979858 76.37698364 C46.83027306 85.55522577 48.13309827 96.66694309 48.16464233 106.45681763 C48.16656375 108.20857195 48.16802649 109.96032684 48.16906738 111.71208191 C48.17221668 115.46883106 48.17846718 119.22555746 48.18713379 122.9822979 C48.20069222 128.91903893 48.20655731 134.85577251 48.21127319 140.79252625 C48.22235161 153.38318879 48.24191187 165.97383325 48.26229858 178.56448364 C48.28431722 192.18197797 48.30487562 205.79946512 48.31571674 219.41697365 C48.32070848 225.32314749 48.3305808 231.22928728 48.34414673 237.13544738 C48.3515822 240.79894825 48.35491697 244.46244437 48.35711288 248.12595177 C48.35899171 249.82959525 48.36260608 251.53323779 48.36804581 253.23687363 C48.37521566 255.55442747 48.37630165 257.87190541 48.37582397 260.18946838 C48.37804459 261.48856864 48.3802652 262.7876689 48.3825531 264.12613583 C48.26229858 267.12698364 48.26229858 267.12698364 47.26229858 269.12698364 C23.54971848 269.15030995 -0.16285992 269.1679615 -23.87544918 269.17879581 C-34.88479431 269.18395934 -45.89413233 269.19100312 -56.9034729 269.2024231 C-66.49552034 269.2123682 -76.08756263 269.21883665 -85.67961508 269.22107214 C-90.76185434 269.22237954 -95.84407885 269.22546725 -100.9263134 269.2327137 C-105.70405813 269.23947118 -110.48178197 269.24160116 -115.25953102 269.24009132 C-117.01841215 269.24036778 -118.77729394 269.24237451 -120.53617096 269.24618912 C-122.92681452 269.25112213 -125.31737788 269.2499834 -127.70802307 269.24723816 C-128.76588269 269.25160742 -128.76588269 269.25160742 -129.84511322 269.25606495 C-134.62358021 269.24110485 -134.62358021 269.24110485 -135.73770142 268.12698364 C-135.83156522 265.45771512 -135.85741298 262.81779749 -135.83682251 260.14846802 C-135.83324926 259.30401878 -135.82967602 258.45956955 -135.82599449 257.58953094 C-135.7537895 246.31797713 -135.44816613 235.05064602 -135.15176392 223.78323364 C-135.08923587 221.3607498 -135.0267677 218.93826442 -134.96435547 216.51577759 C-134.83331179 211.45628048 -134.70019346 206.39684274 -134.56582642 201.33743286 C-134.43035585 196.2258655 -134.29855344 191.11422588 -134.1703186 186.00247192 C-132.94241363 137.10955624 -132.94241363 137.10955624 -131.76895142 115.72463989 C-131.73294453 115.03162781 -131.69693764 114.33861572 -131.65983963 113.62460327 C-130.37976604 89.54713101 -122.52202072 68.79702893 -108.73770142 49.12698364 C-108.1331311 48.25557739 -107.52856079 47.38417114 -106.90567017 46.48635864 C-104.05113926 42.51362949 -104.05113926 42.51362949 -102.73770142 41.12698364 C-102.07770142 41.12698364 -101.41770142 41.12698364 -100.73770142 41.12698364 C-100.51082642 40.57010864 -100.28395142 40.01323364 -100.05020142 39.43948364 C-98.36220105 36.46538777 -96.27093625 34.40689499 -93.73770142 32.12698364 C-93.07770142 32.12698364 -92.41770142 32.12698364 -91.73770142 32.12698364 C-91.24270142 30.64198364 -91.24270142 30.64198364 -90.73770142 29.12698364 C-88.25269426 26.81451856 -85.43441662 24.91192334 -82.67520142 22.93948364 C-81.4593335 22.06936646 -81.4593335 22.06936646 -80.21890259 21.18167114 C-55.43280211 3.82487751 -29.64382888 -0.03509782 0 0 Z " fill="#444444" transform="translate(219.73770141601563,135.87301635742188)"/>
<path d="M0 0 C24.50436455 -0.046733 49.00872241 -0.08199524 73.51312256 -0.10362434 C84.89108775 -0.1139343 96.26902524 -0.12798932 107.64697266 -0.15087891 C117.5646698 -0.17082131 127.48234688 -0.18371848 137.40006351 -0.18817699 C142.65077765 -0.19078291 147.90143439 -0.19690224 153.15213013 -0.21146011 C158.09652999 -0.22505741 163.04084894 -0.22921828 167.98526573 -0.22621536 C169.79764941 -0.22676456 171.61003585 -0.23072918 173.42240334 -0.23841095 C175.9026317 -0.24840583 178.38255714 -0.2459524 180.86279297 -0.24050903 C181.57487947 -0.24633472 182.28696596 -0.2521604 183.02063084 -0.25816262 C193.55919979 -0.1959259 200.09950196 3.33376491 207.57421875 10.51171875 C213.03664202 16.49905957 214.43114549 23.8216122 215.0625 31.59765625 C215.13919922 32.44465591 215.21589844 33.29165558 215.29492188 34.1643219 C216.43195501 47.23666422 217.18599994 60.34195605 218 73.4375 C219.37697891 95.74359082 219.37697891 95.74359082 221.31811523 118.00579834 C222.17984407 126.60350198 222.71246947 135.21162437 223.2109375 143.83789062 C224.35534038 161.92142924 228.70295043 176.49594846 242.25 189.25 C256.1869998 200.50188975 272.19789212 201.15313077 289.2578125 201.16796875 C290.61441074 201.17119103 291.97100865 201.1745558 293.3276062 201.17805481 C296.1531454 201.18400079 298.97865421 201.18589918 301.80419922 201.18530273 C305.40610759 201.18520081 309.00782018 201.19890423 312.60968208 201.21607494 C315.40482463 201.22724084 318.1999203 201.22922062 320.99508286 201.22869301 C322.9624859 201.23042876 324.92987433 201.24122906 326.89724731 201.25224304 C336.61298141 201.22750655 345.34966488 200.57771081 353 194 C358.01219543 187.81358091 360.12195871 183.07564943 360.13803101 175.07389832 C360.14085229 174.36503033 360.14367357 173.65616233 360.14658034 172.9258135 C360.15493005 170.54452546 360.15626491 168.1632839 360.15771484 165.78198242 C360.16238279 164.07700977 360.16752632 162.37203837 360.17311096 160.66706848 C360.18439529 156.99208378 360.19282786 153.31710721 360.19923019 149.64211082 C360.2099048 143.8307378 360.23014816 138.01942311 360.25234985 132.20808411 C360.31429243 115.68163727 360.3682917 99.15519378 360.40136719 82.62866211 C360.41970956 73.50380302 360.44864034 64.37904152 360.4893719 55.25425416 C360.51044759 50.42506962 360.52589998 45.59600809 360.52817917 40.76677513 C360.53032586 36.22361107 360.54619741 31.68070316 360.57256889 27.13761711 C360.57976241 25.47115237 360.58186259 23.80465659 360.57846642 22.13817978 C360.57456702 19.86083467 360.58904047 17.58430577 360.60800171 15.30705261 C360.61131186 14.03334399 360.614622 12.75963537 360.61803246 11.44732952 C361.03682789 7.66762132 362.04492688 5.24088663 364 2 C367.30319428 -0.54712981 370.81468312 -0.2994022 374.875 -0.3125 C376.06867188 -0.32925781 377.26234375 -0.34601563 378.4921875 -0.36328125 C384.25104835 0.23312639 388.93658996 2.93658996 393 7 C398.27440292 15.51716686 401.04138656 25.376067 404.1875 34.8125 C404.96974129 37.13714746 405.75410861 39.46103525 406.54179382 41.78384399 C407.09639899 43.43550133 407.64076412 45.09062413 408.17610168 46.74862671 C409.77103273 51.63099972 411.54943828 56.33060552 413.62182617 61.03173828 C422.98991392 83.28650833 422.28536994 105.23498968 421.9753418 129.04150391 C421.87498231 137.55069338 421.86573046 146.06052955 421.85257149 154.57021332 C421.84012618 157.51137899 421.8042891 160.45149281 421.7641449 163.39239502 C421.75111303 165.19811711 421.73848257 167.00384216 421.72631836 168.80957031 C421.70917282 169.61062195 421.69202728 170.41167358 421.67436218 171.23699951 C421.65605835 178.52038374 423.41561349 186.19311041 428 192 C437.52339139 201.06706222 447.08606694 201.29946809 459.71459961 201.2746582 C461.07899757 201.27901349 462.44339308 201.28419934 463.80778503 201.29014587 C467.48965219 201.30345834 471.17141621 201.30412333 474.85330272 201.30158257 C477.93711237 201.30050772 481.02090158 201.30540924 484.10470682 201.310188 C491.38451758 201.32125605 498.66427672 201.32173564 505.9440918 201.31567383 C513.43258875 201.30963379 520.92089782 201.32195196 528.40936273 201.3432439 C534.85976537 201.36090407 541.31010844 201.36685437 547.76053435 201.36360615 C551.60386082 201.36180041 555.4470532 201.36435826 559.29035759 201.37832069 C562.90612406 201.39096692 566.52159913 201.38889144 570.13736153 201.37590981 C572.08197934 201.3724463 574.02660635 201.38367129 575.97119141 201.39547729 C585.59105176 201.33823163 594.32331641 200.24846339 602 194 C609.44901931 186.20451467 611.13186675 178.19432025 611.11352539 167.72418213 C611.11367425 167.01401215 611.11382311 166.30384218 611.11397648 165.5721519 C611.11328482 163.20464605 611.10545561 160.83721885 611.09765625 158.46972656 C611.09573617 156.76767521 611.09427279 155.06562329 611.0932312 153.36357117 C611.09007485 149.70498859 611.08381346 146.0464292 611.07516479 142.38785553 C611.06163615 136.60677768 611.05574731 130.82570752 611.05102539 125.0446167 C611.03993175 112.77973417 611.02038163 100.51487008 611 88.25 C610.97799203 74.99562113 610.95742195 61.74124967 610.94658184 48.48685622 C610.9415885 42.7353972 610.93171326 36.98397313 610.91815186 31.23252821 C610.91071543 27.66298768 610.90738135 24.09345203 610.9051857 20.5239048 C610.90330695 18.86380283 610.89969275 17.20370183 610.89425278 15.54360771 C610.88708197 13.28501007 610.88599699 11.02649031 610.88647461 8.7678833 C610.884254 7.50175831 610.88203339 6.23563332 610.87974548 4.9311409 C611 2 611 2 612 0 C629.97569233 -0.02332821 647.95138074 -0.04097879 665.92708492 -0.05181217 C674.27292829 -0.0569753 682.61876227 -0.06401831 690.96459961 -0.07543945 C698.2361877 -0.08538579 705.50776899 -0.09185331 712.77936369 -0.09408849 C716.63199521 -0.09539569 720.48460728 -0.09848208 724.33723259 -0.10573006 C727.95932672 -0.11248948 731.58139328 -0.11461712 735.20349312 -0.11310768 C737.17497228 -0.11351637 739.14644841 -0.11891197 741.11791992 -0.12442017 C742.28044785 -0.1230455 743.44297577 -0.12167084 744.64073181 -0.12025452 C745.65746947 -0.12117631 746.67420713 -0.1220981 747.72175503 -0.12304783 C750 0 750 0 751 1 C751.04143875 2.62065243 751.01013956 4.24324417 750.94921875 5.86328125 C750.89254028 7.39577515 750.89254028 7.39577515 750.8347168 8.95922852 C750.78613525 10.06580811 750.73755371 11.1723877 750.6875 12.3125 C750.63827393 13.4480835 750.58904785 14.58366699 750.53833008 15.75366211 C749.2843785 42.47651363 744.46743841 68.25107458 738.9375 94.375 C738.60830566 95.93608994 738.60830566 95.93608994 738.27246094 97.52871704 C737.63353496 100.54894562 736.98795173 103.56766728 736.33984375 106.5859375 C736.05396645 107.93643944 736.05396645 107.93643944 735.76231384 109.31422424 C734.46311508 115.30794273 732.84321887 121.15111082 731 127 C730.31651489 127.12256165 729.63302979 127.24512329 728.92883301 127.37139893 C692.30782094 133.99021687 658.54070815 150.05670652 635.6875 180.4375 C634.43131183 182.27346732 633.20347308 184.12905445 632 186 C631.64099609 186.55236328 631.28199219 187.10472656 630.91210938 187.67382812 C619.69994954 205.07464177 611.91331394 224.02042334 609.359375 244.65625 C609 247 609 247 608 248 C605.88895363 248.09797106 603.77455707 248.12371177 601.66123867 248.12304783 C600.9881121 248.12420167 600.31498553 248.12535552 599.62146118 248.12654433 C597.33765882 248.12921751 595.05392521 248.12468312 592.77012634 248.12025452 C591.12759257 248.12069008 589.48505887 248.1215647 587.84252554 248.12284368 C583.30694973 248.12509166 578.7713973 248.12106325 574.23582447 248.11606562 C569.3530425 248.11176562 564.47026196 248.11320722 559.58747864 248.1139679 C551.12041344 248.11449342 542.65335592 248.11134368 534.18629265 248.10573006 C521.94419044 248.09761886 509.70209196 248.09500023 497.45998735 248.09374207 C477.60019454 248.09155094 457.74040582 248.08488924 437.88061523 248.07543945 C418.58341492 248.06626689 399.28621572 248.05918529 379.98901367 248.05493164 C378.80045216 248.05466892 377.61189064 248.05440619 376.38731211 248.05413551 C370.42492239 248.05283051 364.46253266 248.0515668 358.50014293 248.05032361 C309.00009246 248.03994912 259.50004643 248.02232918 210 248 C209.73807861 247.06043457 209.47615723 246.12086914 209.20629883 245.15283203 C208.85591553 243.90872559 208.50553223 242.66461914 208.14453125 241.3828125 C207.80010986 240.15449707 207.45568848 238.92618164 207.10083008 237.66064453 C201.90906088 220.39619845 191.87575914 202.09192425 176.36328125 192.05078125 C175.91339844 191.70402344 175.46351563 191.35726562 175 191 C175 190.34 175 189.68 175 189 C174.27296875 188.72929688 173.5459375 188.45859375 172.796875 188.1796875 C170.07597395 187.03204488 167.74416958 185.69812003 165.25 184.125 C145.11504789 171.94350181 120.63926064 168.86452349 97.76953125 174.03125 C80.86229393 178.37632239 66.66603237 186.06598001 54 198 C53.67 198.66 53.34 199.32 53 200 C52.34 200 51.68 200 51 200 C50.61714844 200.86044922 50.61714844 200.86044922 50.2265625 201.73828125 C48.87119047 204.23751821 47.26256327 206.0630513 45.375 208.1875 C36.18116962 219.4746433 31.30878176 234.00130794 28 248 C17.26234382 248.59409163 9.29423341 246.01937901 1 239 C-8.81347895 228.05583761 -8.36246246 214.74724329 -7.890625 200.9375 C-7.84249609 199.17948103 -7.79579312 197.42142252 -7.75042725 195.66333008 C-7.62726976 191.04384208 -7.4842888 186.42517461 -7.3371582 181.80639648 C-7.19407878 177.19939937 -7.07074672 172.59187998 -6.9453125 167.984375 C-6.49292837 151.63671158 -5.95576869 135.29339638 -5.32377625 118.95169067 C-4.97681899 109.82098677 -4.77527451 100.69102044 -4.61184692 91.55545044 C-4.27638868 73.33386456 -3.78454681 55.11645838 -3.1869812 36.90167236 C-3.10440855 34.35501758 -3.02488917 31.80826184 -2.94851685 29.26141357 C-2.84033566 25.68564473 -2.72055727 22.11044563 -2.59765625 18.53515625 C-2.56740356 17.4704863 -2.53715088 16.40581635 -2.50598145 15.30888367 C-2.46928345 14.31500137 -2.43258545 13.32111908 -2.39477539 12.29711914 C-2.36670303 11.43880997 -2.33863068 10.58050079 -2.30970764 9.69618225 C-1.92325297 6.33187321 -0.95483698 3.24381822 0 0 Z " fill="#444444" transform="translate(85,422)"/>
<path d="M0 0 C4.11668663 3.46175921 7.60144838 7.29075366 10.9375 11.5 C11.58589844 12.28890625 12.23429688 13.0778125 12.90234375 13.890625 C20.28033808 23.3503183 26.54874594 35.43767905 27.9375 47.5 C28.06898438 48.593125 28.20046875 49.68625 28.3359375 50.8125 C30.45638707 73.43062874 24.24078594 92.46054794 9.8125 110.0625 C-2.83148417 124.89698476 -19.83012564 133.17317098 -39.0625 135.5 C-59.83669915 136.65412217 -79.65839383 131.83960282 -96.0625 118.5 C-96.0625 117.84 -96.0625 117.18 -96.0625 116.5 C-96.63226563 116.2628125 -97.20203125 116.025625 -97.7890625 115.78125 C-108.67384238 109.64687233 -115.06176397 95.78779095 -119.0625 84.5 C-119.35125 83.7678125 -119.64 83.035625 -119.9375 82.28125 C-126.49097493 63.88110886 -122.87707192 42.67993492 -114.8125 25.4375 C-105.10565192 6.94402491 -89.69449136 -5.74405156 -70.0625 -12.5 C-69.17949219 -12.81839844 -68.29648438 -13.13679687 -67.38671875 -13.46484375 C-44.47655999 -20.49667466 -18.88421155 -13.9871194 0 0 Z M-81.0625 29.5 C-91.36787058 41.7477441 -93.31609304 53.89009939 -92.0625 69.5 C-91.22080735 73.49804009 -89.9497951 76.88629397 -88.0625 80.5 C-87.70027344 81.2115625 -87.33804688 81.923125 -86.96484375 82.65625 C-80.36736489 94.28570426 -70.1315415 101.1800038 -57.49609375 104.7734375 C-47.99442306 106.78402993 -39.13866424 105.77313639 -30.0625 102.5 C-29.37800781 102.25636719 -28.69351563 102.01273438 -27.98828125 101.76171875 C-16.8806332 97.00773551 -8.59420318 87.05705158 -4.07421875 76.10546875 C0.3791403 63.04087513 -0.90747471 51.97012543 -6.0625 39.5 C-12.27736477 27.42783802 -22.34708248 19.79220908 -35.0625 15.5 C-51.99803485 11.31430683 -69.5395208 16.41986144 -81.0625 29.5 Z " fill="#444444" transform="translate(251.0625,625.5)"/>
<path d="M0 0 C5.29797104 3.95737269 10.0121048 8.5991562 14.68652344 13.25976562 C15.30140625 13.83082031 15.91628906 14.401875 16.54980469 14.99023438 C17.68652344 16.25976562 17.68652344 16.25976562 17.68652344 18.25976562 C18.34652344 18.25976562 19.00652344 18.25976562 19.68652344 18.25976562 C21.30606487 21.20992049 22.90412476 24.1712265 24.49902344 27.13476562 C25.17674805 28.36839844 25.17674805 28.36839844 25.86816406 29.62695312 C34.67432126 46.08225416 36.23102177 65.70394531 31.78808594 83.78710938 C28.29008121 94.81450726 22.91762522 104.22461577 15.68652344 113.25976562 C15.07164062 114.08347656 14.45675781 114.9071875 13.82324219 115.75585938 C2.96382538 128.48142824 -15.47879898 137.77883026 -32.05566406 139.16601562 C-32.80074219 139.19695312 -33.54582031 139.22789062 -34.31347656 139.25976562 C-35.38855469 139.31132813 -36.46363281 139.36289062 -37.57128906 139.41601562 C-57.30409855 139.91036576 -76.53735939 134.96022676 -91.31347656 121.25976562 C-92.13074219 120.53273438 -92.94800781 119.80570313 -93.79003906 119.05664062 C-108.50219413 105.27788512 -116.93260784 86.53692262 -117.59423828 66.48461914 C-117.86467784 49.12447957 -113.19052963 33.50969901 -103.31347656 19.25976562 C-102.85199219 18.54949219 -102.39050781 17.83921875 -101.91503906 17.10742188 C-92.80225904 3.80697704 -76.68972248 -5.75818095 -61.31347656 -9.74023438 C-60.65532959 -9.91466064 -59.99718262 -10.08908691 -59.3190918 -10.26879883 C-39.2619833 -15.21502386 -17.08777572 -11.71559756 0 0 Z M-78.50097656 35.50976562 C-86.26940091 47.29634049 -89.45730705 60.56628782 -86.66113281 74.51367188 C-84.47865097 81.69806488 -81.04644821 88.40669396 -76.31347656 94.25976562 C-75.32347656 94.58976563 -74.33347656 94.91976562 -73.31347656 95.25976562 C-72.98347656 96.24976563 -72.65347656 97.23976563 -72.31347656 98.25976562 C-64.22618591 105.70767646 -54.04305974 109.39652376 -43.12597656 109.63476562 C-29.91980186 109.08090247 -18.17341866 104.96772535 -8.41894531 95.72851562 C0.43054498 85.35211884 4.22071221 74.47380704 4.00292969 60.92773438 C3.2196298 51.84725788 0.1823671 43.5232783 -5.31347656 36.25976562 C-5.75433594 35.65648437 -6.19519531 35.05320312 -6.64941406 34.43164062 C-12.95222565 26.42254303 -22.34498341 21.11803046 -32.12597656 18.50976562 C-51.05924738 17.02480321 -65.1153672 21.74171028 -78.50097656 35.50976562 Z " fill="#444444" transform="translate(871.3134765625,621.740234375)"/>
<path d="M0 0 C0.77670044 0.00561951 1.55340088 0.01123901 2.3536377 0.01702881 C3.17162338 0.01513046 3.98960907 0.01323212 4.8323822 0.01127625 C7.54390968 0.00756282 10.25517102 0.01827983 12.9666748 0.02947998 C14.84472116 0.03067147 16.72276811 0.03112501 18.60081482 0.03086853 C22.53929365 0.03243432 26.4776817 0.04073193 30.4161377 0.05413818 C35.47621382 0.07113983 40.5361902 0.07495225 45.59629154 0.074193 C49.47461406 0.0744643 53.35291457 0.0799389 57.23122978 0.08719444 C59.09763866 0.0903867 60.96405004 0.09234981 62.8304615 0.09308815 C65.43328264 0.09524518 68.03599582 0.10397514 70.63879395 0.11468506 C71.41751862 0.11423187 72.19624329 0.11377869 72.99856567 0.11331177 C78.31704391 0.14547409 78.31704391 0.14547409 79.43151855 1.25994873 C79.52677223 4.18189538 79.55704592 7.08015203 79.54504395 10.00238037 C79.54518997 10.91936203 79.545336 11.83634369 79.54548645 12.78111267 C79.54478695 15.82746709 79.53699283 18.87376118 79.5291748 21.92010498 C79.52731076 24.02617866 79.52588679 26.13225276 79.52488708 28.23832703 C79.52106086 33.79337756 79.51122969 39.34840214 79.50018311 44.90344238 C79.48997122 50.56719613 79.48538994 56.23095406 79.48034668 61.89471436 C79.46960752 73.01647058 79.45252985 84.1382075 79.43151855 95.25994873 C68.80920429 95.35259435 58.186986 95.42368613 47.56435013 95.46719742 C42.63190703 95.48807983 37.69974016 95.51640943 32.76745605 95.56170654 C28.00826042 95.60514094 23.24933062 95.62908091 18.48995209 95.6394577 C16.67342696 95.6468534 14.85691653 95.66129542 13.04050446 95.68286896 C10.49767011 95.71187139 7.95593677 95.71590613 5.41296387 95.71405029 C4.66058441 95.7284314 3.90820496 95.7428125 3.13302612 95.75762939 C-0.3184854 95.73033998 -2.21449763 95.52741637 -5.00482178 93.41906738 C-8.05172275 89.21187265 -7.71659856 85.03222546 -7.71374512 80.05657959 C-7.71878304 78.80253075 -7.71878304 78.80253075 -7.72392273 77.52314758 C-7.73342954 74.75701415 -7.73537548 71.99094123 -7.7364502 69.22479248 C-7.73966214 67.30572993 -7.74302616 65.38666762 -7.74653625 63.46760559 C-7.75252626 59.44517448 -7.7543762 55.42276485 -7.75378418 51.40032959 C-7.75368238 46.23609585 -7.767354 41.07199904 -7.78455639 35.90779781 C-7.79565035 31.94537213 -7.79770422 27.98297987 -7.79717445 24.02054024 C-7.79835776 22.11587615 -7.80279905 20.21121128 -7.81050682 18.30656242 C-7.82025756 15.64891699 -7.81744866 12.99157319 -7.81140137 10.33392334 C-7.81702087 9.54166351 -7.82264038 8.74940369 -7.82843018 7.93313599 C-7.78984967 1.29196361 -6.66426525 0.03947671 0 0 Z " fill="#444444" transform="translate(530.5684814453125,510.74005126953125)"/>
<path d="M0 0 C1.67632598 0.89599802 3.36679601 1.76540554 5.05859375 2.63183594 C13.50847438 7.19032417 20.04933289 13.30036329 26.83984375 19.98339844 C27.45730469 20.53511719 28.07476563 21.08683594 28.7109375 21.65527344 C29.83984375 22.98339844 29.83984375 22.98339844 29.83984375 25.98339844 C29.17984375 25.98339844 28.51984375 25.98339844 27.83984375 25.98339844 C27.83984375 26.64339844 27.83984375 27.30339844 27.83984375 27.98339844 C26.3359375 29.46386719 26.3359375 29.46386719 24.27734375 31.17089844 C21.34791475 33.6293415 18.7246668 36.15610944 16.15234375 38.98339844 C14.44921875 40.73730469 14.44921875 40.73730469 12.83984375 41.98339844 C9.90234375 41.92089844 9.90234375 41.92089844 7.83984375 40.98339844 C7.83984375 40.32339844 7.83984375 39.66339844 7.83984375 38.98339844 C7.26492188 38.72042969 6.69 38.45746094 6.09765625 38.18652344 C3.70929359 36.91383191 1.80681695 35.44711818 -0.28515625 33.73339844 C-20.07972558 18.23085547 -44.26825955 11.34324917 -69.26855469 14.2265625 C-73.64051866 14.87056108 -77.89117156 15.85380455 -82.16015625 16.98339844 C-83.17207031 17.25023437 -84.18398438 17.51707031 -85.2265625 17.79199219 C-102.34879033 22.92182076 -117.08130378 32.98905847 -128.16015625 46.98339844 C-128.85431641 47.62921875 -128.85431641 47.62921875 -129.5625 48.28808594 C-141.80878424 61.28292056 -146.04298241 80.25321382 -150.16015625 96.98339844 C-154.47264234 97.01226381 -158.78510387 97.03015098 -163.09765625 97.04589844 C-164.32935547 97.05427734 -165.56105469 97.06265625 -166.83007812 97.07128906 C-167.99990234 97.07451172 -169.16972656 97.07773437 -170.375 97.08105469 C-172.00103149 97.08890991 -172.00103149 97.08890991 -173.65991211 97.09692383 C-176.16015625 96.98339844 -176.16015625 96.98339844 -177.16015625 95.98339844 C-178.51672709 70.46290956 -164.06335344 43.81754375 -147.59619141 25.21679688 C-109.3813169 -16.26699079 -49.67378464 -26.61095605 0 0 Z " fill="#444444" transform="translate(887.16015625,580.0166015625)"/>
<path d="M0 0 C6.82844935 -0.08618194 13.65449529 -0.10008932 20.48339844 -0.06713867 C22.79918824 -0.06408396 25.11506011 -0.07670408 27.43066406 -0.10620117 C41.76719501 -0.27657913 52.58166476 0.36303594 64.42218018 8.87924194 C66.64162764 10.45576138 68.98151851 11.79542711 71.33984375 13.15234375 C72.87369824 14.07857579 74.40627009 15.00693548 75.9375 15.9375 C77.62851695 16.95897808 79.31993069 17.97979955 81.01171875 19 C81.84106934 19.50015625 82.67041992 20.0003125 83.52490234 20.515625 C88.08552939 23.25074163 92.67540052 25.93619504 97.26928711 28.61499023 C99.1844745 29.73518506 101.09305699 30.86583513 103 32 C103.7326709 32.42917725 104.4653418 32.85835449 105.22021484 33.30053711 C105.94418457 33.73503174 106.6681543 34.16952637 107.4140625 34.6171875 C108.0735791 35.00890137 108.7330957 35.40061523 109.41259766 35.80419922 C111 37 111 37 112.125 39.6875 C112 42 112 42 110 44 C108.03878689 44.24888897 108.03878689 44.24888897 105.5901947 44.24723816 C104.66333359 44.25143265 103.73647247 44.25562714 102.78152466 44.25994873 C101.76170502 44.25432922 100.74188538 44.24870972 99.69116211 44.24291992 C98.08379433 44.24576744 98.08379433 44.24576744 96.44395447 44.24867249 C92.88834405 44.25238882 89.33293614 44.24166447 85.77734375 44.23046875 C83.31637089 44.22927741 80.85539757 44.22882369 78.39442444 44.2290802 C73.2319149 44.22751389 68.06947456 44.21921244 62.90698242 44.20581055 C56.27302404 44.18881162 49.63914175 44.18499637 43.00516415 44.18575573 C37.92244229 44.18548447 32.83973724 44.18001047 27.75702095 44.17275429 C25.31006561 44.1695611 22.86310836 44.16759871 20.41615105 44.16686058 C17.0038818 44.16470439 13.59169503 44.15597609 10.17944336 44.14526367 C9.15759949 44.14571686 8.13575562 44.14617004 7.08294678 44.14663696 C6.15890549 44.14237198 5.2348642 44.13810699 4.28282166 44.13371277 C3.07133406 44.131199 3.07133406 44.131199 1.83537197 44.12863445 C0 44 0 44 -1 43 C-1.18511207 40.41758177 -1.30852771 37.85978825 -1.38671875 35.2734375 C-1.41224319 34.49239655 -1.43776764 33.71135559 -1.46406555 32.90664673 C-1.5161923 31.24725264 -1.56560465 29.58777145 -1.61254883 27.92822266 C-1.68658838 25.40605463 -1.77744234 22.88486058 -1.86914062 20.36328125 C-1.91770834 18.75003102 -1.96526568 17.13675 -2.01171875 15.5234375 C-2.04077805 14.7752475 -2.06983734 14.0270575 -2.09977722 13.25619507 C-2.21386517 8.42856277 -1.54286508 4.58147622 0 0 Z " fill="#444444" transform="translate(746,183)"/>
<path d="M0 0 C6.93 0 13.86 0 21 0 C21.92232422 2.784375 21.92232422 2.784375 22.86328125 5.625 C23.67960693 8.08336009 24.49601766 10.54169194 25.3125 13 C25.71662109 14.22074219 26.12074219 15.44148438 26.53710938 16.69921875 C26.93349609 17.89160156 27.32988281 19.08398438 27.73828125 20.3125 C28.09962158 21.40175781 28.46096191 22.49101562 28.83325195 23.61328125 C29.67723344 26.06310572 30.55010062 28.48379617 31.46777344 30.90551758 C33.00513079 34.97147559 34.40641425 39.07459387 35.77734375 43.19921875 C36.02996475 43.95612503 36.28258575 44.71303131 36.54286194 45.49287415 C37.07382645 47.08509179 37.60404444 48.67755856 38.13354492 50.27026367 C38.92990001 52.66464926 39.72942559 55.05795895 40.52929688 57.45117188 C41.80653359 61.27910785 43.07215846 65.11069562 44.3274231 68.94589233 C44.92855123 70.78178932 45.53416447 72.61621633 46.14038086 74.45043945 C48.69492125 82.41597771 50.54440347 90.45792499 52.23754883 98.64038086 C52.69089407 100.82888472 53.15433045 103.01507726 53.61914062 105.20117188 C55.003748 111.78945011 56.22852646 118.3112735 57 125 C53.23562305 127.43577332 49.83305537 127.23476404 45.4375 127.1875 C44.42913086 127.1865332 44.42913086 127.1865332 43.40039062 127.18554688 C40.33586829 127.1581579 37.9272839 126.9757613 35 126 C34.88519287 125.31301025 34.77038574 124.62602051 34.65209961 123.91821289 C28.87509633 89.86860637 17.958477 57.54488581 6.9375 24.90234375 C6.58290459 23.84947929 6.58290459 23.84947929 6.22114563 22.77534485 C5.1208742 19.5090971 4.0143131 16.24549051 2.89526367 12.9855957 C2.51088135 11.85081787 2.12649902 10.71604004 1.73046875 9.546875 C1.39426514 8.56557617 1.05806152 7.58427734 0.71166992 6.57324219 C0 4 0 4 0 0 Z " fill="#444444" transform="translate(775,244)"/>
<path d="M0 0 C6.88617797 4.60781345 10.55382731 10.77280936 12.6328125 18.76171875 C13.92314045 27.97834698 11.53329839 35.3256815 6.5078125 43.01171875 C1.29168348 48.00105955 -4.95909099 52.4396276 -12.3671875 52.76171875 C-14.1925 52.91640625 -14.1925 52.91640625 -16.0546875 53.07421875 C-22.6163653 52.97346362 -29.51760613 50.48401644 -34.7421875 46.51171875 C-41.65710016 39.26752454 -44.88895321 31.69345428 -44.68359375 21.64453125 C-43.87886007 14.31251329 -41.05332166 8.50016389 -35.3671875 3.76171875 C-34.4390625 2.89546875 -33.5109375 2.02921875 -32.5546875 1.13671875 C-22.32278303 -6.48705321 -10.98612001 -6.15280089 0 0 Z " fill="#444444" transform="translate(845.3671875,661.23828125)"/>
<path d="M0 0 C5.70080923 3.87193691 10.15785837 8.85410407 12.26953125 15.50390625 C13.70733401 23.23695351 13.92009179 31.95339638 9.703125 38.8359375 C4.52524299 45.97784372 -0.58655561 50.79967396 -9.375 52.39453125 C-18.40209705 53.41270382 -25.83662685 52.2238945 -33.296875 46.8359375 C-39.28574349 41.89512099 -43.10400762 34.89743571 -44.234375 27.2109375 C-44.72074093 19.07146069 -41.73989493 11.34399826 -36.83203125 4.91796875 C-26.8433432 -6.1048423 -12.61245896 -7.03260146 0 0 Z " fill="#444444" transform="translate(219.296875,661.1640625)"/>
<path d="M0 0 C0.88494141 -0.00128906 1.76988281 -0.00257813 2.68164062 -0.00390625 C3.59751953 -0.00003906 4.51339844 0.00382812 5.45703125 0.0078125 C6.38451172 0.00394531 7.31199219 0.00007813 8.26757812 -0.00390625 C9.14865234 -0.00261719 10.02972656 -0.00132812 10.9375 0 C11.74469482 0.00112793 12.55188965 0.00225586 13.38354492 0.00341797 C15.26953125 0.1328125 15.26953125 0.1328125 16.26953125 1.1328125 C16.40000201 3.81914624 16.46621647 6.48113909 16.49072266 9.16918945 C16.50222855 10.01147095 16.51373444 10.85375244 16.52558899 11.72155762 C16.56243505 14.52136524 16.59198789 17.32119571 16.62109375 20.12109375 C16.64419874 22.06064689 16.66758896 24.00019665 16.69125366 25.93974304 C16.73979052 30.01277781 16.7847058 34.08583285 16.82714844 38.15893555 C16.88187662 43.38136479 16.94572209 48.60363517 17.01232338 53.82592487 C17.06240487 57.83471273 17.10752862 61.84354472 17.15116501 65.85240746 C17.17274191 67.77776072 17.19589094 69.70309702 17.22063065 71.62841225 C17.2545138 74.32166603 17.28170218 77.01490685 17.30712891 79.70825195 C17.32419136 80.90459511 17.32419136 80.90459511 17.34159851 82.12510681 C17.36834523 85.64435919 17.21823452 88.7482617 16.26953125 92.1328125 C13.17647703 91.52378191 11.07313363 90.53412447 8.51953125 88.6953125 C7.9059375 88.26347656 7.29234375 87.83164062 6.66015625 87.38671875 C5.97179687 86.76603516 5.97179687 86.76603516 5.26953125 86.1328125 C5.26953125 85.4728125 5.26953125 84.8128125 5.26953125 84.1328125 C4.27953125 83.8028125 3.28953125 83.4728125 2.26953125 83.1328125 C-3.9500024 74.8084494 -4.82118941 65.52150731 -5.48876953 55.546875 C-5.78715363 51.33212429 -6.14786017 47.12392499 -6.5078125 42.9140625 C-6.7925556 39.52882686 -7.07434781 36.14335065 -7.35546875 32.7578125 C-7.42422211 31.93702209 -7.49297546 31.11623169 -7.56381226 30.27056885 C-8.37040684 20.53042573 -8.94645824 10.91342759 -8.73046875 1.1328125 C-5.75238716 0.27364385 -3.09547958 0.0043074 0 0 Z " fill="#444444" transform="translate(329.73046875,509.8671875)"/>
<path d="M0 0 C1.13258743 -0.01210762 1.13258743 -0.01210762 2.28805542 -0.02445984 C3.89025578 -0.03830341 5.49248567 -0.04902435 7.09472656 -0.05688477 C9.52467444 -0.07400726 11.95322898 -0.11787672 14.3828125 -0.16210938 C29.01301361 -0.30961906 29.01301361 -0.30961906 35.4296875 4.23828125 C39.23614834 8.5455922 41.2780253 13.4845964 41.4296875 19.23828125 C39.94586219 25.57545184 36.86364472 29.7898084 31.4296875 33.23828125 C23.91235327 35.79489253 16.42850912 35.53487191 8.5546875 35.48828125 C7.21093373 35.49541508 5.86718335 35.5032223 4.5234375 35.51171875 C3.25757813 35.50914062 1.99171875 35.5065625 0.6875 35.50390625 C-1.04282471 35.50052246 -1.04282471 35.50052246 -2.80810547 35.49707031 C-5.5703125 35.23828125 -5.5703125 35.23828125 -7.5703125 33.23828125 C-7.98095703 30.82739258 -7.98095703 30.82739258 -8.203125 27.8203125 C-8.28691406 26.73041016 -8.37070312 25.64050781 -8.45703125 24.51757812 C-8.53566406 23.37353516 -8.61429687 22.22949219 -8.6953125 21.05078125 C-8.78167969 19.92607422 -8.86804688 18.80136719 -8.95703125 17.64257812 C-9.36301035 12.16186021 -9.68165586 6.7338714 -9.5703125 1.23828125 C-6.52619841 -0.28377579 -3.34205612 0.03381099 0 0 Z " fill="#444444" transform="translate(326.5703125,458.76171875)"/>
</svg>
