<?xml version="1.0" encoding="UTF-8"?>
<svg version="1.1" xmlns="http://www.w3.org/2000/svg" width="1000" height="1000">
<path d="M0 0 C0.83554413 0.0629425 1.67108826 0.12588501 2.5319519 0.19073486 C10.41862708 0.80574133 18.1974104 1.59095324 25.96582031 3.13427734 C31.21013582 4.10205867 36.51664052 4.6419224 41.8125 5.25 C42.95525391 5.3840625 44.09800781 5.518125 45.27539062 5.65625 C48.05824692 5.98227501 50.8414298 6.30513782 53.625 6.625 C53.625 7.285 53.625 7.945 53.625 8.625 C54.48222656 8.68558594 55.33945312 8.74617188 56.22265625 8.80859375 C71.64264702 9.9385818 71.64264702 9.9385818 76.34375 11.56640625 C81.16497185 13.12182425 86.09166562 13.92194509 91.06640625 14.84375 C94.14373449 15.51934347 96.73089768 16.42760758 99.625 17.625 C101.20001569 17.97703165 102.7843635 18.28959668 104.375 18.5625 C108.46198822 19.33896757 112.26972902 20.41613564 116.19140625 21.7890625 C118.90105129 22.7198234 121.6316551 23.54881891 124.375 24.375 C130.38026978 26.21406966 136.35008779 28.15154034 142.3125 30.125 C143.6123584 30.55184082 143.6123584 30.55184082 144.93847656 30.98730469 C150.92874454 32.98102955 156.78810878 35.21996656 162.625 37.625 C162.625 38.285 162.625 38.945 162.625 39.625 C163.44291016 39.77195312 163.44291016 39.77195312 164.27734375 39.921875 C170.1604399 41.08843766 175.24865112 42.99463576 180.625 45.625 C181.28242187 45.94597656 181.93984375 46.26695312 182.6171875 46.59765625 C183.92762083 47.24761013 185.23487741 47.90400394 186.5390625 48.56640625 C188.00859144 49.31217843 189.48304616 50.04828364 190.9609375 50.77734375 C195.42923111 52.98329943 199.82912022 55.27091233 204.1875 57.6875 C208.347779 59.9895605 212.5404666 61.97860567 216.9453125 63.765625 C218.625 64.625 218.625 64.625 219.625 66.625 C221.26863134 67.34659424 222.93550386 68.01851421 224.625 68.625 C224.625 69.285 224.625 69.945 224.625 70.625 C225.40875 70.934375 226.1925 71.24375 227 71.5625 C229.625 72.625 229.625 72.625 231.625 73.625 C231.625 74.285 231.625 74.945 231.625 75.625 C232.553125 75.893125 233.48125 76.16125 234.4375 76.4375 C237.51053313 77.58235548 238.50142013 78.30836741 240.625 80.625 C242.72489652 81.80074711 242.72489652 81.80074711 244.625 82.625 C244.625 83.285 244.625 83.945 244.625 84.625 C245.553125 84.893125 246.48125 85.16125 247.4375 85.4375 C250.44945764 86.55960187 251.58847496 87.2829962 253.625 89.625 C254.285 89.955 254.945 90.285 255.625 90.625 C255.625 91.285 255.625 91.945 255.625 92.625 C256.511875 92.8725 257.39875 93.12 258.3125 93.375 C261.84092536 94.70648127 263.72873535 96.23064485 266.625 98.625 C267.80542536 99.53796551 268.98923471 100.44656671 270.17578125 101.3515625 C270.79130859 101.8259375 271.40683594 102.3003125 272.04101562 102.7890625 C273.32138095 103.77537894 274.60533705 104.75704911 275.89257812 105.734375 C277.50702125 106.98492777 279.0709397 108.30015834 280.625 109.625 C280.625 110.285 280.625 110.945 280.625 111.625 C283.1 112.615 283.1 112.615 285.625 113.625 C285.625 114.285 285.625 114.945 285.625 115.625 C286.140625 115.728125 286.65625 115.83125 287.1875 115.9375 C289.625 116.625 289.625 116.625 292.375 118.0625 C298.24880006 120.61049546 304.75938125 120.7302331 311.0625 121.3125 C312.36638672 121.44205078 313.67027344 121.57160156 315.01367188 121.70507812 C318.21660128 122.02185136 321.42017248 122.32815655 324.625 122.625 C324.625 123.285 324.625 123.945 324.625 124.625 C325.6871875 124.68558594 326.749375 124.74617187 327.84375 124.80859375 C341.78171621 125.62702111 341.78171621 125.62702111 348.625 126.625 C348.625 127.285 348.625 127.945 348.625 128.625 C349.78902344 128.69847656 349.78902344 128.69847656 350.9765625 128.7734375 C361.74096998 129.51846809 372.24536451 130.60546967 382.625 133.625 C386.94724748 134.37091978 391.28220633 135.01113142 395.625 135.625 C395.625 136.285 395.625 136.945 395.625 137.625 C396.56859375 137.69847656 396.56859375 137.69847656 397.53125 137.7734375 C398.3871875 137.84820313 399.243125 137.92296875 400.125 138 C400.9603125 138.06960938 401.795625 138.13921875 402.65625 138.2109375 C406.39139808 138.73189236 409.98356869 139.66941741 413.625 140.625 C415.05162232 140.98360986 416.47870856 141.34037911 417.90625 141.6953125 C420.046875 142.23046875 422.1875 142.765625 424.328125 143.30078125 C425.01390625 143.47222656 425.6996875 143.64367187 426.40625 143.8203125 C427.4684375 144.08585938 428.530625 144.35140625 429.625 144.625 C429.625 145.285 429.625 145.945 429.625 146.625 C430.6975 146.769375 431.77 146.91375 432.875 147.0625 C435.54162949 147.46249442 438.03899729 147.90091924 440.625 148.625 C440.625 149.285 440.625 149.945 440.625 150.625 C441.22828125 150.75777344 441.8315625 150.89054688 442.453125 151.02734375 C443.25234375 151.20394531 444.0515625 151.38054687 444.875 151.5625 C445.66390625 151.73652344 446.4528125 151.91054688 447.265625 152.08984375 C449.39378703 152.572556 451.51032842 153.08663178 453.625 153.625 C453.625 154.285 453.625 154.945 453.625 155.625 C455.048125 155.9653125 455.048125 155.9653125 456.5 156.3125 C461.52127504 157.72505581 466.02914173 160.20223367 470.625 162.625 C470.625 163.285 470.625 163.945 470.625 164.625 C471.346875 164.8725 472.06875 165.12 472.8125 165.375 C475.92439604 166.75806491 478.03758274 168.41622917 480.625 170.625 C481.15738281 171.04265625 481.68976562 171.4603125 482.23828125 171.890625 C486.50790541 175.27371622 486.50790541 175.27371622 487.625 178.625 C488.12 179.07875 488.615 179.5325 489.125 180 C491.05809736 182.09418881 491.24952796 183.84650692 491.625 186.625 C492.285 186.625 492.945 186.625 493.625 186.625 C496.82597831 193.94152185 499.65731506 200.97447088 501.1953125 208.83984375 C501.46376694 210.63776612 501.46376694 210.63776612 502.625 211.625 C508.47237991 240.3883829 510.51159581 280.08476334 498.6875 307.4375 C498.38972656 308.14519531 498.09195313 308.85289062 497.78515625 309.58203125 C496.32128958 312.15981667 494.93546937 313.74389653 492.625 315.625 C489.6383667 316.10601807 489.6383667 316.10601807 486.11230469 316.07910156 C485.46798492 316.07968567 484.82366516 316.08026978 484.15982056 316.08087158 C482.03828323 316.07809334 479.91816564 316.04701774 477.796875 316.015625 C476.32286344 316.00816159 474.84884194 316.00246912 473.37481689 315.99847412 C469.50134733 315.9832254 465.62848084 315.94395107 461.75524902 315.8996582 C457.80045733 315.85868852 453.84556788 315.84045954 449.890625 315.8203125 C442.13514218 315.77745528 434.3801557 315.70921422 426.625 315.625 C426.64594727 314.58794922 426.66689453 313.55089844 426.68847656 312.48242188 C426.76208135 308.55369442 426.80722681 304.62502463 426.84472656 300.69580078 C426.86457276 299.01047446 426.89165893 297.32521439 426.92675781 295.64013672 C427.47972044 268.36606845 418.20892609 244.18581658 399.87109375 223.88671875 C397.58656212 221.58629472 395.17185869 219.62640296 392.625 217.625 C391.84125 216.8 391.0575 215.975 390.25 215.125 C387.22059086 212.23984843 384.31048233 210.5761377 380.625 208.625 C380.625 207.965 380.625 207.305 380.625 206.625 C378.315 205.965 376.005 205.305 373.625 204.625 C373.625 203.965 373.625 203.305 373.625 202.625 C369.995 201.635 366.365 200.645 362.625 199.625 C362.625 198.965 362.625 198.305 362.625 197.625 C361.408125 197.480625 360.19125 197.33625 358.9375 197.1875 C355.79829623 196.79719047 352.7174866 196.30148144 349.625 195.625 C349.625 194.965 349.625 194.305 349.625 193.625 C334.55153273 192.88491994 319.67693494 192.34607742 304.625 193.625 C304.625 194.285 304.625 194.945 304.625 195.625 C303.79097656 195.79515625 302.95695313 195.9653125 302.09765625 196.140625 C293.52694863 197.98632149 286.25088264 200.47985157 278.6875 204.875 C275.625 206.625 275.625 206.625 273.625 206.625 C273.625 207.285 273.625 207.945 273.625 208.625 C267.875 211.625 267.875 211.625 265.625 211.625 C265.295 212.615 264.965 213.605 264.625 214.625 C262.49795409 216.43924504 260.29748125 218.12482116 258.0546875 219.79296875 C250.48596146 225.79514451 244.7147845 233.92773675 240.625 242.625 C239.965 242.625 239.305 242.625 238.625 242.625 C238.44324219 243.27726563 238.26148438 243.92953125 238.07421875 244.6015625 C236.64476974 249.57164676 235.03271302 254.02845697 232.625 258.625 C231.93863375 260.86025035 231.93863375 260.86025035 231.625 262.625 C230.965 262.625 230.305 262.625 229.625 262.625 C229.56441406 263.2540625 229.50382813 263.883125 229.44140625 264.53125 C229.35761719 265.3871875 229.27382813 266.243125 229.1875 267.125 C229.10628906 267.9603125 229.02507813 268.795625 228.94140625 269.65625 C228.55114092 273.3179988 228.08175631 276.97094951 227.625 280.625 C227.625 292.175 227.625 303.725 227.625 315.625 C94.635 315.625 -38.355 315.625 -175.375 315.625 C-175.375 304.405 -175.375 293.185 -175.375 281.625 C-176.035 277.335 -176.695 273.045 -177.375 268.625 C-177.375 266.975 -177.375 265.325 -177.375 263.625 C-178.035 263.625 -178.695 263.625 -179.375 263.625 C-179.63023437 262.68140625 -179.63023437 262.68140625 -179.890625 261.71875 C-181.133044 257.33063184 -182.4435335 253.23691285 -184.5625 249.1875 C-186.375 245.625 -186.375 245.625 -186.375 242.625 C-187.035 242.625 -187.695 242.625 -188.375 242.625 C-188.705 240.975 -189.035 239.325 -189.375 237.625 C-190.365 237.295 -191.355 236.965 -192.375 236.625 C-193.9453125 234.6640625 -193.9453125 234.6640625 -195.5 232.25 C-196.01820313 231.45851563 -196.53640625 230.66703125 -197.0703125 229.8515625 C-198.375 227.625 -198.375 227.625 -199.375 224.625 C-200.035 224.625 -200.695 224.625 -201.375 224.625 C-201.375 223.965 -201.375 223.305 -201.375 222.625 C-202.035 222.625 -202.695 222.625 -203.375 222.625 C-204.50915121 221.49084879 -205.63922603 220.35236872 -206.75 219.1953125 C-211.07233112 215.01844444 -215.90007856 211.14520193 -221.375 208.625 C-221.375 207.965 -221.375 207.305 -221.375 206.625 C-222.261875 206.356875 -223.14875 206.08875 -224.0625 205.8125 C-227.375 204.625 -227.375 204.625 -229.8125 203.125 C-232.89029112 201.32336617 -235.9321638 200.5025857 -239.375 199.625 C-239.375 198.965 -239.375 198.305 -239.375 197.625 C-240.73625 197.4703125 -240.73625 197.4703125 -242.125 197.3125 C-245.52266093 196.84079255 -248.75175095 196.0168575 -252.0625 195.125 C-266.95334492 191.31398476 -282.21050119 192.63983534 -297.375 193.625 C-297.375 194.285 -297.375 194.945 -297.375 195.625 C-303.81 196.615 -303.81 196.615 -310.375 197.625 C-310.375 198.285 -310.375 198.945 -310.375 199.625 C-311.11105469 199.87894531 -311.84710938 200.13289062 -312.60546875 200.39453125 C-313.58128906 200.73871094 -314.55710937 201.08289063 -315.5625 201.4375 C-316.52542969 201.77394531 -317.48835938 202.11039063 -318.48046875 202.45703125 C-321.32284295 203.60395417 -323.75675474 205.04681762 -326.375 206.625 C-327.035 206.625 -327.695 206.625 -328.375 206.625 C-328.375 207.285 -328.375 207.945 -328.375 208.625 C-329.7053125 209.24375 -329.7053125 209.24375 -331.0625 209.875 C-335.16810272 212.04399766 -338.33255191 214.55276768 -341.5625 217.875 C-343.375 219.625 -343.375 219.625 -345.375 219.625 C-345.705 220.615 -346.035 221.605 -346.375 222.625 C-347.035 222.625 -347.695 222.625 -348.375 222.625 C-348.436875 223.181875 -348.49875 223.73875 -348.5625 224.3125 C-349.48720505 226.94435283 -350.85734928 228.14263935 -352.8515625 230.02734375 C-359.34994022 236.8423091 -364.40454857 245.71364571 -367.375 254.625 C-368.035 254.625 -368.695 254.625 -369.375 254.625 C-369.49875 255.594375 -369.6225 256.56375 -369.75 257.5625 C-370.54544401 263.1082012 -371.72466864 268.5474147 -373.3984375 273.89453125 C-374.44344811 277.88647176 -374.86500629 281.71141261 -375.0625 285.8125 C-375.1030249 286.57481934 -375.1435498 287.33713867 -375.18530273 288.12255859 C-375.58049979 297.31158746 -374.99697579 306.45803379 -374.375 315.625 C-382.66199243 316.54987344 -390.85338558 316.77758118 -399.1875 316.75 C-400.37537109 316.75386719 -401.56324219 316.75773437 -402.78710938 316.76171875 C-403.93630859 316.76042969 -405.08550781 316.75914062 -406.26953125 316.7578125 C-407.29925049 316.75668457 -408.32896973 316.75555664 -409.38989258 316.75439453 C-412.45613534 316.62148305 -415.36109956 316.19096695 -418.375 315.625 C-418.375 314.965 -418.375 314.305 -418.375 313.625 C-421.345 312.965 -424.315 312.305 -427.375 311.625 C-427.375 310.965 -427.375 310.305 -427.375 309.625 C-428.4578125 309.2846875 -428.4578125 309.2846875 -429.5625 308.9375 C-435.61073232 306.11499159 -439.480929 300.49437908 -442.375 294.625 C-444.06760969 289.56844788 -444.66825346 284.9659318 -444.6496582 279.67138672 C-444.65476913 278.90740067 -444.65988007 278.14341461 -444.66514587 277.35627747 C-444.67899484 274.83899988 -444.67808451 272.32199863 -444.67578125 269.8046875 C-444.67967894 268.02328392 -444.68401578 266.24188125 -444.68876648 264.46047974 C-444.69622478 260.71646125 -444.69594623 256.97253696 -444.69067383 253.22851562 C-444.68609115 249.4487706 -444.69277065 245.66935095 -444.71118164 241.88964844 C-444.99108998 183.95199781 -444.99108998 183.95199781 -439.375 169.625 C-438.92777456 167.87746011 -438.49011665 166.12744123 -438.0625 164.375 C-436.53951179 158.6927851 -434.14611165 153.78811357 -431.375 148.625 C-430.5396875 146.8615625 -430.5396875 146.8615625 -429.6875 145.0625 C-428.375 142.625 -428.375 142.625 -426.375 141.625 C-426.00375 140.92375 -425.6325 140.2225 -425.25 139.5 C-422.39183586 135.11748165 -418.23559769 130.51738749 -413.12109375 128.921875 C-412.54488281 128.82390625 -411.96867187 128.7259375 -411.375 128.625 C-411.375 127.965 -411.375 127.305 -411.375 126.625 C-408.405 125.635 -408.405 125.635 -405.375 124.625 C-405.375 123.965 -405.375 123.305 -405.375 122.625 C-403.93945975 122.11940092 -402.5014798 121.6207251 -401.0625 121.125 C-400.26199219 120.8465625 -399.46148437 120.568125 -398.63671875 120.28125 C-396.375 119.625 -396.375 119.625 -393.375 119.625 C-393.375 118.965 -393.375 118.305 -393.375 117.625 C-384.94642857 115.33928571 -384.94642857 115.33928571 -380.375 115.625 C-380.375 114.965 -380.375 114.305 -380.375 113.625 C-379.15683594 113.35945313 -377.93867188 113.09390625 -376.68359375 112.8203125 C-375.0598706 112.46365655 -373.43617409 112.10687926 -371.8125 111.75 C-370.61270508 111.48896484 -370.61270508 111.48896484 -369.38867188 111.22265625 C-365.74935333 110.42052073 -362.17604347 109.56745059 -358.59375 108.53125 C-355.81837894 107.74983485 -353.2979825 107.26404454 -350.4375 107 C-349.27927734 106.88785156 -349.27927734 106.88785156 -348.09765625 106.7734375 C-347.52917969 106.72445312 -346.96070313 106.67546875 -346.375 106.625 C-346.375 105.965 -346.375 105.305 -346.375 104.625 C-345.10785156 104.37105469 -343.84070313 104.11710937 -342.53515625 103.85546875 C-340.83587819 103.50810252 -339.13666275 103.16042983 -337.4375 102.8125 C-336.60669922 102.64685547 -335.77589844 102.48121094 -334.91992188 102.31054688 C-327.13077606 100.70422497 -319.82187799 98.19589223 -312.40234375 95.375 C-308.75951379 94.02736348 -305.06487651 92.8363231 -301.375 91.625 C-299.68724368 91.06326955 -297.99973536 90.50079331 -296.3125 89.9375 C-295 89.5 -293.6875 89.0625 -292.375 88.625 C-292.375 87.965 -292.375 87.305 -292.375 86.625 C-288.91 85.635 -288.91 85.635 -285.375 84.625 C-285.375 83.965 -285.375 83.305 -285.375 82.625 C-282.8203125 80.8984375 -282.8203125 80.8984375 -279.5 79 C-278.40945313 78.36835938 -277.31890625 77.73671875 -276.1953125 77.0859375 C-273.375 75.625 -273.375 75.625 -271.375 75.625 C-271.045 74.635 -270.715 73.645 -270.375 72.625 C-267.3125 71.4375 -267.3125 71.4375 -264.375 70.625 C-264.375 69.965 -264.375 69.305 -264.375 68.625 C-262.395 67.965 -260.415 67.305 -258.375 66.625 C-258.375 65.965 -258.375 65.305 -258.375 64.625 C-253.99038462 61.625 -253.99038462 61.625 -251.375 61.625 C-251.375 60.965 -251.375 60.305 -251.375 59.625 C-249.0390625 57.8984375 -249.0390625 57.8984375 -246 56 C-245.00226563 55.36835938 -244.00453125 54.73671875 -242.9765625 54.0859375 C-240.375 52.625 -240.375 52.625 -238.375 52.625 C-238.375 51.965 -238.375 51.305 -238.375 50.625 C-236.1796875 49.0390625 -236.1796875 49.0390625 -233.25 47.25 C-230.05990274 45.28338921 -226.88887743 43.32792221 -223.8125 41.1875 C-221.375 39.625 -221.375 39.625 -219.375 39.625 C-219.375 38.965 -219.375 38.305 -219.375 37.625 C-217.08570947 36.45345707 -214.79381638 35.28761926 -212.5 34.125 C-211.84902344 33.79113281 -211.19804687 33.45726562 -210.52734375 33.11328125 C-205.6015625 30.625 -205.6015625 30.625 -203.375 30.625 C-203.375 29.965 -203.375 29.305 -203.375 28.625 C-202.40820312 28.23828125 -201.44140625 27.8515625 -200.4453125 27.453125 C-199.81947266 27.20264404 -199.19363281 26.95216309 -198.54882812 26.6940918 C-197.1755332 26.14506838 -195.80183023 25.5970646 -194.42773438 25.05004883 C-191.40743183 23.84640286 -188.39486732 22.63336931 -185.3984375 21.37109375 C-180.662534 19.38436024 -176.5022642 18.07084906 -171.375 17.625 C-171.375 16.965 -171.375 16.305 -171.375 15.625 C-169.45987728 15.11911853 -167.54283078 14.62051609 -165.625 14.125 C-164.55765625 13.8465625 -163.4903125 13.568125 -162.390625 13.28125 C-159.375 12.625 -159.375 12.625 -155.375 12.625 C-155.375 11.965 -155.375 11.305 -155.375 10.625 C-153.81383181 10.28548381 -152.25098662 9.95367456 -150.6875 9.625 C-149.81738281 9.439375 -148.94726562 9.25375 -148.05078125 9.0625 C-145.43787036 8.63527953 -143.01686962 8.54883799 -140.375 8.625 C-140.375 7.965 -140.375 7.305 -140.375 6.625 C-139.59785645 6.50906494 -138.82071289 6.39312988 -138.02001953 6.27368164 C-134.51280988 5.74846637 -131.00640636 5.21805049 -127.5 4.6875 C-125.66501953 4.41389648 -125.66501953 4.41389648 -123.79296875 4.13476562 C-122.62636719 3.95751953 -121.45976562 3.78027344 -120.2578125 3.59765625 C-119.17902832 3.43531494 -118.10024414 3.27297363 -116.98876953 3.10571289 C-114.40464208 2.75567566 -114.40464208 2.75567566 -112.375 1.625 C-75.91039333 -4.6500479 -36.70585648 -2.76926624 0 0 Z M-81.375 38.625 C-83.43288429 38.97175181 -85.50041342 39.26155737 -87.5703125 39.52734375 C-88.84390625 39.69556641 -90.1175 39.86378906 -91.4296875 40.03710938 C-93.45683369 40.29966144 -95.48419148 40.56047597 -97.51171875 40.82006836 C-99.46932691 41.07222098 -101.42608043 41.3309803 -103.3828125 41.58984375 C-104.55473145 41.7405835 -105.72665039 41.89132324 -106.93408203 42.04663086 C-110.5202906 42.64942127 -113.89495848 43.57870787 -117.375 44.625 C-119.18250322 45.02338846 -120.99474004 45.4013885 -122.8125 45.75 C-123.67746094 45.91757812 -124.54242188 46.08515625 -125.43359375 46.2578125 C-126.07425781 46.37898438 -126.71492188 46.50015625 -127.375 46.625 C-127.375 47.285 -127.375 47.945 -127.375 48.625 C-128.05046875 48.68558594 -128.7259375 48.74617188 -129.421875 48.80859375 C-130.31390625 48.89238281 -131.2059375 48.97617187 -132.125 49.0625 C-133.00671875 49.14371094 -133.8884375 49.22492188 -134.796875 49.30859375 C-137.06850452 49.58738465 -139.17351823 50.01290577 -141.375 50.625 C-141.375 51.285 -141.375 51.945 -141.375 52.625 C-142.5196875 52.72683594 -143.664375 52.82867187 -144.84375 52.93359375 C-149.48719201 53.514024 -153.54759866 54.96054632 -157.875 56.6875 C-158.96554687 57.10999023 -158.96554687 57.10999023 -160.078125 57.54101562 C-161.84691255 58.22758448 -163.61143041 58.92513682 -165.375 59.625 C-165.375 60.285 -165.375 60.945 -165.375 61.625 C-166.00148438 61.75777344 -166.62796875 61.89054687 -167.2734375 62.02734375 C-168.09070313 62.20394531 -168.90796875 62.38054687 -169.75 62.5625 C-170.56210937 62.73652344 -171.37421875 62.91054688 -172.2109375 63.08984375 C-174.404463 63.54830693 -174.404463 63.54830693 -176.375 64.625 C-176.375 65.285 -176.375 65.945 -176.375 66.625 C-177.15875 66.769375 -177.9425 66.91375 -178.75 67.0625 C-181.33921018 67.50298925 -181.33921018 67.50298925 -183.375 68.625 C-183.375 69.285 -183.375 69.945 -183.375 70.625 C-184.44814453 70.78162109 -184.44814453 70.78162109 -185.54296875 70.94140625 C-188.68663677 71.70022267 -190.92715773 72.88993706 -193.6875 74.5625 C-194.57050781 75.08714844 -195.45351563 75.61179687 -196.36328125 76.15234375 C-197.02714844 76.63832031 -197.69101562 77.12429688 -198.375 77.625 C-198.375 78.285 -198.375 78.945 -198.375 79.625 C-199.32375 79.934375 -200.2725 80.24375 -201.25 80.5625 C-204.23580408 81.49894742 -204.23580408 81.49894742 -206.375 82.625 C-206.375 83.285 -206.375 83.945 -206.375 84.625 C-208.025 85.285 -209.675 85.945 -211.375 86.625 C-211.375 87.285 -211.375 87.945 -211.375 88.625 C-212.138125 88.893125 -212.90125 89.16125 -213.6875 89.4375 C-216.30532534 90.59421352 -217.48203497 91.55994724 -219.375 93.625 C-220.365 94.285 -221.355 94.945 -222.375 95.625 C-222.375 96.285 -222.375 96.945 -222.375 97.625 C-222.91125 97.851875 -223.4475 98.07875 -224 98.3125 C-227.19960161 100.08070089 -229.66537223 102.16170203 -232.375 104.625 C-232.375 105.285 -232.375 105.945 -232.375 106.625 C-234.355 107.615 -234.355 107.615 -236.375 108.625 C-236.375 109.945 -236.375 111.265 -236.375 112.625 C-214.39525564 113.39415702 -192.44813971 113.76950626 -170.45560408 113.72639394 C-166.5947232 113.71996502 -162.73384072 113.7195417 -158.87295532 113.71836853 C-151.62443156 113.71531089 -144.37592363 113.70717611 -137.12740672 113.69701904 C-128.84866433 113.68568046 -120.56992101 113.68030366 -112.29117274 113.67532361 C-95.31910614 113.66498594 -78.34705476 113.64749954 -61.375 113.625 C-61.375 114.285 -61.375 114.945 -61.375 115.625 C-49.825 115.625 -38.275 115.625 -26.375 115.625 C-24.57700124 111.1300031 -24.12449278 109.98827587 -24.58203125 105.578125 C-24.67419922 104.65128906 -24.76636719 103.72445312 -24.86132812 102.76953125 C-24.96896484 101.81433594 -25.07660156 100.85914063 -25.1875 99.875 C-25.33155273 98.41900391 -25.33155273 98.41900391 -25.47851562 96.93359375 C-25.57103365 92.4302153 -25.57103365 92.4302153 -27.375 88.625 C-27.66341281 86.34940782 -27.89123795 84.0660893 -28.09375 81.78125 C-28.15655151 81.09695923 -28.21935303 80.41266846 -28.28405762 79.7076416 C-28.55360784 76.76905831 -28.81265556 73.82956919 -29.07275391 70.89013672 C-29.2636687 68.74933286 -29.45982134 66.60905378 -29.65625 64.46875 C-29.77033203 63.18162109 -29.88441406 61.89449219 -30.00195312 60.56835938 C-30.05498309 57.7408215 -30.05498309 57.7408215 -31.375 56.625 C-31.58876514 55.22513525 -31.74522604 53.81638317 -31.875 52.40625 C-31.9575 51.55675781 -32.04 50.70726562 -32.125 49.83203125 C-32.29166667 48.02734375 -32.45833333 46.22265625 -32.625 44.41796875 C-32.7075 43.56847656 -32.79 42.71898437 -32.875 41.84375 C-32.9471875 41.05935547 -33.019375 40.27496094 -33.09375 39.46679688 C-33.19100626 37.61157271 -33.19100626 37.61157271 -34.375 36.625 C-36.84015307 36.52379697 -39.27659592 36.48531212 -41.7421875 36.4921875 C-42.86622482 36.49075241 -42.86622482 36.49075241 -44.01296997 36.48928833 C-45.60858239 36.48860576 -47.20419755 36.49046534 -48.79980469 36.49462891 C-51.20514468 36.49990167 -53.61029145 36.49472588 -56.015625 36.48828125 C-69.57182708 35.3774208 -69.57182708 35.3774208 -81.375 38.625 Z M8.625 36.625 C6.27674287 40.1473857 6.49032586 41.16616867 6.9375 45.25 C7.03675781 46.23226562 7.13601563 47.21453125 7.23828125 48.2265625 C7.37621031 50.57138766 7.37621031 50.57138766 8.625 51.625 C8.92464406 53.69278858 9.16454611 55.7692949 9.37890625 57.84765625 C9.51103516 59.10771484 9.64316406 60.36777344 9.77929688 61.66601562 C9.9154591 63.00650082 10.05152556 64.34699574 10.1875 65.6875 C10.32707106 67.03194293 10.46703986 68.37634463 10.60742188 69.72070312 C10.95054138 73.0217494 11.28954667 76.32316731 11.625 79.625 C12.285 79.625 12.945 79.625 13.625 79.625 C13.60832275 80.20258057 13.59164551 80.78016113 13.57446289 81.37524414 C13.46320177 88.37363757 14.14542589 95.13112589 15.0625 102.0625 C15.19720703 103.13693359 15.33191406 104.21136719 15.47070312 105.31835938 C16.17505545 111.05296054 16.17505545 111.05296054 17.625 116.625 C23.31399078 117.42322806 28.87282831 117.80640509 34.61328125 117.90625 C36.30533863 117.94400664 37.99739592 117.98176717 39.68945312 118.01953125 C42.32720695 118.07332771 44.96498764 118.12553883 47.6027832 118.17724609 C50.16887944 118.22895226 52.73481142 118.28615891 55.30078125 118.34375 C56.09140457 118.35732544 56.88202789 118.37090088 57.6966095 118.3848877 C60.9133241 118.45807751 63.55278704 118.60092901 66.625 119.625 C68.46343305 119.76180171 70.30608561 119.84445959 72.14884949 119.89710999 C73.29729843 119.93214127 74.44574738 119.96717255 75.6289978 120.00326538 C77.52036972 120.0539769 77.52036972 120.0539769 79.44995117 120.10571289 C80.79028961 120.14487744 82.13061637 120.18444313 83.47093201 120.22438049 C87.11102534 120.33170397 90.75125678 120.4334037 94.39153838 120.53411031 C98.19530869 120.64029153 101.99892815 120.75162216 105.80256653 120.8624115 C113.00597305 121.07144099 120.20950362 121.27582517 127.41309005 121.47854942 C135.61383295 121.70956148 143.81442454 121.94573854 152.01500738 122.18235409 C168.88484291 122.66899192 185.75485741 123.14912845 202.625 123.625 C202.625 123.955 202.625 124.285 202.625 124.625 C209.555 124.625 216.485 124.625 223.625 124.625 C223.955 122.315 224.285 120.005 224.625 117.625 C223.449375 117.25375 223.449375 117.25375 222.25 116.875 C219.625 115.625 219.625 115.625 218.75 113.8125 C217.22990315 110.85675613 215.08370441 109.68425513 212.36328125 107.859375 C210.625 106.625 210.625 106.625 208.4375 104.375 C206.43592637 102.44244615 205.25094061 102.25884773 202.625 101.625 C202.295 100.635 201.965 99.645 201.625 98.625 C199.60991642 97.89176204 199.60991642 97.89176204 197.625 97.625 C197.625 96.965 197.625 96.305 197.625 95.625 C196.531875 95.191875 195.43875 94.75875 194.3125 94.3125 C191.44471123 93.09986787 189.82028636 91.82028636 187.625 89.625 C185.01888923 88.90302838 185.01888923 88.90302838 182.625 88.625 C182.625 87.965 182.625 87.305 182.625 86.625 C180.52483377 85.45058465 178.42041245 84.28535988 176.3125 83.125 C175.42014648 82.62419922 175.42014648 82.62419922 174.50976562 82.11328125 C171.66671156 80.55674886 169.91839012 79.625 166.625 79.625 C166.625 78.965 166.625 78.305 166.625 77.625 C163.71899739 76.36835022 161.82895416 75.625 158.625 75.625 C158.625 74.965 158.625 74.305 158.625 73.625 C157.35660474 73.11884702 156.08516898 72.62030901 154.8125 72.125 C154.10480469 71.8465625 153.39710938 71.568125 152.66796875 71.28125 C150.50658784 70.4720838 150.50658784 70.4720838 147.625 70.625 C147.625 69.965 147.625 69.305 147.625 68.625 C136.95628388 63.71667603 136.95628388 63.71667603 125.625 61.625 C125.625 60.965 125.625 60.305 125.625 59.625 C124.92375 59.44324219 124.2225 59.26148438 123.5 59.07421875 C119.07457814 57.90172247 114.73870669 56.74181672 110.5 55 C106.29964477 53.33554388 102.10727954 52.92589377 97.625 52.625 C97.625 51.965 97.625 51.305 97.625 50.625 C92.55023206 49.36194665 87.89703646 48.35463916 82.625 48.625 C82.625 47.965 82.625 47.305 82.625 46.625 C81.47902344 46.43164062 80.33304688 46.23828125 79.15234375 46.0390625 C77.62236117 45.77624341 76.09241518 45.51321121 74.5625 45.25 C73.43424805 45.06050781 73.43424805 45.06050781 72.28320312 44.8671875 C68.79462415 44.26310456 65.46230209 43.57800629 62.0546875 42.59375 C58.32909663 41.54141909 54.64612021 40.95270927 50.8125 40.5 C50.11833984 40.41508301 49.42417969 40.33016602 48.70898438 40.24267578 C43.32646982 39.62171252 38.03532658 39.39089933 32.625 39.625 C32.625 38.965 32.625 38.305 32.625 37.625 C26.42488704 37.00938595 20.23025529 36.52585364 14 36.375 C13.01773437 36.34921875 12.03546875 36.3234375 11.0234375 36.296875 C10.23195313 36.40515625 9.44046875 36.5134375 8.625 36.625 Z " fill="#454545" transform="translate(472.375,389.375)"/>
<path d="M0 0 C1.63485352 -0.01160156 1.63485352 -0.01160156 3.30273438 -0.0234375 C10.73579227 -0.00577129 17.77370623 0.80719515 25.0625 2.25 C25.0625 2.91 25.0625 3.57 25.0625 4.25 C25.67738281 4.38277344 26.29226563 4.51554688 26.92578125 4.65234375 C28.13814453 4.91724609 28.13814453 4.91724609 29.375 5.1875 C30.17550781 5.36152344 30.97601562 5.53554688 31.80078125 5.71484375 C34.0625 6.25 34.0625 6.25 37.0625 7.25 C37.0625 7.91 37.0625 8.57 37.0625 9.25 C39.3725 9.91 41.6825 10.57 44.0625 11.25 C44.0625 11.91 44.0625 12.57 44.0625 13.25 C44.75988281 13.47042969 45.45726562 13.69085937 46.17578125 13.91796875 C49.75877764 15.57128644 52.39358266 17.90380747 55.25 20.5625 C55.78302734 21.03623047 56.31605469 21.50996094 56.86523438 21.99804688 C60.01592412 24.89509619 61.58251789 27.28701472 63.0625 31.25 C64.0525 31.58 65.0425 31.91 66.0625 32.25 C69.67069005 37.53073648 72.26322138 43.51301689 75.0625 49.25 C75.64 50.405 76.2175 51.56 76.8125 52.75 C82.27607329 68.04800522 82.93620943 91.13752787 76.5 106.25 C76.025625 107.24 75.55125 108.23 75.0625 109.25 C74.68941369 110.57276056 74.33203585 111.90232077 74.0625 113.25 C73.4025 113.25 72.7425 113.25 72.0625 113.25 C71.93875 113.806875 71.815 114.36375 71.6875 114.9375 C71.00273145 117.47114364 70.07116237 119.82921032 69.0625 122.25 C68.4025 122.25 67.7425 122.25 67.0625 122.25 C66.7325 123.9 66.4025 125.55 66.0625 127.25 C65.4025 127.25 64.7425 127.25 64.0625 127.25 C63.78921875 127.83910156 63.5159375 128.42820312 63.234375 129.03515625 C58.33108266 138.30237877 49.12245668 144.50818814 40.0625 149.25 C39.4025 149.25 38.7425 149.25 38.0625 149.25 C38.0625 149.91 38.0625 150.57 38.0625 151.25 C36.62695975 151.75559908 35.1889798 152.2542749 33.75 152.75 C32.54923828 153.16765625 32.54923828 153.16765625 31.32421875 153.59375 C29.0625 154.25 29.0625 154.25 26.0625 154.25 C26.0625 154.91 26.0625 155.57 26.0625 156.25 C4.14047884 160.96562043 -16.2624334 160.99076694 -36.9375 151.25 C-36.9375 150.59 -36.9375 149.93 -36.9375 149.25 C-39.2475 148.59 -41.5575 147.93 -43.9375 147.25 C-43.9375 146.59 -43.9375 145.93 -43.9375 145.25 C-44.989375 144.9096875 -44.989375 144.9096875 -46.0625 144.5625 C-52.78584615 141.49314632 -57.32750065 135.85083631 -61.9375 130.25 C-62.46601562 129.60933594 -62.99453125 128.96867188 -63.5390625 128.30859375 C-67.73793841 122.97925125 -72.9375 116.23407902 -72.9375 109.25 C-73.5975 109.25 -74.2575 109.25 -74.9375 109.25 C-75.58927969 107.06426438 -76.23364674 104.8763177 -76.875 102.6875 C-77.23464844 101.46933594 -77.59429688 100.25117187 -77.96484375 98.99609375 C-82.40955228 81.87771832 -79.60136064 65.93570566 -74.9375 49.25 C-74.2775 49.25 -73.6175 49.25 -72.9375 49.25 C-72.793125 48.486875 -72.64875 47.72375 -72.5 46.9375 C-71.9375 44.25 -71.9375 44.25 -70.9375 41.25 C-70.2775 41.25 -69.6175 41.25 -68.9375 41.25 C-68.81375 40.693125 -68.69 40.13625 -68.5625 39.5625 C-67.0678752 34.03238823 -65.10628036 31.22929034 -60.9375 27.25 C-60.03551649 26.12992495 -59.1400496 25.00458137 -58.25 23.875 C-54.53026637 19.4559953 -49.89064467 16.18090755 -44.9375 13.25 C-44.2775 13.25 -43.6175 13.25 -42.9375 13.25 C-42.9375 12.59 -42.9375 11.93 -42.9375 11.25 C-30.45230638 4.54612756 -30.45230638 4.54612756 -23.9375 4.25 C-23.9375 3.59 -23.9375 2.93 -23.9375 2.25 C-15.89369022 0.48283749 -8.22273291 -0.05814543 0 0 Z " fill="#454545" transform="translate(798.9375,602.75)"/>
<path d="M0 0 C1.66869141 -0.01836914 1.66869141 -0.01836914 3.37109375 -0.03710938 C10.8983398 -0.05025358 17.99531608 0.71173044 25.375 2.1875 C25.375 2.8475 25.375 3.5075 25.375 4.1875 C25.98988281 4.32027344 26.60476562 4.45304688 27.23828125 4.58984375 C28.45064453 4.85474609 28.45064453 4.85474609 29.6875 5.125 C30.48800781 5.29902344 31.28851563 5.47304688 32.11328125 5.65234375 C34.375 6.1875 34.375 6.1875 37.375 7.1875 C37.375 7.8475 37.375 8.5075 37.375 9.1875 C39.685 9.8475 41.995 10.5075 44.375 11.1875 C44.375 11.8475 44.375 12.5075 44.375 13.1875 C45.44234375 13.53554688 45.44234375 13.53554688 46.53125 13.890625 C54.03769244 17.31389271 60.4360342 24.6506335 65.375 31.1875 C65.83777344 31.785625 66.30054688 32.38375 66.77734375 33 C70.375 37.78358726 70.375 37.78358726 70.375 41.1875 C71.035 41.1875 71.695 41.1875 72.375 41.1875 C80.59622005 58.06795592 84.42874316 77.84088089 79.375 96.1875 C78.82634009 98.54004666 78.28503657 100.89431765 77.75 103.25 C77.29202908 105.22925056 76.83382227 107.20844662 76.375 109.1875 C75.715 109.1875 75.055 109.1875 74.375 109.1875 C74.230625 109.950625 74.08625 110.71375 73.9375 111.5 C73.375 114.1875 73.375 114.1875 72.375 117.1875 C71.715 117.1875 71.055 117.1875 70.375 117.1875 C70.29507813 117.71601562 70.21515625 118.24453125 70.1328125 118.7890625 C69.08619472 122.10155382 67.22202567 124.74283863 65.25 127.5625 C64.84837646 128.13959717 64.44675293 128.71669434 64.03295898 129.3112793 C60.88932065 133.70938318 57.76202489 137.0539108 53.375 140.1875 C52.715 140.1875 52.055 140.1875 51.375 140.1875 C51.045 141.1775 50.715 142.1675 50.375 143.1875 C48.16015625 144.79296875 48.16015625 144.79296875 45.4375 146.375 C44.54160156 146.90480469 43.64570313 147.43460938 42.72265625 147.98046875 C40.375 149.1875 40.375 149.1875 38.375 149.1875 C38.375 149.8475 38.375 150.5075 38.375 151.1875 C15.80919888 160.2940035 -8.68277817 163.04131855 -31.75 153.5 C-33.38437565 152.74925021 -35.01380185 151.98678065 -36.625 151.1875 C-36.625 150.5275 -36.625 149.8675 -36.625 149.1875 C-37.223125 149.043125 -37.82125 148.89875 -38.4375 148.75 C-42.15498038 147.79407647 -43.96222733 146.85027267 -46.625 144.1875 C-47.25664062 143.89359375 -47.88828125 143.5996875 -48.5390625 143.296875 C-50.82673138 142.08021215 -51.9527065 140.88612706 -53.5625 138.875 C-55.39546997 136.64496349 -57.20103488 134.61146512 -59.25 132.5625 C-61.59163881 130.22086119 -63.67307048 127.86236638 -65.625 125.1875 C-65.625 124.5275 -65.625 123.8675 -65.625 123.1875 C-66.285 123.1875 -66.945 123.1875 -67.625 123.1875 C-74.625 109.8875 -74.625 109.8875 -74.625 104.1875 C-75.285 104.1875 -75.945 104.1875 -76.625 104.1875 C-80.02716009 88.63476814 -80.43559183 70.70205244 -76.625 55.1875 C-75.965 55.1875 -75.305 55.1875 -74.625 55.1875 C-74.521875 54.341875 -74.41875 53.49625 -74.3125 52.625 C-73.0520518 46.32275901 -70.27678668 41.40433811 -66.625 36.1875 C-66.16996094 35.48496094 -65.71492187 34.78242187 -65.24609375 34.05859375 C-59.52231178 25.22633489 -53.81338523 18.62451212 -44.625 13.1875 C-43.965 13.1875 -43.305 13.1875 -42.625 13.1875 C-42.625 12.5275 -42.625 11.8675 -42.625 11.1875 C-40.315 10.5275 -38.005 9.8675 -35.625 9.1875 C-35.625 8.5275 -35.625 7.8675 -35.625 7.1875 C-34.81675781 6.92195312 -34.00851563 6.65640625 -33.17578125 6.3828125 C-32.10714844 6.02960937 -31.03851563 5.67640625 -29.9375 5.3125 C-28.88175781 4.96445312 -27.82601562 4.61640625 -26.73828125 4.2578125 C-24.83878271 3.6047854 -22.95418931 2.90253546 -21.10546875 2.1171875 C-14.32799068 -0.42303263 -7.12630887 0.00404444 0 0 Z " fill="#454545" transform="translate(196.625,602.8125)"/>
</svg>
