<?xml version="1.0" encoding="UTF-8"?>
<svg version="1.1" xmlns="http://www.w3.org/2000/svg" width="1000" height="1000">
<path d="M0 0 C1.20412033 0.30565384 2.40824066 0.61130768 3.64884949 0.92622375 C6.95981388 1.77078588 10.2652124 2.63302402 13.56949615 3.50311279 C17.13413869 4.43690508 20.70482479 5.34701893 24.27490234 6.25976562 C30.35135422 7.81637559 36.42416197 9.38652672 42.49462891 10.96630859 C51.36056656 13.27316609 60.23388492 15.55052676 69.109375 17.8203125 C72.04424871 18.57122044 74.97905746 19.32238177 77.91381836 20.07373047 C78.64714795 20.26147285 79.38047754 20.44921524 80.13602924 20.64264679 C85.38815214 21.98790429 90.63886807 23.33856371 95.88891602 24.69189453 C113.2139803 29.1572548 130.54545354 33.59613039 147.88618851 38.00029373 C151.15906182 38.83169032 154.43177854 39.66370029 157.70443726 40.49594116 C159.31648513 40.90587342 159.31648513 40.90587342 160.96109962 41.32408714 C163.12443354 41.87421888 165.28776236 42.42437065 167.45108604 42.97454262 C173.8395443 44.59882195 180.22901043 46.2190647 186.61917877 47.83660221 C190.59846933 48.84489371 194.57679059 49.85696845 198.55486298 50.87005424 C200.41732181 51.34348956 202.28019591 51.81529451 204.14350128 52.28538704 C206.70141564 52.93091575 209.25783283 53.5820744 211.81396484 54.23461914 C212.56247271 54.42204178 213.31098057 54.60946442 214.08217049 54.80256653 C217.50197942 55.68162058 220.65142381 56.59492139 223.72265625 58.36328125 C223.72265625 59.02328125 223.72265625 59.68328125 223.72265625 60.36328125 C224.71265625 60.69328125 225.70265625 61.02328125 226.72265625 61.36328125 C226.17501702 71.34938029 223.54658311 80.74735757 221.06640625 90.390625 C220.59880794 92.22987432 220.13181753 94.06927829 219.66540527 95.90882874 C218.44254446 100.72444998 217.21087318 105.53777582 215.97747803 110.35070801 C214.9697542 114.28919943 213.96829507 118.22927088 212.96715546 122.16944027 C211.77306762 126.86867704 210.57645847 131.56727001 209.37890625 136.265625 C209.03638069 137.60947927 209.03638069 137.60947927 208.68693542 138.9804821 C208.04197632 141.5080843 207.39534448 144.03525164 206.74804688 146.56225586 C206.55684769 147.31187088 206.3656485 148.0614859 206.1686554 148.83381653 C203.85764012 157.83634666 203.85764012 157.83634666 199.72265625 160.36328125 C195.31262198 161.72589332 192.13179595 160.98425446 187.71020508 159.85058594 C186.67062889 159.5887138 186.67062889 159.5887138 185.61005116 159.32155132 C183.29722605 158.73619535 180.98861036 158.13570436 178.6796875 157.53515625 C177.02996776 157.11432319 175.38000848 156.69442819 173.72982788 156.27540588 C169.26209471 155.13809114 164.79784342 153.98762067 160.33410263 152.83475113 C155.6293871 151.62204103 150.9215836 150.42143771 146.21411133 149.21948242 C137.50720193 146.99442957 128.80304244 144.75882502 120.10005283 142.51849461 C110.80705827 140.1266079 101.51109195 137.74639067 92.21484375 135.3671875 C83.10662369 133.0358665 73.99937154 130.70097592 64.89624023 128.34985352 C61.89701857 127.57550561 58.89774984 126.80134037 55.8984375 126.02734375 C55.16057699 125.83689672 54.42271648 125.6464497 53.66249657 125.45023155 C43.39492706 122.8019428 33.11627354 120.20125618 22.82789612 117.63502502 C17.10246788 116.20684405 11.38006892 114.76669692 5.6583128 113.3238821 C1.02735734 112.15732355 -3.60718788 111.00680492 -8.24515438 109.86846161 C-11.09483647 109.16486455 -13.94042084 108.44570043 -16.7851162 107.72223282 C-18.71597601 107.23616518 -20.65155251 106.76895369 -22.5872345 106.30245972 C-31.50449426 104.01104566 -37.98936933 100.65104078 -43.83984375 93.42578125 C-46.70171892 89.99021221 -49.74345239 86.87882693 -52.9921875 83.80859375 C-54.27734375 82.36328125 -54.27734375 82.36328125 -54.27734375 80.36328125 C-55.59734375 79.70328125 -56.91734375 79.04328125 -58.27734375 78.36328125 C-58.27734375 77.70328125 -58.27734375 77.04328125 -58.27734375 76.36328125 C-59.26734375 76.03328125 -60.25734375 75.70328125 -61.27734375 75.36328125 C-62.49959206 73.90979678 -63.71768735 72.45223648 -64.8984375 70.96484375 C-66.62299153 68.96182066 -68.63686994 67.4006603 -70.6953125 65.75390625 C-73.12172572 63.62105907 -75.11405843 61.15227113 -77.19921875 58.69140625 C-80.21343768 55.31457452 -83.45425878 52.17554418 -86.72143555 49.04443359 C-87.94297341 47.8534502 -89.11485058 46.61196288 -90.27734375 45.36328125 C-90.27734375 44.70328125 -90.27734375 44.04328125 -90.27734375 43.36328125 C-96.20381756 42.34560393 -100.77565421 42.46303737 -106.58984375 43.92578125 C-107.32823486 44.10778076 -108.06662598 44.28978027 -108.82739258 44.47729492 C-117.78191513 46.83333711 -125.29321815 50.50234615 -131.44921875 57.5546875 C-132.65431759 60.18657789 -132.18546335 61.65573949 -131.27734375 64.36328125 C-129.84585811 66.30494742 -129.84585811 66.30494742 -128.02734375 68.05078125 C-119.84121984 77.06056033 -116.71993276 87.9163728 -117.27734375 100.05078125 C-118.54473771 107.81178922 -122.94079342 113.75008054 -129.15234375 118.36328125 C-134.67387553 121.87322049 -139.13687072 123.475441 -145.77734375 123.23828125 C-153.91863458 121.20295854 -158.33983492 118.17494085 -162.9296875 110.9921875 C-164.98157983 106.98951057 -165.400548 103.81916823 -165.27734375 99.36328125 C-165.27347656 97.71779297 -165.27347656 97.71779297 -165.26953125 96.0390625 C-164.99147174 87.46556106 -163.48718014 80.20352462 -157.73828125 73.59375 C-156.27734375 72.36328125 -156.27734375 72.36328125 -154.27734375 72.36328125 C-154.60734375 71.37328125 -154.93734375 70.38328125 -155.27734375 69.36328125 C-167.87524474 69.40055315 -176.51927917 72.46962346 -186.27734375 80.36328125 C-187.25960938 81.01039063 -188.241875 81.6575 -189.25390625 82.32421875 C-205.29401637 93.14196744 -218.42888514 111.30807335 -225.27734375 129.36328125 C-211.10825727 130.05769946 -196.94981064 130.44361489 -182.7668457 130.68896484 C-52.42759839 132.94939375 -52.42759839 132.94939375 -9.27734375 168.36328125 C-8.24738281 169.18183594 -7.21742188 170.00039063 -6.15625 170.84375 C17.96778558 190.33611381 36.2589211 217.43665654 44.72265625 247.36328125 C44.72265625 248.35328125 44.72265625 249.34328125 44.72265625 250.36328125 C45.82222656 250.15832031 46.92179688 249.95335937 48.0546875 249.7421875 C70.60036029 245.5994745 99.77486696 241.37750268 120.72265625 253.36328125 C129.4284381 259.5580452 133.68652341 266.31658205 135.46875 276.78515625 C136.39882807 286.22902592 133.8773378 293.49014051 128.16015625 300.92578125 C117.48153612 312.64297042 100.61278985 317.51628625 85.72265625 321.36328125 C86.50576172 321.92982422 86.50576172 321.92982422 87.3046875 322.5078125 C113.14683524 341.83285118 127.34118436 369.89013843 132.72265625 401.36328125 C134.6823836 415.5055618 134.98653022 429.61560182 134.8828125 443.8671875 C134.87650076 445.88410646 134.87127472 447.90102907 134.86705017 449.91795349 C134.85389407 455.19286007 134.82959749 460.46764564 134.80169678 465.74249268 C134.75309283 475.09651073 134.71921082 484.45057539 134.6953125 493.8046875 C134.69252604 494.83983238 134.68973957 495.87497726 134.68686867 496.94149017 C134.65328774 512.04199382 134.85231359 527.12229718 135.24456406 542.21728325 C135.86751453 566.27329409 136.10294629 590.33265265 136.31729931 614.39533645 C136.37803493 621.20467641 136.44770103 628.01385176 136.52454346 634.82302868 C136.59178233 640.83727054 136.6475232 646.85156466 136.69916725 652.86596298 C136.72241228 655.38645748 136.74911564 657.90692275 136.7794857 660.42734146 C136.82076489 663.92176728 136.8488516 667.41606898 136.8737793 670.91064453 C136.88874954 671.92765442 136.90371979 672.94466431 136.91914368 673.99249268 C136.96484314 684.38786659 135.94404731 692.58082974 128.72265625 700.36328125 C120.39451449 708.69142301 108.70824632 709.48041439 97.57202148 709.50292969 C96.36360596 709.4980957 95.15519043 709.49326172 93.91015625 709.48828125 C92.63148682 709.48344727 91.35281738 709.47861328 90.03540039 709.47363281 C86.41028376 709.45473375 82.78538383 709.42206525 79.16040039 709.3861084 C76.58025971 709.36194784 74.00011032 709.34350362 71.41992188 709.32519531 C66.75810637 709.28904022 62.09704932 709.22848004 57.43569946 709.15374756 C55.60503192 709.12705716 53.77426118 709.10661373 51.94345093 709.09283447 C26.28302939 708.88055347 26.28302939 708.88055347 16.72265625 700.36328125 C15.2109375 698.13671875 15.2109375 698.13671875 14.03515625 695.73828125 C13.44154297 694.57425781 13.44154297 694.57425781 12.8359375 693.38671875 C9.08677018 683.20476962 9.48327222 672.92131821 9.59765625 662.23828125 C9.60770748 660.59766172 9.61682953 658.95703622 9.625 657.31640625 C9.64684076 653.3318816 9.68125195 649.34764866 9.72265625 645.36328125 C8.79070938 645.37874245 7.85876251 645.39420364 6.89857483 645.41013336 C-16.3179239 645.79492828 -39.53456381 646.17019443 -62.75135803 646.53673553 C-73.98111968 646.71422576 -85.21082566 646.89432564 -96.44042969 647.08154297 C-190.78821515 648.65092219 -285.03032468 648.600073 -379.37765789 647.02713633 C-390.65381203 646.83944672 -401.93010884 646.66103603 -413.20641899 646.48300838 C-436.23021943 646.11932639 -459.25383981 645.74524608 -482.27734375 645.36328125 C-482.2616333 646.35545654 -482.24592285 647.34763184 -482.22973633 648.36987305 C-482.17470081 652.1140911 -482.14073128 655.85827487 -482.11254883 659.6027832 C-482.09762741 661.21156868 -482.07728284 662.82031469 -482.05102539 664.42895508 C-481.60839995 692.27964234 -481.60839995 692.27964234 -491.27734375 702.36328125 C-498.5311486 707.61966158 -507.48310248 708.64858306 -516.19140625 708.77734375 C-517.03174408 708.79684586 -517.87208191 708.81634796 -518.73788452 708.83644104 C-521.45927137 708.89669713 -524.18066588 708.94323242 -526.90234375 708.98828125 C-528.78776658 709.02483011 -530.67318324 709.06169796 -532.55859375 709.09887695 C-538.13129996 709.20394968 -543.70419319 709.28600223 -549.27734375 709.36328125 C-550.48142883 709.38131805 -550.48142883 709.38131805 -551.70983887 709.39971924 C-556.56570337 709.47211614 -561.42102856 709.52038663 -566.27734375 709.55078125 C-568.05165771 709.57035889 -568.05165771 709.57035889 -569.86181641 709.59033203 C-581.1924698 709.60188214 -592.66518908 708.40099734 -601.390625 700.43359375 C-609.77134515 691.23735839 -609.44984371 681.08991603 -609.31494141 669.20776367 C-609.30694016 668.12620499 -609.2989389 667.0446463 -609.29069519 665.93031311 C-609.26287773 662.35972619 -609.22729527 658.78926422 -609.19140625 655.21875 C-609.16957152 652.69143494 -609.14812511 650.1641165 -609.12704468 647.63679504 C-609.08154618 642.31991936 -609.03252369 637.00309351 -608.98046875 631.6862793 C-608.91515406 625.01137492 -608.85758821 618.3364255 -608.80232716 611.66142941 C-608.60166838 587.64605386 -608.36075364 563.63730566 -607.734375 539.62890625 C-607.33705325 524.35137171 -607.20854219 509.08731039 -607.25 493.8046875 C-607.25262596 492.77915457 -607.25525192 491.75362164 -607.25795746 490.69701195 C-607.28395028 481.31333045 -607.32365759 471.92972739 -607.37329102 462.54614258 C-607.40037845 457.3147272 -607.41720213 452.08335376 -607.42815971 446.85188103 C-607.43424574 444.90708753 -607.44408543 442.96230103 -607.4582386 441.01754951 C-607.75131631 400.56872747 -600.62593615 362.3488266 -571.5949707 332.38769531 C-567.433754 328.17528158 -563.30085266 324.52155238 -558.27734375 321.36328125 C-559.46328125 321.02296875 -560.64921875 320.68265625 -561.87109375 320.33203125 C-578.01163546 315.55877663 -596.48706468 309.94360448 -605.30859375 294.38671875 C-609.03447776 286.60442877 -608.80479552 278.98330761 -606.55859375 270.71875 C-603.67646788 262.63140542 -599.16342344 256.62335708 -591.52734375 252.55078125 C-580.36166383 247.51095308 -569.01999054 246.16507283 -556.90234375 246.17578125 C-555.94424805 246.17658691 -554.98615234 246.17739258 -553.99902344 246.17822266 C-541.58995342 246.28303593 -529.39108866 247.6279195 -517.27734375 250.36328125 C-517.07109375 249.18765625 -516.86484375 248.01203125 -516.65234375 246.80078125 C-508.99026381 212.92910372 -483.15617532 180.33628444 -454.36035156 161.65771484 C-405.54914047 131.32519712 -344.97534634 131.54076341 -289.32861328 130.7043457 C-279.42480967 130.55050795 -269.56963383 130.30595494 -259.69018555 129.57275391 C-254.21996387 129.23700384 -248.75517402 129.27886263 -243.27734375 129.36328125 C-242.97054688 128.42226563 -242.66375 127.48125 -242.34765625 126.51171875 C-241.48347374 123.96963444 -240.5453084 121.71807274 -239.27734375 119.36328125 C-238.61734375 119.36328125 -237.95734375 119.36328125 -237.27734375 119.36328125 C-236.90609375 118.09097656 -236.90609375 118.09097656 -236.52734375 116.79296875 C-235.16992834 113.06856023 -233.3658461 109.83291182 -231.27734375 106.48828125 C-230.74367188 105.59882813 -230.74367188 105.59882813 -230.19921875 104.69140625 C-229.28464378 103.21034082 -228.28710838 101.78115909 -227.27734375 100.36328125 C-226.61734375 100.36328125 -225.95734375 100.36328125 -225.27734375 100.36328125 C-224.93703125 99.34234375 -224.93703125 99.34234375 -224.58984375 98.30078125 C-222.96508229 94.66441035 -220.94931118 91.33498862 -218.27734375 88.36328125 C-217.61734375 88.36328125 -216.95734375 88.36328125 -216.27734375 88.36328125 C-215.84421875 87.46609375 -215.84421875 87.46609375 -215.40234375 86.55078125 C-214.27734375 84.36328125 -214.27734375 84.36328125 -212.27734375 81.36328125 C-211.61734375 81.36328125 -210.95734375 81.36328125 -210.27734375 81.36328125 C-209.88675781 80.47382813 -209.88675781 80.47382813 -209.48828125 79.56640625 C-203.80373837 69.22420565 -189.03687782 61.93238236 -178.27734375 58.36328125 C-177.11332031 57.95142578 -177.11332031 57.95142578 -175.92578125 57.53125 C-169.8300269 55.51587845 -163.74724339 54.63195028 -157.37890625 53.890625 C-152.68251917 53.0921209 -150.09452187 51.37627453 -146.65234375 48.17578125 C-142.13637229 44.13826773 -137.30732518 40.72738459 -132.27734375 37.36328125 C-131.29121094 36.68265625 -131.29121094 36.68265625 -130.28515625 35.98828125 C-122.63495032 30.90930636 -114.21540646 27.44607238 -105.171875 25.8828125 C-95.66194964 24.17590282 -86.21405985 22.08831955 -77.33203125 18.23046875 C-74.39635329 16.99145638 -71.33900702 16.23804218 -68.27734375 15.36328125 C-66.66743731 14.7318918 -65.06367628 14.08470912 -63.46484375 13.42578125 C-59.32667961 11.73431446 -55.18230537 10.37816906 -50.890625 9.13671875 C-44.70036995 7.30462533 -38.60166023 5.16046417 -32.49609375 3.06640625 C-31.84729248 2.84581543 -31.19849121 2.62522461 -30.5300293 2.39794922 C-28.69074151 1.77258674 -26.85313188 1.14229488 -25.015625 0.51171875 C-23.78199219 0.13273438 -22.54835938 -0.24625 -21.27734375 -0.63671875 C-20.33575912 -0.95468163 -20.33575912 -0.95468163 -19.37515259 -1.27906799 C-12.40753855 -3.28492125 -6.87424307 -1.8436296 0 0 Z M-16.27734375 21.36328125 C-16.60734375 22.35328125 -16.93734375 23.34328125 -17.27734375 24.36328125 C-18.26734375 24.69328125 -19.25734375 25.02328125 -20.27734375 25.36328125 C-22.98819078 30.07159452 -23.04715856 35.31773654 -21.7421875 40.48046875 C-20.2423041 44.82439334 -18.21981153 47.81501128 -15.27734375 51.36328125 C-9.15549501 61.63218881 -9.15549501 61.63218881 -10.27734375 68.36328125 C-17.20734375 67.86828125 -17.20734375 67.86828125 -24.27734375 67.36328125 C-24.27734375 66.70328125 -24.27734375 66.04328125 -24.27734375 65.36328125 C-26.91734375 64.04328125 -29.55734375 62.72328125 -32.27734375 61.36328125 C-32.41011719 62.02714844 -32.54289063 62.69101563 -32.6796875 63.375 C-33.54557292 67.70442708 -34.41145833 72.03385417 -35.27734375 76.36328125 C-32.28969096 77.72570625 -29.28607079 79.04814585 -26.27734375 80.36328125 C-25.643125 80.65976563 -25.00890625 80.95625 -24.35546875 81.26171875 C-17.88479195 84.05461771 -9.96171846 85.4205186 -3.02734375 83.85546875 C0.18276025 82.54098651 3.17087357 80.71092132 5.72265625 78.36328125 C5.72265625 77.70328125 5.72265625 77.04328125 5.72265625 76.36328125 C6.38265625 76.36328125 7.04265625 76.36328125 7.72265625 76.36328125 C9.84606478 71.75711814 11.33598384 67.9169505 9.78515625 62.92578125 C6.61122113 55.12658169 1.71855471 48.17296578 -3.17578125 41.37109375 C-4.27734375 39.36328125 -4.27734375 39.36328125 -4.27734375 35.36328125 C2.96771154 33.78752454 7.24363442 35.00667958 13.72265625 38.36328125 C14.71265625 38.69328125 15.70265625 39.02328125 16.72265625 39.36328125 C17.22958317 37.78215205 17.72792068 36.19826742 18.22265625 34.61328125 C18.50109375 33.7315625 18.77953125 32.84984375 19.06640625 31.94140625 C19.8871091 29.16060596 19.8871091 29.16060596 19.72265625 25.36328125 C8.17199655 18.92440286 -3.79746071 15.45175771 -16.27734375 21.36328125 Z M54.72265625 34.36328125 C51.74590166 37.4565602 51.74590166 37.4565602 50.72265625 41.36328125 C50.06265625 41.36328125 49.40265625 41.36328125 48.72265625 41.36328125 C47.34176392 42.99076149 46.02052018 44.66884778 44.72265625 46.36328125 C43.12382991 48.18939173 41.51397596 50.00465454 39.89453125 51.8125 C38.52169293 53.30526225 38.52169293 53.30526225 38.72265625 55.36328125 C37.73265625 55.69328125 36.74265625 56.02328125 35.72265625 56.36328125 C33.93235791 58.35053868 33.93235791 58.35053868 32.22265625 60.73828125 C30.1847134 63.48235343 28.17323418 65.98420559 25.72265625 68.36328125 C24.69257018 69.52178654 23.67251018 70.68924917 22.66015625 71.86328125 C18.10031513 77.10807705 13.40998989 82.23267863 8.72265625 87.36328125 C9.62500682 89.75296824 9.62500682 89.75296824 12.9609375 90.46875 C14.31669956 90.83801853 15.67492843 91.1983181 17.03515625 91.55078125 C17.71255859 91.74091797 18.38996094 91.93105469 19.08789062 92.12695312 C22.58636732 93.05372456 25.28929124 93.74898384 28.72265625 92.36328125 C28.72265625 91.70328125 28.72265625 91.04328125 28.72265625 90.36328125 C29.38265625 90.36328125 30.04265625 90.36328125 30.72265625 90.36328125 C33.1208593 87.72643378 33.1208593 87.72643378 33.72265625 84.36328125 C34.38265625 84.36328125 35.04265625 84.36328125 35.72265625 84.36328125 C36.05265625 83.04328125 36.38265625 81.72328125 36.72265625 80.36328125 C42.02517857 79.04180625 45.74662296 79.83861122 50.84765625 81.30078125 C54.90006884 82.42727759 58.4677461 83.36328125 62.72265625 83.36328125 C63.21765625 92.76828125 63.21765625 92.76828125 63.72265625 102.36328125 C70.70668348 104.99952825 70.70668348 104.99952825 77.72265625 106.55078125 C78.67140625 106.70933594 79.62015625 106.86789062 80.59765625 107.03125 C81.29890625 107.14082031 82.00015625 107.25039063 82.72265625 107.36328125 C82.32707201 97.97336054 81.84596529 88.63511701 80.72265625 79.30078125 C79.8115049 71.71813472 79.31537304 64.16119558 78.94140625 56.53515625 C78.67353239 51.13303334 78.21896663 45.74877688 77.72265625 40.36328125 C70.18466656 37.63400912 62.57694522 35.93860806 54.72265625 34.36328125 Z M107.72265625 48.36328125 C107.45956665 49.27315796 107.45956665 49.27315796 107.19116211 50.20141602 C103.8413421 61.77223907 100.46103538 73.33337973 96.97265625 84.86328125 C96.69156006 85.79857666 96.41046387 86.73387207 96.12084961 87.69750977 C94.8787415 91.78252563 93.58472795 95.79605767 92.01953125 99.76953125 C90.49636061 103.35360021 90.49636061 103.35360021 90.72265625 107.36328125 C90.06265625 107.36328125 89.40265625 107.36328125 88.72265625 107.36328125 C88.72265625 108.02328125 88.72265625 108.68328125 88.72265625 109.36328125 C94.60889671 110.96204611 100.49872976 112.54651714 106.39233398 114.11791992 C108.39631331 114.65437875 110.39925901 115.1947145 112.40112305 115.73901367 C115.28040176 116.52115463 118.16312174 117.28923277 121.046875 118.0546875 C121.9397673 118.30046036 122.83265961 118.54623322 123.75260925 118.79945374 C124.59310318 119.01975754 125.43359711 119.24006134 126.29956055 119.46704102 C127.03458298 119.66467545 127.76960541 119.86230988 128.52690125 120.06593323 C131.20267812 120.54975033 131.20267812 120.54975033 135.72265625 119.36328125 C136.71265625 115.73328125 137.70265625 112.10328125 138.72265625 108.36328125 C135.88968725 107.57029206 133.0562984 106.77885853 130.22265625 105.98828125 C129.43117188 105.7665625 128.6396875 105.54484375 127.82421875 105.31640625 C122.8080851 103.91846736 117.77992149 102.6043991 112.72265625 101.36328125 C113.16920467 95.44651465 114.62341585 90.58142609 116.734375 85.046875 C118.53669014 80.15284141 119.72265625 75.61787462 119.72265625 70.36328125 C120.38265625 70.36328125 121.04265625 70.36328125 121.72265625 70.36328125 C122.36931288 68.11351773 123.01495148 65.86346158 123.66015625 63.61328125 C124.01980469 62.3603125 124.37945313 61.10734375 124.75 59.81640625 C125.44819774 57.33766406 126.12209351 54.86667963 126.72265625 52.36328125 C124.30756184 51.69041913 121.89085269 51.02482113 119.47265625 50.36328125 C118.44978516 50.07710937 118.44978516 50.07710937 117.40625 49.78515625 C114.01664713 48.86371081 111.26486649 48.36328125 107.72265625 48.36328125 Z M159.72265625 61.36328125 C159.38445459 62.94558185 159.05229686 64.529175 158.72265625 66.11328125 C158.53703125 66.995 158.35140625 67.87671875 158.16015625 68.78515625 C157.6111195 71.5847209 157.6111195 71.5847209 157.72265625 75.36328125 C157.06265625 75.36328125 156.40265625 75.36328125 155.72265625 75.36328125 C155.55660889 76.018125 155.39056152 76.67296875 155.21948242 77.34765625 C154.45434463 80.35406656 153.68230279 83.35866373 152.91015625 86.36328125 C152.64912109 87.39324219 152.38808594 88.42320312 152.11914062 89.484375 C150.79829528 94.60468906 149.38942901 99.58694689 147.45239258 104.50878906 C146.19027355 107.71623509 145.08412321 110.97622437 143.97265625 114.23828125 C143.73933594 114.90085937 143.50601563 115.5634375 143.265625 116.24609375 C142.69298907 117.93314092 142.20100087 119.64711503 141.72265625 121.36328125 C142.51210615 123.50582744 142.51210615 123.50582744 144.44844055 124.02139282 C145.57284798 124.30785172 145.57284798 124.30785172 146.7199707 124.60009766 C147.99182976 124.93021347 147.99182976 124.93021347 149.28938293 125.26699829 C150.21224594 125.49728729 151.13510895 125.72757629 152.0859375 125.96484375 C153.50122993 126.32683365 153.50122993 126.32683365 154.94511414 126.69613647 C156.94573645 127.20594773 158.94738574 127.71174286 160.94995117 128.21386719 C164.01414419 128.98300703 167.07458949 129.76582992 170.13476562 130.55078125 C172.07661507 131.04378815 174.01866612 131.53600176 175.9609375 132.02734375 C177.33612297 132.37884995 177.33612297 132.37884995 178.73908997 132.73745728 C179.59645248 132.95123016 180.453815 133.16500305 181.3371582 133.38525391 C182.4651458 133.66932602 182.4651458 133.66932602 183.61592102 133.95913696 C186.01985971 134.48888067 186.01985971 134.48888067 189.72265625 134.36328125 C190.39323512 132.57307515 191.05900315 130.78106636 191.72265625 128.98828125 C192.09390625 127.99054688 192.46515625 126.9928125 192.84765625 125.96484375 C193.82891902 123.50480064 193.82891902 123.50480064 193.72265625 121.36328125 C189.4743227 120.35611012 185.22373701 119.3587875 180.97265625 118.36328125 C179.76609375 118.07710937 178.55953125 117.7909375 177.31640625 117.49609375 C176.15625 117.22539062 174.99609375 116.9546875 173.80078125 116.67578125 C172.19831543 116.29873047 172.19831543 116.29873047 170.56347656 115.9140625 C167.5504638 115.23639012 167.5504638 115.23639012 163.72265625 115.36328125 C164.71265625 111.07328125 165.70265625 106.78328125 166.72265625 102.36328125 C169.01783203 103.03037109 169.01783203 103.03037109 171.359375 103.7109375 C173.37613678 104.28313503 175.39307313 104.85471754 177.41015625 105.42578125 C178.41755859 105.72033203 179.42496094 106.01488281 180.46289062 106.31835938 C181.43935547 106.59228516 182.41582031 106.86621094 183.421875 107.1484375 C184.31737061 107.4050415 185.21286621 107.66164551 186.13549805 107.92602539 C189.13179345 108.59066694 189.13179345 108.59066694 193.72265625 107.36328125 C195.20765625 101.91828125 195.20765625 101.91828125 196.72265625 96.36328125 C193.86998252 95.54521291 191.0157044 94.73370329 188.16015625 93.92578125 C187.36029297 93.69568359 186.56042969 93.46558594 185.73632812 93.22851562 C181.06567954 91.91310847 176.54338472 90.9262388 171.72265625 90.36328125 C171.93921875 89.74839844 172.15578125 89.13351563 172.37890625 88.5 C172.65734375 87.69175781 172.93578125 86.88351563 173.22265625 86.05078125 C173.50109375 85.25027344 173.77953125 84.44976562 174.06640625 83.625 C174.86198732 81.27558703 174.86198732 81.27558703 174.72265625 78.36328125 C175.31167725 78.53456543 175.90069824 78.70584961 176.50756836 78.88232422 C179.22426752 79.67053687 181.94219578 80.45442947 184.66015625 81.23828125 C185.58634766 81.50769531 186.51253906 81.77710938 187.46679688 82.0546875 C193.18632777 83.70030691 198.89938253 85.13292803 204.72265625 86.36328125 C206.04265625 82.07328125 207.36265625 77.78328125 208.72265625 73.36328125 C202.2277015 71.64962498 195.73151502 69.94075011 189.23413086 68.23632812 C187.02317187 67.65561646 184.81255752 67.07359101 182.60229492 66.49023438 C179.42846555 65.65280486 176.25343384 64.82008086 173.078125 63.98828125 C172.08741501 63.7257959 171.09670502 63.46331055 170.07597351 63.19287109 C169.15524551 62.95262207 168.23451752 62.71237305 167.28588867 62.46484375 C166.47536545 62.25166504 165.66484222 62.03848633 164.82975769 61.81884766 C162.59324588 61.25761997 162.59324588 61.25761997 159.72265625 61.36328125 Z M-147.27734375 78.36328125 C-151.2204953 86.62981681 -150.66360331 94.67777073 -148.06640625 103.24609375 C-147.46130833 105.31786474 -147.46130833 105.31786474 -146.27734375 106.36328125 C-141.65687545 106.62984673 -138.48950189 106.20065368 -134.27734375 104.36328125 C-134.08148191 101.48863215 -133.89540576 98.61389842 -133.71484375 95.73828125 C-133.65876953 94.93003906 -133.60269531 94.12179687 -133.54492188 93.2890625 C-133.14846806 86.78721989 -132.92215558 80.65172402 -137.27734375 75.36328125 C-141.39669463 74.49604949 -144.03836331 75.8246209 -147.27734375 78.36328125 Z M-405.27734375 189.36328125 C-405.94072754 189.54084961 -406.60411133 189.71841797 -407.28759766 189.90136719 C-436.28980666 197.93406985 -454.04436227 218.64072058 -469.27734375 243.36328125 C-469.70547363 244.0505127 -470.13360352 244.73774414 -470.57470703 245.44580078 C-482.87845092 265.28612039 -495.8805701 288.78953492 -498.27734375 312.36328125 C-490.409829 312.52271248 -482.66245523 312.01817544 -474.82421875 311.375 C-472.82407501 311.21701136 -470.82392947 311.05904405 -468.82371902 310.9019022 C-467.4163545 310.7912376 -466.00902411 310.68013819 -464.60172653 310.56862545 C-363.31887412 302.54540616 -261.90236094 302.65933355 -5.82421875 310.73730469 C-4.44293586 310.84591842 -3.06164931 310.95448569 -1.68035889 311.06300354 C0.86579761 311.26412099 3.41168264 311.46872054 5.95721436 311.67759705 C12.56364511 312.20079484 19.09542037 312.49757886 25.72265625 312.36328125 C21.05186934 287.1237834 9.82548495 264.26266313 -3.46484375 242.48828125 C-4.10542725 241.43745361 -4.74601074 240.38662598 -5.40600586 239.30395508 C-9.8579152 232.19259626 -14.85013397 225.75258438 -20.27734375 219.36328125 C-21.27544067 218.14620483 -21.27544067 218.14620483 -22.29370117 216.90454102 C-42.05409068 192.92548505 -72.19614123 186.56266155 -101.60888672 183.54931641 C-194.61692127 174.88671996 -302.19524153 169.37244826 -405.27734375 189.36328125 Z M-556.27734375 402.36328125 C-560.80423364 408.92727159 -559.64505464 418.75714339 -559.88989258 426.4206543 C-559.96429438 428.65925169 -560.05517411 430.8968028 -560.14648438 433.13476562 C-560.56748584 444.87444674 -559.95204571 454.84295958 -552.27734375 464.36328125 C-535.59863318 479.53309393 -515.26490902 482.61544607 -493.80322266 484.97021484 C-473.77029718 487.20349348 -454.22205657 490.31344918 -434.59863281 494.87597656 C-432.34643576 495.43176465 -432.34643576 495.43176465 -430.27734375 495.36328125 C-430.10772959 489.04358319 -430.59508079 483.40060763 -431.96484375 477.23828125 C-432.14490967 476.41497314 -432.32497559 475.59166504 -432.51049805 474.7434082 C-436.86012446 455.52961636 -444.23011704 433.98472398 -461.27734375 422.36328125 C-469.22824278 417.59924563 -478.49494114 416.56070743 -487.47607422 414.97509766 C-498.3132355 413.03930651 -508.84134935 410.48566846 -519.40234375 407.36328125 C-520.52801758 407.03110596 -521.65369141 406.69893066 -522.81347656 406.35668945 C-528.7129771 404.57219141 -534.42169107 402.60723266 -540.07250977 400.14038086 C-545.76370129 398.13450525 -551.57793095 398.37590069 -556.27734375 402.36328125 Z M61.34765625 402.42578125 C45.37941526 408.70057303 28.61043806 412.66451641 11.72265625 415.55078125 C-3.59606936 418.17268458 -14.75329387 422.59239618 -24.27734375 435.36328125 C-33.57069831 449.0179908 -38.01774126 464.34943925 -41.27734375 480.36328125 C-41.47714844 481.33007812 -41.67695312 482.296875 -41.8828125 483.29296875 C-42.40143915 487.32901376 -42.35860098 491.30041985 -42.27734375 495.36328125 C-41.65093994 495.23276367 -41.02453613 495.10224609 -40.37915039 494.96777344 C-19.43193563 490.62823253 1.41679502 486.89241089 22.72265625 484.86328125 C42.16638158 482.98237035 58.1241551 479.07685927 74.72265625 468.36328125 C75.63015625 467.78578125 76.53765625 467.20828125 77.47265625 466.61328125 C84.38517477 459.70076273 87.57103722 451.3780363 87.81518555 441.69262695 C87.79940171 438.15225105 87.69188279 434.61721161 87.55615234 431.07958984 C87.47284801 428.86837121 87.41092139 426.65728967 87.3515625 424.4453125 C87.5991459 412.37747853 87.5991459 412.37747853 83.33886719 401.69726562 C77.03639094 396.49534264 67.98624281 399.62504704 61.34765625 402.42578125 Z M-305.6796875 414.28515625 C-306.55821884 414.32650507 -307.43675018 414.36785389 -308.34190369 414.4104557 C-324.04665655 415.16797119 -339.67127629 416.41345664 -355.27734375 418.36328125 C-356.21368652 418.47784668 -357.1500293 418.59241211 -358.11474609 418.71044922 C-372.86169914 420.22041567 -372.86169914 420.22041567 -384.7265625 428.13671875 C-391.0551683 438.66218945 -389.58099465 455.69735685 -387.27734375 467.36328125 C-383.23368596 481.66867437 -373.84119713 500.98737899 -361.27734375 509.36328125 C-359.14007513 509.80558262 -359.14007513 509.80558262 -356.7734375 509.95703125 C-355.87995605 510.03050781 -354.98647461 510.10398437 -354.06591797 510.1796875 C-316.85529215 512.62955535 -279.36152449 512.53787064 -242.08886719 512.49365234 C-237.24663395 512.48795584 -232.40445576 512.49135245 -227.56222439 512.49709702 C-192.15938946 512.53251103 -156.63484015 512.3670758 -121.27734375 510.36328125 C-120.38031738 510.32589844 -119.48329102 510.28851562 -118.55908203 510.25 C-113.23662374 509.91299914 -110.09390178 509.40229803 -106.27734375 505.36328125 C-92.02731413 489.06656873 -84.16331646 470.18430634 -83.96484375 448.55078125 C-83.92133789 446.9874707 -83.92133789 446.9874707 -83.87695312 445.39257812 C-83.82210164 438.67116117 -84.52790434 433.083688 -88.27734375 427.36328125 C-101.32649447 414.92483757 -131.78811379 416.42384357 -148.58984375 415.23828125 C-150.18421265 415.12504517 -150.18421265 415.12504517 -151.81079102 415.00952148 C-155.63153266 414.76104302 -159.45338289 414.55396503 -163.27734375 414.36328125 C-164.12133728 414.31984589 -164.96533081 414.27641052 -165.8348999 414.23165894 C-186.96850641 413.1857679 -208.10479939 413.17572558 -229.25878906 413.17797852 C-233.24255979 413.17805919 -237.22621408 413.17119303 -241.20996094 413.1574707 C-262.72348982 413.08462167 -284.18704812 413.26681661 -305.6796875 414.28515625 Z M-336.27734375 567.36328125 C-336.93734375 577.59328125 -337.59734375 587.82328125 -338.27734375 598.36328125 C-327.61702377 598.49576011 -316.95668588 598.62649373 -306.29631042 598.75443268 C-301.34238391 598.81395045 -296.38846767 598.87413485 -291.43457031 598.93603516 C-253.6823678 599.40670602 -215.96573372 599.37144071 -178.21374512 598.89971924 C-173.23756604 598.83796952 -168.26136001 598.77847119 -163.28515625 598.71875 C-153.61585839 598.60239021 -143.9465951 598.48344381 -134.27734375 598.36328125 C-134.93734375 588.13328125 -135.59734375 577.90328125 -136.27734375 567.36328125 C-202.27734375 567.36328125 -268.27734375 567.36328125 -336.27734375 567.36328125 Z " fill="#FFFFFF" transform="translate(737.27734375,163.63671875)"/>
<path d="M0 0 C0.167338 2.95829678 0.33390052 5.91663365 0.5 8.875 C0.54769531 9.71675781 0.59539063 10.55851563 0.64453125 11.42578125 C0.68964844 12.23144531 0.73476563 13.03710938 0.78125 13.8671875 C0.8440918 14.98262939 0.8440918 14.98262939 0.90820312 16.12060547 C0.9713071 17.41255875 1 18.70650651 1 20 C-0.75029762 19.68917128 -2.50022694 19.37626821 -4.25 19.0625 C-5.71179688 18.80146484 -5.71179688 18.80146484 -7.203125 18.53515625 C-9.49721795 18.09620271 -11.74291971 17.59651408 -14 17 C-12.7580393 13.56072421 -11.44259716 10.74792181 -9 8 C-8.34 8 -7.68 8 -7 8 C-6.731875 7.236875 -6.46375 6.47375 -6.1875 5.6875 C-4.80876015 2.56719402 -3.66285015 0 0 0 Z " fill="#FFFFFF" transform="translate(800,214)"/>
</svg>
