<?xml version="1.0" encoding="UTF-8"?>
<svg version="1.1" xmlns="http://www.w3.org/2000/svg" width="1000" height="1000">
<path d="M0 0 C2.57948682 0.0053658 5.15879961 0.00001298 7.73828125 -0.00634766 C16.62178029 -0.00990244 25.40959716 0.26145254 34.27490234 0.88525391 C42.41251285 1.39975438 50.578851 1.39546287 58.72955322 1.51797485 C186.20161381 3.52758645 186.20161381 3.52758645 229.58203125 39.13037109 C230.61199219 39.94892578 231.64195312 40.76748047 232.703125 41.61083984 C256.82716058 61.10320366 275.1182961 88.20374639 283.58203125 118.13037109 C283.58203125 119.12037109 283.58203125 120.11037109 283.58203125 121.13037109 C284.68160156 120.92541016 285.78117188 120.72044922 286.9140625 120.50927734 C309.45973529 116.36656434 338.63424196 112.14459253 359.58203125 124.13037109 C368.2878131 130.32513504 372.54589841 137.0836719 374.328125 147.55224609 C375.25820307 156.99611576 372.7367128 164.25723035 367.01953125 171.69287109 C356.34091112 183.41006027 339.47216485 188.28337609 324.58203125 192.13037109 C325.10410156 192.50806641 325.62617187 192.88576172 326.1640625 193.27490234 C352.00621024 212.59994102 366.20055936 240.65722827 371.58203125 272.13037109 C373.5417586 286.27265164 373.84590522 300.38269166 373.7421875 314.63427734 C373.73587576 316.65119631 373.73064972 318.66811892 373.72642517 320.68504333 C373.71326907 325.95994991 373.68897249 331.23473548 373.66107178 336.50958252 C373.61246783 345.86360057 373.57858582 355.21766523 373.5546875 364.57177734 C373.55190104 365.60692223 373.54911457 366.64206711 373.54624367 367.70858002 C373.51266274 382.80908367 373.71168859 397.88938702 374.10393906 412.98437309 C374.72688953 437.04038394 374.96232129 461.09974249 375.17667431 485.16242629 C375.23740993 491.97176625 375.30707603 498.7809416 375.38391846 505.59011853 C375.45115733 511.60436038 375.5068982 517.6186545 375.55854225 523.63305283 C375.58178728 526.15354732 375.60849064 528.67401259 375.6388607 531.1944313 C375.68013989 534.68885712 375.7082266 538.18315883 375.7331543 541.67773438 C375.74812454 542.69474426 375.76309479 543.71175415 375.77851868 544.75958252 C375.82421814 555.15495643 374.80342231 563.34791958 367.58203125 571.13037109 C359.25388949 579.45851285 347.56762132 580.24750424 336.43139648 580.27001953 C335.22298096 580.26518555 334.01456543 580.26035156 332.76953125 580.25537109 C331.49086182 580.25053711 330.21219238 580.24570312 328.89477539 580.24072266 C325.26965876 580.2218236 321.64475883 580.18915509 318.01977539 580.15319824 C315.43963471 580.12903769 312.85948532 580.11059346 310.27929688 580.09228516 C305.61748137 580.05613006 300.95642432 579.99556988 296.29507446 579.9208374 C294.46440692 579.894147 292.63363618 579.87370357 290.80282593 579.85992432 C265.14240439 579.64764332 265.14240439 579.64764332 255.58203125 571.13037109 C254.0703125 568.90380859 254.0703125 568.90380859 252.89453125 566.50537109 C252.30091797 565.34134766 252.30091797 565.34134766 251.6953125 564.15380859 C247.94614518 553.97185946 248.34264722 543.68840806 248.45703125 533.00537109 C248.46708248 531.36475156 248.47620453 529.72412607 248.484375 528.08349609 C248.50621576 524.09897144 248.54062695 520.11473851 248.58203125 516.13037109 C247.65008438 516.14583229 246.71813751 516.16129349 245.75794983 516.17722321 C222.5414511 516.56201812 199.32481119 516.93728428 176.10801697 517.30382538 C164.87825532 517.4813156 153.64854934 517.66141548 142.41894531 517.84863281 C48.07115985 519.41801203 -46.17094968 519.36716284 -140.51828289 517.79422617 C-151.79443703 517.60653657 -163.07073384 517.42812587 -174.34704399 517.25009823 C-197.37084443 516.88641623 -220.39446481 516.51233592 -243.41796875 516.13037109 C-243.4022583 517.12254639 -243.38654785 518.11472168 -243.37036133 519.13696289 C-243.31532581 522.88118095 -243.28135628 526.62536471 -243.25317383 530.36987305 C-243.23825241 531.97865852 -243.21790784 533.58740454 -243.19165039 535.19604492 C-242.74902495 563.04673218 -242.74902495 563.04673218 -252.41796875 573.13037109 C-259.6717736 578.38675142 -268.62372748 579.4156729 -277.33203125 579.54443359 C-278.17236908 579.5639357 -279.01270691 579.58343781 -279.87850952 579.60353088 C-282.59989637 579.66378697 -285.32129088 579.71032226 -288.04296875 579.75537109 C-289.92839158 579.79191996 -291.81380824 579.8287878 -293.69921875 579.8659668 C-299.27192496 579.97103952 -304.84481819 580.05309207 -310.41796875 580.13037109 C-311.62205383 580.1484079 -311.62205383 580.1484079 -312.85046387 580.16680908 C-317.70632837 580.23920598 -322.56165356 580.28747648 -327.41796875 580.31787109 C-329.19228271 580.33744873 -329.19228271 580.33744873 -331.00244141 580.35742188 C-342.3330948 580.36897198 -353.80581408 579.16808719 -362.53125 571.20068359 C-370.91197015 562.00444823 -370.59046871 551.85700587 -370.45556641 539.97485352 C-370.44756516 538.89329483 -370.4395639 537.81173615 -370.43132019 536.69740295 C-370.40350273 533.12681603 -370.36792027 529.55635407 -370.33203125 525.98583984 C-370.31019652 523.45852479 -370.28875011 520.93120635 -370.26766968 518.40388489 C-370.22217118 513.0870092 -370.17314869 507.77018335 -370.12109375 502.45336914 C-370.05577906 495.77846477 -369.99821321 489.10351535 -369.94295216 482.42851925 C-369.74229338 458.4131437 -369.50137864 434.4043955 -368.875 410.39599609 C-368.47767825 395.11846156 -368.34916719 379.85440023 -368.390625 364.57177734 C-368.39325096 363.54624441 -368.39587692 362.52071148 -368.39858246 361.46410179 C-368.42457528 352.08042029 -368.46428259 342.69681723 -368.51391602 333.31323242 C-368.54100345 328.08181705 -368.55782713 322.8504436 -368.56878471 317.61897087 C-368.57487074 315.67417738 -368.58471043 313.72939087 -368.5988636 311.78463936 C-368.89194131 271.33581731 -361.76656115 233.11591645 -332.7355957 203.15478516 C-328.574379 198.94237143 -324.44147766 195.28864223 -319.41796875 192.13037109 C-320.60390625 191.79005859 -321.78984375 191.44974609 -323.01171875 191.09912109 C-339.15226046 186.32586647 -357.62768968 180.71069432 -366.44921875 165.15380859 C-370.17510276 157.37151861 -369.94542052 149.75039745 -367.69921875 141.48583984 C-364.81709288 133.39849527 -360.30404844 127.39044693 -352.66796875 123.31787109 C-341.50228883 118.27804292 -330.16061554 116.93216267 -318.04296875 116.94287109 C-317.08487305 116.94367676 -316.12677734 116.94448242 -315.13964844 116.9453125 C-302.73057842 117.05012578 -290.53171366 118.39500934 -278.41796875 121.13037109 C-278.21171875 119.95474609 -278.00546875 118.77912109 -277.79296875 117.56787109 C-270.13088881 83.69619356 -244.29680032 51.10337428 -215.50097656 32.42480469 C-166.68976547 2.09228696 -106.11597134 2.30785326 -50.46923828 1.47143555 C-42.03373941 1.34031578 -33.62823767 1.20311763 -25.2109375 0.61083984 C-16.8030386 0.0258251 -8.42418101 -0.02077283 0 0 Z M-166.41796875 60.13037109 C-167.08135254 60.30793945 -167.74473633 60.48550781 -168.42822266 60.66845703 C-197.43043166 68.7011597 -215.18498727 89.40781042 -230.41796875 114.13037109 C-230.84609863 114.81760254 -231.27422852 115.50483398 -231.71533203 116.21289062 C-244.01907592 136.05321023 -257.0211951 159.55662476 -259.41796875 183.13037109 C-251.550454 183.28980233 -243.80308023 182.78526528 -235.96484375 182.14208984 C-233.96470001 181.9841012 -231.96455447 181.82613389 -229.96434402 181.66899204 C-228.5569795 181.55832745 -227.14964911 181.44722804 -225.74235153 181.33571529 C-124.45949912 173.31249601 -23.04298594 173.42642339 233.03515625 181.50439453 C234.41643914 181.61300826 235.79772569 181.72157554 237.17901611 181.83009338 C239.72517261 182.03121083 242.27105764 182.23581038 244.81658936 182.44468689 C251.42302011 182.96788468 257.95479537 183.2646687 264.58203125 183.13037109 C259.91124434 157.89087324 248.68485995 135.02975297 235.39453125 113.25537109 C234.75394775 112.20454346 234.11336426 111.15371582 233.45336914 110.07104492 C229.0014598 102.95968611 224.00924103 96.51967422 218.58203125 90.13037109 C217.58393433 88.91329468 217.58393433 88.91329468 216.56567383 87.67163086 C196.80528432 63.6925749 166.66323377 57.32975139 137.25048828 54.31640625 C44.24245373 45.6538098 -63.33586653 40.13953811 -166.41796875 60.13037109 Z M-317.41796875 273.13037109 C-321.94485864 279.69436143 -320.78567964 289.52423323 -321.03051758 297.18774414 C-321.10491938 299.42634153 -321.19579911 301.66389264 -321.28710938 303.90185547 C-321.70811084 315.64153659 -321.09267071 325.61004942 -313.41796875 335.13037109 C-296.73925818 350.30018377 -276.40553402 353.38253591 -254.94384766 355.73730469 C-234.91092218 357.97058332 -215.36268157 361.08053903 -195.73925781 365.64306641 C-193.48706076 366.19885449 -193.48706076 366.19885449 -191.41796875 366.13037109 C-191.24835459 359.81067303 -191.73570579 354.16769747 -193.10546875 348.00537109 C-193.28553467 347.18206299 -193.46560059 346.35875488 -193.65112305 345.51049805 C-198.00074946 326.29670621 -205.37074204 304.75181382 -222.41796875 293.13037109 C-230.36886778 288.36633548 -239.63556614 287.32779727 -248.61669922 285.7421875 C-259.4538605 283.80639636 -269.98197435 281.25275831 -280.54296875 278.13037109 C-281.66864258 277.7981958 -282.79431641 277.46602051 -283.95410156 277.1237793 C-289.8536021 275.33928125 -295.56231607 273.37432251 -301.21313477 270.9074707 C-306.90432629 268.90159509 -312.71855595 269.14299054 -317.41796875 273.13037109 Z M300.20703125 273.19287109 C284.23879026 279.46766288 267.46981306 283.43160625 250.58203125 286.31787109 C235.26330564 288.93977443 224.10608113 293.35948603 214.58203125 306.13037109 C205.28867669 319.78508064 200.84163374 335.1165291 197.58203125 351.13037109 C197.38222656 352.09716797 197.18242188 353.06396484 196.9765625 354.06005859 C196.45793585 358.0961036 196.50077402 362.06750969 196.58203125 366.13037109 C197.20843506 365.99985352 197.83483887 365.86933594 198.48022461 365.73486328 C219.42743937 361.39532237 240.27617002 357.65950073 261.58203125 355.63037109 C281.02575658 353.74946019 296.9835301 349.84394911 313.58203125 339.13037109 C314.48953125 338.55287109 315.39703125 337.97537109 316.33203125 337.38037109 C323.24454977 330.46785258 326.43041222 322.14512614 326.67456055 312.4597168 C326.65877671 308.9193409 326.55125779 305.38430146 326.41552734 301.84667969 C326.33222301 299.63546105 326.27029639 297.42437951 326.2109375 295.21240234 C326.4585209 283.14456837 326.4585209 283.14456837 322.19824219 272.46435547 C315.89576594 267.26243248 306.84561781 270.39213688 300.20703125 273.19287109 Z M-66.8203125 285.05224609 C-67.69884384 285.09359491 -68.57737518 285.13494373 -69.48252869 285.17754555 C-85.18728155 285.93506103 -100.81190129 287.18054649 -116.41796875 289.13037109 C-117.35431152 289.24493652 -118.2906543 289.35950195 -119.25537109 289.47753906 C-134.00232414 290.98750552 -134.00232414 290.98750552 -145.8671875 298.90380859 C-152.1957933 309.42927929 -150.72161965 326.46444669 -148.41796875 338.13037109 C-144.37431096 352.43576421 -134.98182213 371.75446884 -122.41796875 380.13037109 C-120.28070013 380.57267246 -120.28070013 380.57267246 -117.9140625 380.72412109 C-117.02058105 380.79759766 -116.12709961 380.87107422 -115.20654297 380.94677734 C-77.99591715 383.3966452 -40.50214949 383.30496048 -3.22949219 383.26074219 C1.61274105 383.25504568 6.45491924 383.25844229 11.29715061 383.26418686 C46.69998554 383.29960087 82.22453485 383.13416564 117.58203125 381.13037109 C118.47905762 381.09298828 119.37608398 381.05560547 120.30029297 381.01708984 C125.62275126 380.68008899 128.76547322 380.16938788 132.58203125 376.13037109 C146.83206087 359.83365858 154.69605854 340.95139618 154.89453125 319.31787109 C154.93803711 317.75456055 154.93803711 317.75456055 154.98242188 316.15966797 C155.03727336 309.43825101 154.33147066 303.85077784 150.58203125 298.13037109 C137.53288053 285.69192741 107.07126121 287.19093341 90.26953125 286.00537109 C88.67516235 285.89213501 88.67516235 285.89213501 87.04858398 285.77661133 C83.22784234 285.52813286 79.40599211 285.32105488 75.58203125 285.13037109 C74.73803772 285.08693573 73.89404419 285.04350037 73.0244751 284.99874878 C51.89086859 283.95285774 30.75457561 283.94281542 9.60058594 283.94506836 C5.61681521 283.94514904 1.63316092 283.93828287 -2.35058594 283.92456055 C-23.86411482 283.85171151 -45.32767312 284.03390645 -66.8203125 285.05224609 Z M-97.41796875 438.13037109 C-98.07796875 448.36037109 -98.73796875 458.59037109 -99.41796875 469.13037109 C-88.75764877 469.26284995 -78.09731088 469.39358357 -67.43693542 469.52152252 C-62.48300891 469.58104029 -57.52909267 469.64122469 -52.57519531 469.703125 C-14.8229928 470.17379586 22.89364128 470.13853056 60.64562988 469.66680908 C65.62180896 469.60505936 70.59801499 469.54556103 75.57421875 469.48583984 C85.24351661 469.36948006 94.9127799 469.25053366 104.58203125 469.13037109 C103.92203125 458.90037109 103.26203125 448.67037109 102.58203125 438.13037109 C36.58203125 438.13037109 -29.41796875 438.13037109 -97.41796875 438.13037109 Z " fill="#FFFFFF" transform="translate(498.41796875,292.86962890625)"/>
<path d="M0 0 C0.33 0 0.66 0 1 0 C1.13462646 0.91773193 1.13462646 0.91773193 1.27197266 1.85400391 C6.27398996 39.93309659 6.27398996 39.93309659 24.67578125 72.640625 C26 74 26 74 26 76 C26.58265625 76.27457031 27.1653125 76.54914063 27.765625 76.83203125 C29.93537307 77.96621774 31.77515048 79.24585985 33.75 80.6875 C53.10973265 93.57303634 76.39514636 96.50766203 99 99 C99 99.33 99 99.66 99 100 C97.87694458 100.09704224 97.87694458 100.09704224 96.73120117 100.19604492 C71.23197751 102.47084357 42.75003261 105.09890297 25 126 C7.43961824 150.36632854 4.121678 183.83637191 3 213 C2.34 213.33 1.68 213.66 1 214 C0.94054199 213.09797852 0.94054199 213.09797852 0.87988281 212.17773438 C-2.0530436 165.64344591 -2.0530436 165.64344591 -23 125 C-46.20860173 105.21071344 -81.89622608 102.28264894 -111 100 C-110.505 99.01 -110.505 99.01 -110 98 C-107.4375 97.50097656 -107.4375 97.50097656 -104 97.140625 C-102.7322876 96.99778076 -101.4645752 96.85493652 -100.15844727 96.70776367 C-99.48049103 96.63383392 -98.80253479 96.55990417 -98.10403442 96.48373413 C-58.82521012 92.28062496 -58.82521012 92.28062496 -26.70703125 71.3828125 C-11.04983365 51.60806042 -5.55407483 27.52465522 -1.46142578 3.16699219 C-1 1 -1 1 0 0 Z " fill="#FFFFFF" transform="translate(238,85)"/>
<path d="M0 0 C0.99 0 1.98 0 3 0 C3.11480713 0.76852295 3.22961426 1.5370459 3.34790039 2.32885742 C8.44785073 39.38500444 8.44785073 39.38500444 28.78125 69.51171875 C42.33484036 79.44233015 58.20951325 82.36078802 74.39477539 85.046875 C75.08608047 85.16383224 75.77738556 85.28078949 76.48963928 85.40129089 C78.39782202 85.72115348 80.3082418 86.02758569 82.21875 86.33325195 C83.1365625 86.55327881 84.054375 86.77330566 85 87 C85.33 87.66 85.66 88.32 86 89 C84.73893433 89.14248169 84.73893433 89.14248169 83.45239258 89.2878418 C80.26537773 89.65633971 77.08069349 90.04040655 73.89672852 90.43432617 C72.53123739 90.60019408 71.16502404 90.76024394 69.7980957 90.91381836 C60.27625711 91.98892114 51.81812023 94.09029586 43 98 C42.05286133 98.41709229 41.10572266 98.83418457 40.12988281 99.26391602 C27.64942602 104.94150087 20.14180179 114.76271633 15.06835938 127.30273438 C9.66805684 142.08956728 7.03777124 157.44101727 5 173 C3.68 172.67 2.36 172.34 1 172 C0.84966309 171.11441406 0.69932617 170.22882813 0.54443359 169.31640625 C-3.22535935 146.09836815 -3.22535935 146.09836815 -11 124 C-11.33644531 123.195625 -11.67289062 122.39125 -12.01953125 121.5625 C-16.45220855 111.60312292 -24.22811909 105.02813534 -34.27832031 101.11230469 C-50.36137485 95.21168345 -66.21055454 91.79718067 -83.25 90.4375 C-86.00619182 90.21727083 -88.76103022 89.98538604 -91.515625 89.74609375 C-93.31435059 89.60192017 -93.31435059 89.60192017 -95.14941406 89.45483398 C-98 89 -98 89 -100 87 C-93.2343161 85.94678382 -86.46656328 84.92070394 -79.6875 83.95703125 C-51.5480965 80.64952425 -51.5480965 80.64952425 -27.42578125 67.28515625 C-26 66 -26 66 -24 66 C-23.63261719 65.19369141 -23.63261719 65.19369141 -23.2578125 64.37109375 C-21.69378307 61.42275256 -19.78145167 58.80260911 -17.875 56.0625 C-6.77532729 39.24700397 -2.70047269 19.66363611 0 0 Z " fill="#FFFFFF" transform="translate(116,230)"/>
<path d="M0 0 C0.66 0 1.32 0 2 0 C2 2.31 2 4.62 2 7 C1.01 7.495 1.01 7.495 0 8 C0 5.36 0 2.72 0 0 Z " fill="#FFFFFF" transform="translate(118,412)"/>
<path d="" fill="#FFFFFF" transform="translate(0,0)"/>
</svg>
