<?xml version="1.0" encoding="UTF-8"?>
<svg version="1.1" xmlns="http://www.w3.org/2000/svg" width="1000" height="1000">
<path d="M0 0 C0.79132855 -0.00465992 1.58265711 -0.00931984 2.39796531 -0.01412097 C5.04195309 -0.02604436 7.68542447 -0.01668589 10.32941628 -0.00736332 C12.24722913 -0.0115374 14.16503952 -0.01701532 16.08284533 -0.02368313 C21.34724546 -0.03814672 26.61148916 -0.03389011 31.87589788 -0.02651632 C37.55563486 -0.02178923 43.23533777 -0.03429045 48.91506386 -0.04453373 C60.04000818 -0.06173613 71.16489605 -0.06255873 82.28985022 -0.05732083 C91.331819 -0.05328053 100.37377108 -0.05472102 109.41573906 -0.06006908 C110.70231089 -0.06081751 111.98888272 -0.06156593 113.31444157 -0.06233703 C115.92805699 -0.0638685 118.54167241 -0.06540684 121.15528782 -0.066952 C138.70546659 -0.07678182 156.25563658 -0.0809434 173.80581665 -0.07332611 C174.83504121 -0.07288035 174.83504121 -0.07288035 175.88505819 -0.07242559 C181.45692384 -0.0699767 187.02878941 -0.06736509 192.60065498 -0.06474145 C214.33283205 -0.05463976 236.06493186 -0.06299342 257.79709816 -0.086236 C282.2199539 -0.11231408 306.64275543 -0.12510552 331.06562674 -0.11804825 C343.99463908 -0.11455369 356.92358797 -0.11680374 369.85259056 -0.13429928 C380.85893643 -0.14900826 391.86517417 -0.1496737 402.87151788 -0.13222837 C408.48691896 -0.12370528 414.10212676 -0.12160092 419.71751785 -0.13687992 C424.85955715 -0.15069775 430.00123707 -0.14600103 435.14325543 -0.12664068 C437.00186189 -0.12287147 438.86049693 -0.12582913 440.71907799 -0.13625234 C453.860654 -0.20470247 464.98897962 0.81701418 474.90647316 10.44281673 C480.71060804 19.53596137 481.36068637 28.60059967 481.2826786 39.14664364 C481.28657809 40.61688337 481.2922237 42.08711932 481.2994495 43.55734646 C481.3141283 47.57053537 481.30406857 51.58332886 481.28971279 55.59650469 C481.27856409 59.93457159 481.29055818 64.27258479 481.29955482 68.61064816 C481.31346072 77.09658495 481.30595175 85.58237256 481.29087924 94.0683022 C481.27399465 103.95139697 481.27723228 113.83445485 481.28097332 123.71755959 C481.28684656 141.34768845 481.27269887 158.97774578 481.24802589 176.6078558 C481.22408481 193.71693251 481.21703082 210.82591377 481.22751808 227.93500423 C481.23892238 246.57353399 481.24086508 265.21201965 481.22641999 283.85054886 C481.22489415 285.83691318 481.22337379 287.82327751 481.22185898 289.80964184 C481.22110116 290.78695256 481.22034335 291.76426328 481.21956257 292.77118947 C481.21481769 299.66191022 481.21667247 306.55261127 481.22092438 313.44333172 C481.22584616 321.83483511 481.21988787 330.22624821 481.20003008 338.6177309 C481.19014672 342.89988364 481.18506434 347.18189875 481.19292259 351.46405888 C481.19996547 355.38194863 481.19320773 359.29956031 481.17531896 363.21741332 C481.17126558 364.6364051 481.17228924 366.05542211 481.17883783 367.47440456 C481.18696619 369.40014009 481.1748994 371.3259294 481.16178989 373.25163746 C481.1602462 374.85745396 481.1602462 374.85745396 481.15867132 376.49571121 C480.71023028 379.9251434 479.98589125 381.71062619 477.78147316 384.38031673 C473.07920705 386.67764402 468.36789755 386.66534823 463.23285007 386.64037895 C462.38154978 386.64418462 461.53024948 386.64799029 460.6531522 386.65191129 C457.79327136 386.66223868 454.93358858 386.65831878 452.07369423 386.6544714 C450.0055524 386.65892314 447.93741229 386.66423697 445.86927468 386.67034012 C440.18028225 386.68453751 434.49134442 386.68618309 428.80233681 386.68574321 C422.66935348 386.68738982 416.53639274 386.70045316 410.4034214 386.711936 C397.69049585 386.73360487 384.97759326 386.74219265 372.26465354 386.746971 C371.57384426 386.74723218 370.88303497 386.74749335 370.17129207 386.74776244 C369.47910648 386.74802272 368.78692089 386.74828299 368.07375998 386.74855115 C360.40374367 386.75163327 352.73373081 386.7581378 345.06371689 386.76476383 C321.90277303 386.78440841 298.74183289 386.80081555 275.58088017 386.80364037 C274.84018936 386.80373443 274.09949856 386.80382849 273.33636258 386.8039254 C270.33463312 386.80430388 267.33290366 386.80466788 264.3311742 386.80502838 C262.07185002 386.8053001 259.81252585 386.80557678 257.55320168 386.80585384 C256.43335406 386.80598588 256.43335406 386.80598588 255.29088326 386.80612058 C231.82034302 386.80902762 208.34988505 386.83113938 184.87937355 386.86737728 C158.51737612 386.90807844 132.15543475 386.93179873 105.79340416 386.93209988 C102.98407399 386.9321967 100.17474383 386.93236343 97.36541367 386.93257999 C96.67367139 386.93262411 95.98192912 386.93266822 95.26922496 386.93271367 C84.125526 386.93383467 72.98190934 386.95125955 61.83823691 386.97439931 C50.64574127 386.99720998 39.45335573 387.00106251 28.26083546 386.98685002 C22.19439528 386.97965458 16.12824101 386.98065188 10.06183243 387.00326061 C4.51345425 387.02374141 -1.03441621 387.02135268 -6.58278822 387.00038577 C-8.59480133 386.99686998 -10.60685027 387.00188831 -12.61881632 387.01609021 C-15.34508329 387.03410092 -18.06953513 387.02157163 -20.7957449 387.0011425 C-21.58467181 387.01370587 -22.37359872 387.02626925 -23.18643251 387.03921333 C-27.05720432 386.97673077 -29.03937135 386.50968492 -32.2061491 384.22295457 C-34.55343555 380.9072325 -34.84242999 379.30342441 -34.83935261 375.27728558 C-34.85054125 374.04324198 -34.86172989 372.80919839 -34.87325758 371.53775954 C-34.86037489 370.1712891 -34.8470248 368.80482299 -34.83325768 367.43836117 C-34.83687041 365.98439875 -34.84267368 364.5304404 -34.85047966 363.07649446 C-34.86555293 359.08018116 -34.84939847 355.08450768 -34.82817304 351.08824468 C-34.81070891 346.77862852 -34.82205774 342.46907684 -34.82983971 338.15944576 C-34.84052177 329.71541707 -34.82454658 321.27163739 -34.79970144 312.82764664 C-34.77178931 302.9939503 -34.77042851 293.16030458 -34.77025843 283.32657519 C-34.76907047 265.77754117 -34.74408292 248.22862156 -34.70558739 230.67963314 C-34.66826385 213.65390303 -34.64699355 196.62825613 -34.64406395 179.6024847 C-34.64388114 178.55447751 -34.64369833 177.50647032 -34.64350998 176.42670533 C-34.64333101 175.38050642 -34.64315204 174.3343075 -34.64296764 173.25640559 C-34.64260222 171.14990123 -34.64222985 169.04339687 -34.64185047 166.93689251 C-34.64166496 165.89801808 -34.64147944 164.85914366 -34.64128831 163.78878818 C-34.63771545 147.56295498 -34.61926057 131.3371346 -34.59935723 115.11131446 C-34.59233973 109.23226126 -34.58755406 103.3532111 -34.58439588 97.47415462 C-34.57934109 88.14484949 -34.5678824 78.81560223 -34.54309558 69.48632684 C-34.53189152 65.22400278 -34.52375817 60.96173535 -34.52422905 56.69939518 C-34.52453827 52.79467512 -34.51555854 48.89008886 -34.49926103 44.98540381 C-34.49495704 43.57558374 -34.49396462 42.16574868 -34.49668711 40.75592467 C-34.51443857 30.04944493 -34.04635644 21.51058311 -28.21852684 12.38031673 C-27.55852684 12.38031673 -26.89852684 12.38031673 -26.21852684 12.38031673 C-25.96329247 11.7731683 -25.70805809 11.16601986 -25.44508934 10.54047298 C-24.06588093 8.11148492 -22.96409461 7.24865744 -20.59352684 5.81781673 C-19.96188622 5.42465267 -19.33024559 5.03148861 -18.67946434 4.62641048 C-12.37384915 1.43356724 -7.06911156 -0.06595509 0 0 Z " fill="#444444" transform="translate(57.21852684020996,158.61968326568604)"/>
<path d="M0 0 C0.92667984 -0.00136459 1.85335968 -0.00272919 2.80812073 -0.00413513 C5.87211544 -0.00618098 8.93601491 0.00021044 12 0.0078125 C13.57115067 0.00964035 13.57115067 0.00964035 15.17404175 0.01150513 C30.30745698 0.03208854 45.43349018 0.20544799 60.5625 0.5703125 C61.38999756 0.58987 62.21749512 0.60942749 63.07006836 0.62957764 C71.25060497 0.82839026 79.42354546 1.09235147 87.59640598 1.5019989 C98.53642503 2.04368694 109.45881446 2.31050497 120.41114998 2.39317322 C123.26034897 2.41482385 126.10946044 2.44176288 128.95860291 2.46984863 C136.0165847 2.53846048 143.07463021 2.59896056 150.13269043 2.65887451 C156.14818519 2.71017759 162.16362668 2.76504713 168.17904472 2.82469177 C170.96000874 2.8508555 173.74097949 2.8718942 176.52198792 2.8927002 C210.1231642 3.19219455 210.1231642 3.19219455 224 13.1328125 C224.825 13.6896875 225.65 14.2465625 226.5 14.8203125 C226.995 15.2534375 227.49 15.6865625 228 16.1328125 C228 16.7928125 228 17.4528125 228 18.1328125 C228.58265625 18.36613281 229.1653125 18.59945312 229.765625 18.83984375 C232.56247353 20.4582998 233.84151574 22.20568906 235.75 24.8203125 C236.12068604 25.32506104 236.49137207 25.82980957 236.87329102 26.34985352 C241.72037562 33.01399838 246.35517117 39.83314966 251.03930664 46.61206055 C256.14360401 53.9738311 261.46476229 61.09190348 267 68.1328125 C272 74.62483983 272 74.62483983 272 78.1328125 C272.99 78.4628125 273.98 78.7928125 275 79.1328125 C276.21875 80.671875 276.21875 80.671875 277.5 82.7578125 C280.7961437 87.91735402 284.39271358 92.81442337 288.04101562 97.72705078 C290.80569065 101.46211494 293.43706233 105.25453457 296 109.1328125 C296.5775 109.8753125 297.155 110.6178125 297.75 111.3828125 C299 113.1328125 299 113.1328125 299 115.1328125 C299.66 115.1328125 300.32 115.1328125 301 115.1328125 C302.26004539 116.80985133 303.43129522 118.55380483 304.5625 120.3203125 C305.62984375 121.96580078 305.62984375 121.96580078 306.71875 123.64453125 C307.09257813 124.22122559 307.46640625 124.79791992 307.8515625 125.39208984 C309.69269742 128.18275566 311.6341021 130.90201616 313.5625 133.6328125 C323.73953511 148.29243414 330.40576463 162.6508513 333.45703125 180.21875 C333.8473255 183.05730574 333.8473255 183.05730574 335 185.1328125 C336.29130208 193.5707889 336.16670245 202.04578945 336.18945312 210.56054688 C336.19740671 212.21540533 336.20579553 213.87026174 336.21458435 215.52511597 C336.2325587 219.07231547 336.2476027 222.61951073 336.26036072 226.16673279 C336.28065792 231.77138164 336.30829491 237.37597979 336.33703613 242.98059082 C336.40207093 255.87751071 336.45774762 268.77446769 336.51302338 281.6714325 C336.56384657 293.51671709 336.61664163 305.36198294 336.67754889 317.20722055 C336.70594368 322.7841487 336.72952091 328.36107055 336.74947357 333.93803501 C336.76281693 337.39500887 336.78022982 340.8519533 336.79878426 344.30890274 C336.80656807 345.91781499 336.8126254 347.52673661 336.81687737 349.13566208 C336.82288449 351.32222214 336.83491234 353.50866642 336.84851074 355.69519043 C336.85366447 356.92146904 336.85881821 358.14774765 336.86412811 359.41118622 C336.69060615 362.0470754 336.69060615 362.0470754 338 363.1328125 C341.30832367 363.30276063 344.60957107 363.42992902 347.921875 363.47460938 C352.89332616 363.67109136 355.5519476 364.52512805 359 368.1328125 C361.66298273 371.99395969 361.42174375 376.36432563 361.5546875 380.88671875 C361.59796677 382.17085915 361.59796677 382.17085915 361.64212036 383.48094177 C361.69913442 385.29386321 361.75091801 387.10695561 361.79785156 388.92016602 C361.87408046 391.66223512 361.98311764 394.40171089 362.09375 397.14257812 C362.75455285 417.18228201 362.75455285 417.18228201 358 423.1328125 C350.52308247 428.55472232 342.07599864 427.64295729 333.25 427.5234375 C331.62476297 427.5159669 329.99951687 427.51027784 328.37426758 427.50628662 C324.11947274 427.49109455 319.86523366 427.45186942 315.61065674 427.4074707 C311.26004553 427.36637826 306.90934355 427.34824593 302.55859375 427.328125 C294.03880891 427.28536784 285.51947381 427.21719593 277 427.1328125 C274.95354428 422.46471483 273.38341608 418.11306578 272.1875 413.1328125 C268.60514514 399.08329206 262.74995999 386.51415842 254.5625 374.5078125 C253 372.1328125 253 372.1328125 253 370.1328125 C252.01 369.8028125 251.02 369.4728125 250 369.1328125 C249.67 368.1428125 249.34 367.1528125 249 366.1328125 C247.37439731 364.42606957 245.7015905 362.76380769 244 361.1328125 C243.23300781 360.33101562 242.46601562 359.52921875 241.67578125 358.703125 C235.79823648 352.62156628 229.63060484 346.94811492 222 343.1328125 C222 342.4728125 222 341.8128125 222 341.1328125 C221.29875 340.8646875 220.5975 340.5965625 219.875 340.3203125 C216.8333567 339.06398157 213.94307583 337.60435042 211 336.1328125 C208.67817779 335.10297201 206.3420122 334.11645762 204 333.1328125 C204 332.4728125 204 331.8128125 204 331.1328125 C202.906875 331.0090625 201.81375 330.8853125 200.6875 330.7578125 C197 330.1328125 197 330.1328125 194 328.1328125 C190.74206805 326.86547033 187.38181056 326.00719698 184 325.1328125 C182.91074219 324.84921875 181.82148437 324.565625 180.69921875 324.2734375 C150.28601361 317.46499031 121.03221804 323.68241023 94 338.1328125 C92.92363281 338.64328125 91.84726562 339.15375 90.73828125 339.6796875 C87.90186062 340.84539266 87.90186062 340.84539266 87 343.1328125 C84.4375 343.7578125 84.4375 343.7578125 82 344.1328125 C82 344.7928125 82 345.4528125 82 346.1328125 C80.00715862 347.4768218 78.00580329 348.80822542 76 350.1328125 C74.28769752 351.75255809 72.62836738 353.4287071 71 355.1328125 C70.34128906 355.75929688 69.68257812 356.38578125 69.00390625 357.03125 C52.81341717 372.5763643 36.15077968 397.75130658 35.50390625 421.125 C34.76940725 424.05160841 33.29540273 425.22071676 31 427.1328125 C28.61165738 427.62960649 28.61165738 427.62960649 25.90068436 427.62500381 C24.86511847 427.63296801 23.82955258 427.6409322 22.76260591 427.64913774 C21.62642752 427.63748637 20.49024914 427.625835 19.31964111 427.61383057 C18.11157547 427.61724827 16.90350982 427.62066597 15.65883613 427.62418723 C12.30406165 427.62964292 8.95021763 427.61712022 5.59555554 427.59707499 C1.9786869 427.57981898 -1.63815244 427.58564537 -5.25505066 427.58868408 C-11.52200903 427.59078263 -17.78880096 427.57822085 -24.05571747 427.55573273 C-33.11662453 427.52323983 -42.17745102 427.5128085 -51.23841003 427.50778076 C-65.93877081 427.49902384 -80.63904287 427.47239752 -95.33935547 427.43457031 C-109.62027543 427.39786048 -123.9011713 427.36954369 -138.18212891 427.35253906 C-139.50229811 427.35096272 -139.50229811 427.35096272 -140.8491374 427.34935454 C-145.26435573 427.34413443 -149.67957423 427.33907959 -154.09479284 427.33410692 C-190.72992455 427.29263254 -227.36495537 427.22217332 -264 427.1328125 C-264.65284951 425.57138728 -265.29858594 424.00698705 -265.94140625 422.44140625 C-266.30177979 421.57056396 -266.66215332 420.69972168 -267.03344727 419.80249023 C-267.95666257 417.25251312 -268.50915597 414.86755309 -268.9375 412.1953125 C-269.96376817 406.36757537 -272.44004135 401.42503471 -275 396.1328125 C-275.474375 394.9778125 -275.94875 393.8228125 -276.4375 392.6328125 C-280.20489367 384.19385068 -284.79545181 376.74466485 -290.4609375 369.4453125 C-292 367.1328125 -292 367.1328125 -292 364.1328125 C-291.17591099 364.13077771 -291.17591099 364.13077771 -290.33517373 364.12870181 C-257.80165724 364.04811947 -225.26818859 363.95719287 -192.73474038 363.85276089 C-188.8317868 363.84024144 -184.92883294 363.82780875 -181.02587891 363.81542969 C-180.24884369 363.81296369 -179.47180847 363.8104977 -178.67122672 363.80795698 C-166.07579608 363.76819131 -153.48035643 363.73546086 -140.88489951 363.70531268 C-127.96882094 363.67424114 -115.05278077 363.63565031 -102.13674533 363.59002244 C-94.16150555 363.5620874 -86.18629398 363.54007622 -78.21101831 363.52554999 C-72.10416667 363.51379997 -65.99739941 363.49160808 -59.89059067 363.46542931 C-57.37907672 363.45632019 -54.86754769 363.4506556 -52.35601807 363.44859886 C-48.94094241 363.44529977 -45.52613589 363.42988665 -42.1111145 363.4112854 C-41.10529363 363.41322013 -40.09947275 363.41515487 -39.06317246 363.41714823 C-38.15350751 363.40968274 -37.24384257 363.40221725 -36.30661201 363.39452553 C-35.12302375 363.39110804 -35.12302375 363.39110804 -33.9155246 363.38762152 C-31.76044701 363.29838766 -31.76044701 363.29838766 -30 361.1328125 C-29.68425106 358.44419171 -29.68425106 358.44419171 -29.7215271 355.24021912 C-29.71036362 353.97802237 -29.69920013 352.71582561 -29.68769836 351.41538048 C-29.68533035 350.0027507 -29.68315526 348.59012058 -29.68115234 347.17749023 C-29.67184475 345.68842848 -29.66167485 344.19937191 -29.65071106 342.71032143 C-29.6231406 338.61209708 -29.60813998 334.51390781 -29.59528303 330.41561437 C-29.57948284 326.02121497 -29.55262144 321.62688133 -29.5272522 317.23252869 C-29.47967262 308.66117758 -29.44323961 300.0898123 -29.41057932 291.51839274 C-29.38382938 284.57589719 -29.35219731 277.63343861 -29.31738281 270.690979 C-29.09936715 227.08701977 -28.96866165 183.48343025 -28.9765625 139.87890625 C-28.97669452 138.9887418 -28.97682654 138.09857734 -28.97696257 137.18143821 C-28.97985879 119.33888075 -28.99198607 101.49636784 -29.0274868 83.65384388 C-29.03817958 78.2119054 -29.04572234 72.76996382 -29.05241501 67.32801908 C-29.05797879 63.069329 -29.06804882 58.81068455 -29.08202517 54.55201417 C-29.0912375 51.35938904 -29.09389416 48.16675658 -29.09765625 44.97412109 C-29.10281942 43.86990027 -29.1079826 42.76567945 -29.11330223 41.6279974 C-29.11501945 17.10033519 -29.11501945 17.10033519 -21.75 8.5078125 C-14.68532059 2.40649846 -9.29494026 -0.0207976 0 0 Z M23.0625 59.5078125 C18.58322039 65.20871383 17.55739532 69.69426406 17.61181641 76.72094727 C17.60655945 77.5623526 17.60130249 78.40375793 17.59588623 79.2706604 C17.58273353 82.03870466 17.59140667 84.80616913 17.6015625 87.57421875 C17.59954059 89.5042278 17.59662818 91.43423611 17.59286499 93.36424255 C17.58844821 97.40330297 17.59485264 101.44216398 17.60888672 105.48120117 C17.62598966 110.65524675 17.61612626 115.82882582 17.59816933 121.00285435 C17.58732386 124.98601287 17.59078115 128.96906096 17.5985527 132.95222282 C17.600552 134.85998528 17.59810493 136.7677578 17.59111404 138.6755085 C17.58348578 141.34196637 17.59512241 144.00767046 17.61181641 146.67407227 C17.60574371 147.46018387 17.59967102 148.24629547 17.59341431 149.05622864 C17.65787498 154.62056597 18.93611054 157.72494147 22.5 161.8828125 C26.31689179 165.06355566 31.26478384 164.28097404 35.94491577 164.27998352 C36.8709176 164.28366021 37.79691943 164.2873369 38.75098193 164.291125 C41.86703387 164.30217551 44.98305248 164.30600796 48.09912109 164.30981445 C50.32787686 164.31607794 52.55663157 164.32272464 54.78538513 164.32972717 C60.84939576 164.34714455 66.91339851 164.35769042 72.97742796 164.3659327 C76.7633716 164.37108006 80.54931277 164.37715584 84.33525467 164.38344383 C94.81640223 164.40031226 105.29754865 164.41494834 115.7787075 164.42219257 C118.4979795 164.42410247 121.21725148 164.4260228 123.93652344 164.42797852 C124.61238493 164.42846226 125.28824643 164.428946 125.98458858 164.4294444 C136.93860134 164.43774874 147.89250505 164.46309375 158.84647016 164.49555919 C170.09134216 164.52861539 181.33616074 164.54630703 192.58108771 164.54983681 C198.89532161 164.5521917 205.20938304 164.56120946 211.52357101 164.58629799 C217.46120315 164.60950946 223.39854839 164.61383981 229.33621407 164.60353661 C231.51752868 164.60303949 233.69885709 164.6094114 235.88012886 164.62309265 C238.85413892 164.64070513 241.82710738 164.63375778 244.80111694 164.62055969 C245.66775164 164.63152894 246.53438634 164.64249818 247.42728269 164.65379983 C251.4588985 164.61049324 253.52166357 164.42424038 257.04029274 162.28050518 C259.23378833 160.25092304 259.23378833 160.25092304 259.55419922 157.28198242 C258.86073704 153.34146762 257.39489315 151.04334302 255.1328125 147.74609375 C254.73802704 147.16240524 254.34324158 146.57871674 253.93649292 145.9773407 C252.67879693 144.12420664 251.40244991 142.28486928 250.125 140.4453125 C249.273466 139.19813423 248.42319188 137.95009477 247.57421875 136.70117188 C246.01693556 134.41414108 244.45128307 132.13379906 242.87939453 129.85668945 C241.57042987 127.9595579 240.27852037 126.05059305 239 124.1328125 C238.34 124.1328125 237.68 124.1328125 237 124.1328125 C236.896875 123.3490625 236.79375 122.5653125 236.6875 121.7578125 C236.22404978 118.80236069 236.22404978 118.80236069 233 117.1328125 C232.03784901 115.47393148 231.08111742 113.81135118 230.16796875 112.125 C228.91726946 109.99170022 227.51114298 108.08930492 226 106.1328125 C223.76914424 103.23048025 221.93466003 100.29694656 220.171875 97.08203125 C218.11151153 93.65496002 215.65347035 90.50929197 213.27734375 87.296875 C210.73209608 83.76059607 208.33262505 80.14635065 205.9375 76.5078125 C204.67202784 74.61221888 203.40293086 72.71913564 202.13134766 70.82763672 C201.14968064 69.35704275 200.1882058 67.87300826 199.23046875 66.38671875 C194.84246329 60.05560625 189.31900315 56.51851784 182 54.1328125 C174.2324759 52.91805397 166.38004895 52.97309171 158.5390625 52.95581055 C157.22717957 52.94923935 155.91529663 52.94266815 154.56365967 52.93589783 C150.25078511 52.91506286 145.93791098 52.9045218 141.625 52.89453125 C140.13128645 52.89047738 138.63757307 52.88636029 137.14385986 52.88218117 C130.12902609 52.86318265 123.11420255 52.84893499 116.09934807 52.8405692 C108.03299269 52.83078635 99.96691092 52.80441723 91.90065193 52.76406831 C85.6413202 52.73384267 79.38206675 52.71909465 73.1226635 52.71578819 C69.39441577 52.71344717 65.66646218 52.70460952 61.93829346 52.67932701 C57.77900067 52.65156862 53.62031722 52.65589704 49.4609375 52.6628418 C48.24090027 52.65003174 47.02086304 52.63722168 45.76385498 52.62402344 C37.10592738 52.67659253 29.9186629 53.96453186 23.0625 59.5078125 Z M18 188.1328125 C16.78312234 192.06976963 16.57884587 194.1353422 18.1875 197.9453125 C20.19528815 200.3685051 21.0639757 201.06755283 24 202.1328125 C26.93619577 202.3375491 29.7747931 202.43688282 32.7109375 202.43359375 C33.55669342 202.43787888 34.40244934 202.442164 35.27383423 202.44657898 C37.06080227 202.45231443 38.84779365 202.45282832 40.63476562 202.44848633 C43.35848185 202.44533163 46.0811059 202.46877635 48.8046875 202.49414062 C50.54426947 202.49641434 52.28385435 202.49711678 54.0234375 202.49609375 C54.83299896 202.5053035 55.64256042 202.51451324 56.47665405 202.52400208 C61.3744861 202.48424997 64.77395222 201.87680601 69 199.1328125 C71.24004999 195.77273752 71.11758489 194.10239239 70.875 190.16796875 C69.43458546 186.81771885 67.15991272 185.84596796 64 184.1328125 C60.95090164 183.57045976 57.96923054 183.57120025 54.875 183.6015625 C54.00987793 183.5977356 53.14475586 183.59390869 52.25341797 183.58996582 C50.43130321 183.58725385 48.60914904 183.59456484 46.78710938 183.61132812 C44.00822631 183.63274909 41.23192827 183.61150328 38.453125 183.5859375 C36.67707766 183.5885809 34.90103193 183.59370615 33.125 183.6015625 C32.29983887 183.59346558 31.47467773 183.58536865 30.62451172 183.57702637 C25.32733721 183.66254399 22.1387525 184.51545214 18 188.1328125 Z " fill="#444444" transform="translate(613,221.8671875)"/>
<path d="M0 0 C1.97709961 -0.00483398 1.97709961 -0.00483398 3.99414062 -0.00976562 C10.35203278 0.02553817 15.57665039 0.46881427 21.6875 2.3125 C22.904375 2.395 24.12125 2.4775 25.375 2.5625 C31.38771522 3.22413083 36.45156288 6.47885596 41.6875 9.3125 C43.10482422 10.02986328 43.10482422 10.02986328 44.55078125 10.76171875 C66.8562645 22.27727941 81.75596359 42.18611528 90.0625 65.5 C97.3294811 89.2623851 94.32008014 116.35351592 82.76904297 138.16479492 C81.08155317 141.20520769 79.25132636 143.93044986 76.99609375 146.5625 C74.53786806 149.14844651 74.53786806 149.14844651 73.6875 152.3125 C72.07404429 154.08209659 70.43966089 155.6857825 68.6875 157.3125 C67.99527344 157.97507812 67.30304688 158.63765625 66.58984375 159.3203125 C53.64869579 171.39871726 39.0728227 180.38678197 21.6875 184.3125 C20.57503906 184.65667969 19.46257812 185.00085938 18.31640625 185.35546875 C12.21976029 186.88527528 5.99332957 186.56286341 -0.25 186.5 C-1.49330078 186.49935547 -2.73660156 186.49871094 -4.01757812 186.49804688 C-13.17199948 186.45300052 -13.17199948 186.45300052 -14.3125 185.3125 C-15.95582122 185.0851995 -17.60245812 184.88186022 -19.25 184.6875 C-32.85404224 182.47968408 -44.621542 176.89712687 -55.3125 168.3125 C-56.77623047 167.36310547 -56.77623047 167.36310547 -58.26953125 166.39453125 C-66.94652289 160.45764223 -73.75276632 152.14676355 -79.3125 143.3125 C-79.85777344 142.45398438 -80.40304688 141.59546875 -80.96484375 140.7109375 C-91.28170606 124.01225082 -93.25131329 107.53952381 -93.3125 88.3125 C-93.31652832 87.60641602 -93.32055664 86.90033203 -93.32470703 86.17285156 C-93.23309533 65.38238465 -83.25243576 46.96427048 -70.3125 31.3125 C-69.69632813 30.54292969 -69.08015625 29.77335938 -68.4453125 28.98046875 C-64.74019608 24.45506536 -64.74019608 24.45506536 -61.3125 23.3125 C-60.8175 21.8275 -60.8175 21.8275 -60.3125 20.3125 C-58.00897312 18.59685237 -55.75058275 17.06419697 -53.3125 15.5625 C-52.60061523 15.12220459 -51.88873047 14.68190918 -51.15527344 14.22827148 C-46.11601467 11.2013009 -40.99179321 8.62477581 -35.5625 6.375 C-34.91539062 6.10526367 -34.26828125 5.83552734 -33.6015625 5.55761719 C-22.43050997 1.15706811 -11.9767906 -0.14859542 0 0 Z M-33.59375 68.03125 C-39.2162337 75.49381928 -43.06099778 85.70830381 -42.671875 95.14453125 C-40.78031284 106.55558557 -35.42223151 117.37733225 -27.125 125.4375 C-18.51329101 131.17863932 -11.76122882 134.51737704 -1.3125 134.3125 C-1.3125 133.6525 -1.3125 132.9925 -1.3125 132.3125 C-0.2296875 132.5290625 -0.2296875 132.5290625 0.875 132.75 C2.2671875 133.0284375 2.2671875 133.0284375 3.6875 133.3125 C4.491875 133.539375 5.29625 133.76625 6.125 134 C13.98930948 134.95906213 22.48333041 128.60187343 28.375 123.9921875 C35.47494246 117.68464933 41.10845523 107.06169395 41.92578125 97.53515625 C42.24141109 84.09596979 38.7830065 73.3544525 29.6875 63.3125 C20.36728716 54.70194804 10.11176158 50.67997141 -2.609375 51 C-15.4978829 52.49000091 -25.3527917 58.22058535 -33.59375 68.03125 Z " fill="#444444" transform="translate(226.3125,572.6875)"/>
<path d="M0 0 C2.14798923 0.02928293 4.293541 0.02048089 6.44165039 0.00756836 C14.16701238 0.0197272 21.03470096 0.69194616 28.31860352 3.46655273 C29.27250977 3.75916992 30.22641602 4.05178711 31.20922852 4.35327148 C51.40512481 11.20783893 68.97786752 25.49255607 80.31860352 43.46655273 C80.92704102 44.41530273 81.53547852 45.36405273 82.16235352 46.34155273 C95.16223594 67.49390379 97.15405243 92.71604158 91.77172852 116.5769043 C88.66331388 129.53979724 82.72503544 141.13516973 74.31860352 151.46655273 C73.57610352 152.45655273 72.83360352 153.44655273 72.06860352 154.46655273 C71.49110352 155.12655273 70.91360352 155.78655273 70.31860352 156.46655273 C69.65860352 156.46655273 68.99860352 156.46655273 68.31860352 156.46655273 C67.65860352 157.78655273 66.99860352 159.10655273 66.31860352 160.46655273 C65.65860352 160.46655273 64.99860352 160.46655273 64.31860352 160.46655273 C64.08399414 161.04920898 63.84938477 161.63186523 63.60766602 162.23217773 C58.38128368 171.29124046 44.45546274 176.23339858 35.31860352 180.46655273 C33.74852539 181.23032227 33.74852539 181.23032227 32.14672852 182.00952148 C22.29899342 186.10846604 12.06006507 186.99469488 1.50610352 186.90405273 C0.28358887 186.89792969 -0.93892578 186.89180664 -2.19848633 186.88549805 C-11.6005664 186.72341471 -19.80917595 185.60812045 -28.68139648 182.46655273 C-30.06391602 181.99862305 -30.06391602 181.99862305 -31.47436523 181.52124023 C-33.94391122 180.60999691 -36.30182426 179.59079137 -38.68139648 178.46655273 C-39.52573242 178.07081055 -40.37006836 177.67506836 -41.23999023 177.26733398 C-47.07318134 174.31264066 -52.22346731 170.71891505 -57.36889648 166.71655273 C-57.99376953 166.2324292 -58.61864258 165.74830566 -59.26245117 165.24951172 C-60.77749513 164.03938627 -62.23542757 162.75842569 -63.68139648 161.46655273 C-63.68139648 160.80655273 -63.68139648 160.14655273 -63.68139648 159.46655273 C-64.27436523 159.20487305 -64.86733398 158.94319336 -65.47827148 158.67358398 C-78.34221794 151.62578353 -85.7044249 131.85663594 -90.10327148 118.63452148 C-91.49877545 113.40138161 -91.86969575 108.2156127 -91.95483398 102.82202148 C-91.97349014 101.73728294 -91.97349014 101.73728294 -91.99252319 100.63063049 C-92.44547877 68.04905969 -92.44547877 68.04905969 -83.65698242 53.22827148 C-82.49984506 51.21691964 -82.49984506 51.21691964 -81.21264648 47.91967773 C-72.88850108 29.14788045 -53.48210049 14.24865939 -35.05639648 6.40405273 C-23.24569815 1.99163228 -12.55401687 -0.18642433 0 0 Z M-26.68139648 61.46655273 C-27.35686523 62.00151367 -28.03233398 62.53647461 -28.72827148 63.08764648 C-33.84766266 67.64915529 -36.28250908 73.13664181 -38.68139648 79.46655273 C-39.01397461 80.30573242 -39.34655273 81.14491211 -39.68920898 82.00952148 C-43.34363209 92.36372028 -41.1094831 102.64775197 -36.68139648 112.46655273 C-32.12554939 120.43139396 -26.65361732 125.95998243 -18.68139648 130.46655273 C-17.9350293 130.89967773 -17.18866211 131.33280273 -16.41967773 131.77905273 C-7.52179104 136.12980209 4.21808161 135.82591137 13.69360352 133.40405273 C23.08480011 129.964347 31.31659268 124.27555476 36.31860352 115.46655273 C36.31860352 114.47655273 36.31860352 113.48655273 36.31860352 112.46655273 C36.97860352 112.46655273 37.63860352 112.46655273 38.31860352 112.46655273 C43.02035994 101.19493131 44.37821389 90.28906462 40.25610352 78.59155273 C34.99317234 66.48978443 26.48408321 58.45102011 14.31860352 53.46655273 C-0.21962597 47.91805292 -14.76172878 51.91865565 -26.68139648 61.46655273 Z " fill="#444444" transform="translate(766.681396484375,572.533447265625)"/>
<path d="M0 0 C0.86099304 -0.00137466 1.72198608 -0.00274933 2.60906982 -0.00416565 C3.5556546 -0.00057037 4.50223938 0.0030249 5.47750854 0.00672913 C6.47266479 0.0065831 7.46782104 0.00643707 8.49313354 0.00628662 C11.79377395 0.0069852 15.09435843 0.01477508 18.39498901 0.02259827 C20.67899545 0.02446264 22.96300229 0.02588645 25.24700928 0.02688599 C31.26729429 0.03070965 37.2875553 0.04053866 43.30783081 0.05158997 C49.44755732 0.06180733 55.5872877 0.06638431 61.72702026 0.07142639 C73.78041625 0.08216104 85.83379439 0.09923566 97.88717651 0.12025452 C97.13985585 4.50187491 95.79708633 7.04638078 93.19967651 10.68275452 C83.87210485 24.29101532 78.15224517 39.27058888 73.88717651 55.12025452 C72.01391746 61.99351357 72.01391746 61.99351357 70.88717651 63.12025452 C68.72139641 63.23566244 66.55181001 63.27996845 64.38302612 63.29725647 C63.70322693 63.30382767 63.02342773 63.31039886 62.32302856 63.31716919 C60.06185809 63.33695755 57.80075443 63.34858152 55.53952026 63.35853577 C54.76711061 63.36261129 53.99470097 63.36668682 53.19888496 63.37088585 C49.10483185 63.39177755 45.01081248 63.40606158 40.91671753 63.41542053 C36.69896037 63.42644695 32.48173637 63.46079353 28.26416683 63.50059223 C25.01349452 63.52683 21.76294729 63.53511904 18.51217842 63.53870201 C16.9585367 63.54355537 15.40490011 63.55513359 13.85136223 63.57374001 C-2.86152217 63.76134316 -2.86152217 63.76134316 -8.11282349 59.12025452 C-12.43806503 53.638013 -12.72815334 48.88818747 -12.71438599 42.05775452 C-12.72295624 41.10763489 -12.73152649 40.15751526 -12.74035645 39.17860413 C-12.75179503 37.17839229 -12.75287899 35.17809729 -12.74417114 33.1778717 C-12.73784075 30.12857151 -12.78484628 27.08313943 -12.83547974 24.03431702 C-12.8400256 22.08380105 -12.84143277 20.13327471 -12.83938599 18.18275452 C-12.85780548 17.27839661 -12.87622498 16.3740387 -12.89520264 15.442276 C-12.81089642 9.63721018 -11.64110341 6.5962455 -7.59509277 2.395401 C-5.02940153 0.18822299 -3.29444983 -0.00404724 0 0 Z " fill="#444444" transform="translate(33.112823486328125,585.8797454833984)"/>
</svg>
