<?xml version="1.0" encoding="UTF-8"?>
<svg version="1.1" xmlns="http://www.w3.org/2000/svg" width="1000" height="1000">
<path d="M0 0 C20.95724913 -0.02333383 41.91449613 -0.04098156 62.8717556 -0.05181217 C72.60200814 -0.0569741 82.33225263 -0.06401484 92.0625 -0.07543945 C100.54083913 -0.08538944 109.01917242 -0.09185418 117.49751723 -0.09408849 C121.9890176 -0.09539506 126.48050127 -0.09847755 130.97199631 -0.10573006 C135.1957212 -0.11249522 139.41942244 -0.11461594 143.64315224 -0.11310768 C145.1968187 -0.11338378 146.75048592 -0.11538598 148.30414772 -0.11920547 C150.41856407 -0.12415045 152.53289009 -0.12299529 154.64730835 -0.12025452 C155.83273413 -0.12117631 157.0181599 -0.1220981 158.23950768 -0.12304783 C161 0 161 0 163 1 C163.81934789 2.88806254 164.55482355 4.81277497 165.25 6.75 C168.52979118 15.52770704 172.5017303 23.91028537 176.58203125 32.3359375 C181.1864216 41.86226235 185.70189211 51.36455221 189.6394043 61.18798828 C192.1991298 67.56976968 195.08150558 73.77387856 198 80 C201 86.4962406 201 86.4962406 201 90 C201.66 90.33 202.32 90.66 203 91 C204.20061878 93.31843627 205.30784759 95.6210978 206.375 98 C206.68590576 98.68118896 206.99681152 99.36237793 207.31713867 100.06420898 C208.21710566 102.04028974 209.10871104 104.01999453 210 106 C210.42152344 106.91910156 210.84304688 107.83820313 211.27734375 108.78515625 C216.83777604 121.0181073 217.23671545 132.61846771 217.5625 145.875 C217.5846759 146.6998288 217.60685181 147.52465759 217.62969971 148.3744812 C217.92258245 159.41222064 218.02335214 170.43899576 217.95703125 181.48046875 C217.9513765 182.61043274 217.94572174 183.74039673 217.93989563 184.90460205 C217.90996392 190.49335511 217.86213808 196.08110107 217.78735352 201.66943359 C217.7717822 203.72883731 217.75670322 205.78824482 217.7421875 207.84765625 C217.72352127 208.78667282 217.70485504 209.72568939 217.68562317 210.69316101 C217.6653861 215.89384832 218.03327804 219.52815678 221 224 C222.52985674 225.51994083 222.52985674 225.51994083 224.15234375 226.69140625 C226.95026642 229.35943464 227.46463034 231.24991044 227.69140625 235.08984375 C227.68407036 237.03952224 227.63942253 238.98932573 227.5625 240.9375 C227.52914551 242.46914795 227.52914551 242.46914795 227.49511719 244.03173828 C227.11126726 255.850962 225.89398472 268.76774594 218.80859375 278.6640625 C216.0469393 280.70398868 213.45192979 280.746485 210.0625 281.125 C209.37462402 281.20210205 208.68674805 281.2792041 207.97802734 281.35864258 C202.04000019 281.98248457 196.0860133 282.36312777 190.125 282.6875 C189.25109619 282.73600098 188.37719238 282.78450195 187.47680664 282.83447266 C186.66203857 282.87233887 185.84727051 282.91020508 185.0078125 282.94921875 C184.28223145 282.98362061 183.55665039 283.01802246 182.80908203 283.0534668 C181 283 181 283 179 282 C178.70043945 280.27612305 178.70043945 280.27612305 178.61328125 278.01171875 C177.27563022 254.20289772 169.43788659 232.69421201 152 216 C148.84729779 213.33276824 145.95857821 211.31952607 142 210 C141.67 209.34 141.34 208.68 141 208 C129.47455658 201.27682467 115.30846993 197.56833324 102 197 C101.08992187 196.9484375 100.17984375 196.896875 99.2421875 196.84375 C85.54468775 196.43179512 71.959249 198.57555998 59.37109375 204.01171875 C57 205 57 205 55 205 C55 205.66 55 206.32 55 207 C54.47792969 207.25652344 53.95585938 207.51304687 53.41796875 207.77734375 C46.05314588 211.60808349 38.3150967 216.54677102 33.3046875 223.27734375 C32.65886719 224.13005859 32.65886719 224.13005859 32 225 C31.34 225 30.68 225 30 225 C30 225.99 30 226.98 30 228 C29.34 228 28.68 228 28 228 C27.79375 228.78375 27.5875 229.5675 27.375 230.375 C26.18117365 233.52236037 24.90571463 235.86803516 23.125 238.6875 C14.33766187 252.93201145 14.77728961 265.89962857 14 283 C-66.85 283 -147.7 283 -231 283 C-231.33 283.99 -231.66 284.98 -232 286 C-232 285.01 -232 284.02 -232 283 C-233.98 283 -235.96 283 -238 283 C-239.7591856 278.41685856 -240.55665384 273.92955241 -241.29248047 269.10644531 C-243.97488812 251.62642275 -248.61304519 233.43074375 -262 221 C-262 220.34 -262 219.68 -262 219 C-249.46 219 -236.92 219 -224 219 C-223.67 217.68 -223.34 216.36 -223 215 C-223 216.32 -223 217.64 -223 219 C-197.33163196 218.89291119 -171.66329414 218.78017722 -145.99498081 218.66066074 C-134.07763732 218.60530402 -122.16029084 218.55181807 -110.24291992 218.50268555 C-99.85978796 218.45987364 -89.47667827 218.41360333 -79.09358066 218.36312145 C-73.5921698 218.33649632 -68.09076341 218.31164273 -62.58932686 218.29092598 C-57.4175885 218.27139625 -52.24589261 218.24726368 -47.07419205 218.21950912 C-45.17018973 218.21011921 -43.26617806 218.20245097 -41.36216164 218.19658089 C-38.77443945 218.18835253 -36.18682126 218.17408539 -33.59913635 218.15821838 C-32.83553238 218.15724028 -32.07192841 218.15626217 -31.28518492 218.15525442 C-27.8532991 218.43496613 -27.8532991 218.43496613 -25 217 C-25 200.5 -25 184 -25 167 C-78.46 166.67 -131.92 166.34 -187 166 C-187.33 172.6 -187.66 179.2 -188 186 C-190.00739564 188.00739564 -194.04270542 187.25610479 -196.79785156 187.31420898 C-197.62312599 187.33486734 -198.44840042 187.3555257 -199.29868317 187.37681007 C-202.07922617 187.44362313 -204.85986107 187.50175424 -207.640625 187.55859375 C-208.60803871 187.57965117 -209.57545242 187.60070858 -210.5721817 187.6224041 C-235.12388923 188.14838448 -259.67565127 188.11648756 -284.23168945 188.06866455 C-290.21435167 188.05818213 -296.19701863 188.05381529 -302.1796875 188.04882812 C-313.78647007 188.0383043 -325.39323269 188.02138553 -337 188 C-337.33 188.66 -337.66 189.32 -338 190 C-338 189.34 -338 188.68 -338 188 C-345.99501659 188.88048096 -350.74676366 191.40267216 -356.8125 196.5625 C-358.37275677 197.83478718 -359.93527245 199.10430903 -361.5 200.37109375 C-362.25925781 200.99097168 -363.01851562 201.61084961 -363.80078125 202.24951172 C-367.81163522 205.44198763 -372.04842711 208.27567521 -376.30078125 211.1328125 C-379.0615284 212.98784958 -379.0615284 212.98784958 -381.73046875 215.2421875 C-384 217 -384 217 -386 217 C-386 217.66 -386 218.32 -386 219 C-387.3203125 220.19140625 -387.3203125 220.19140625 -389.125 221.5625 C-400.80428691 231.33832164 -405.21672314 246.47694273 -408.12109375 260.8515625 C-409.04493441 265.38789636 -410.39221801 269.65898862 -412 274 C-412.99 274 -413.98 274 -415 274 C-415.0515625 273.32453125 -415.103125 272.6490625 -415.15625 271.953125 C-415.51746475 269.11266356 -415.96052238 266.67294244 -417 264 C-418.91747425 262.59528852 -420.7775122 261.88893208 -422.98046875 261.01171875 C-429.2392757 257.87626227 -431.15847017 249.17868722 -433.49536133 243.13476562 C-438.04671663 231.57378319 -443.38201168 220.72000919 -452.25 211.8828125 C-454 210 -454 210 -455 207 C-455.55429687 206.73316406 -456.10859375 206.46632813 -456.6796875 206.19140625 C-460.1226618 204.42354908 -462.46153023 201.70789738 -465.125 198.9375 C-468.69553366 194.9955106 -468.69553366 194.9955106 -473 192 C-473 191.34 -473 190.68 -473 190 C-473.99 189.67 -474.98 189.34 -476 189 C-477.54296875 187.43359375 -477.54296875 187.43359375 -479.1875 185.4375 C-485.30137941 177.77629111 -485.30137941 177.77629111 -493 172 C-493 171.34 -493 170.68 -493 170 C-493.56074219 169.76539063 -494.12148438 169.53078125 -494.69921875 169.2890625 C-501.76577901 165.32986915 -507.3825492 157.76244715 -512.52734375 151.59375 C-514.10689997 149.759259 -514.10689997 149.759259 -517 148 C-517 147.34 -517 146.68 -517 146 C-518.32 145.34 -519.64 144.68 -521 144 C-521 143.34 -521 142.68 -521 142 C-521.66 142 -522.32 142 -523 142 C-523.703125 140.41796875 -523.703125 140.41796875 -524 138 C-522.671875 134.80078125 -522.671875 134.80078125 -520.75 131.3125 C-519.81414062 129.57419922 -519.81414062 129.57419922 -518.859375 127.80078125 C-517 125 -517 125 -514 124 C-511.76760711 123.98290556 -509.5345308 124.03418037 -507.30368042 124.11889648 C-505.8666867 124.16784719 -504.42967989 124.21641477 -502.99266243 124.2646637 C-502.21892226 124.29233889 -501.44518208 124.32001408 -500.64799523 124.34852791 C-483.93493 124.93084974 -467.23055244 125.10313673 -450.50830078 125.09765625 C-449.37717291 125.0973472 -448.24604503 125.09703815 -447.08064055 125.09671974 C-439.87597894 125.09300516 -432.67134238 125.08144014 -425.46669245 125.06846237 C-419.02043131 125.05827114 -412.57416665 125.05493027 -406.12789917 125.05102539 C-395.30466292 125.0437515 -384.48143381 125.03369266 -373.65820312 125.02050781 C-372.97752615 125.01968 -372.29684918 125.01885219 -371.59554563 125.01799929 C-366.08357499 125.01126621 -360.57160459 125.00434467 -355.05963421 124.99739647 C-350.25492551 124.99134426 -345.45021674 124.98536163 -340.64550781 124.97949219 C-339.96873871 124.97866406 -339.29196962 124.97783593 -338.59469236 124.97698271 C-327.15301394 124.96311173 -315.71133606 124.95349606 -304.26965129 124.94658184 C-297.90488811 124.94249316 -291.54014274 124.93636108 -285.17538834 124.92483521 C-259.97387422 124.87970954 -234.78283552 124.94355444 -209.58544922 125.44140625 C-208.53440954 125.46093794 -207.48336987 125.48046963 -206.40048051 125.50059319 C-203.48076476 125.55650082 -200.56131373 125.61959662 -197.64181519 125.68579102 C-196.33991592 125.71056991 -196.33991592 125.71056991 -195.01171565 125.73584938 C-189.11562987 125.88437013 -189.11562987 125.88437013 -188 127 C-187.67 133.6 -187.34 140.2 -187 147 C-133.54 147 -80.08 147 -25 147 C-24.67 140.07 -24.34 133.14 -24 126 C-22.3863608 124.3863608 -20.57372229 124.79655898 -18.34375 124.71875 C-17.40402344 124.68136719 -16.46429687 124.64398437 -15.49609375 124.60546875 C-13.49869792 124.53515625 -11.50130208 124.46484375 -9.50390625 124.39453125 C-8.09431641 124.33845703 -8.09431641 124.33845703 -6.65625 124.28125 C-5.78806641 124.25095703 -4.91988281 124.22066406 -4.02539062 124.18945312 C-2.0050587 124.21778499 -2.0050587 124.21778499 -1 123 C-0.89187487 121.40618922 -0.85315703 119.80762353 -0.84178162 118.21018982 C-0.8319928 117.17387421 -0.82220398 116.13755859 -0.81211853 115.06983948 C-0.80636307 113.92329391 -0.8006076 112.77674835 -0.79467773 111.59545898 C-0.77982834 109.79570618 -0.77982834 109.79570618 -0.76467896 107.95959473 C-0.73842867 104.66017762 -0.71659258 101.36078552 -0.69667697 98.0613277 C-0.67485486 94.6166283 -0.64744777 91.17197358 -0.62062073 87.72731018 C-0.57064262 81.20020511 -0.52572286 74.67307532 -0.48259836 68.14592177 C-0.43326962 60.71674811 -0.37833537 53.28761927 -0.32291877 45.85848892 C-0.2090202 30.57236732 -0.1021984 15.28620457 0 0 Z M27 24 C26.97677036 33.11908037 26.95903093 42.23815046 26.94818783 51.35725403 C26.94298217 55.59218394 26.93592684 59.82709351 26.92456055 64.06201172 C26.91364902 68.15336302 26.90770572 72.24469483 26.90512276 76.33605957 C26.90328335 77.89245917 26.89969158 79.44885778 26.89426994 81.00524902 C26.88694963 83.19492856 26.88601365 85.38452883 26.88647461 87.57421875 C26.884254 88.81776123 26.88203339 90.06130371 26.87974548 91.3425293 C27.01086007 95.33030256 27.32454615 99.06647169 28 103 C30.71286399 104.356432 32.87781884 104.15475606 35.91503906 104.18945312 C37.15682922 104.20617065 38.39861938 104.22288818 39.67803955 104.2401123 C40.34377235 104.24679428 41.00950516 104.25347626 41.69541168 104.26036072 C43.78080771 104.2814032 45.8660499 104.30842885 47.95135498 104.33703613 C52.38417708 104.39675352 56.81707208 104.4488347 61.25 104.5 C66.37378521 104.55934457 71.49749608 104.62184238 76.62114716 104.69187927 C78.6694652 104.71831557 80.71779115 104.73921938 82.76617432 104.7598877 C84.64777252 104.78496399 84.64777252 104.78496399 86.56738281 104.81054688 C88.21713104 104.82933899 88.21713104 104.82933899 89.90020752 104.84851074 C93.00477499 105.00023336 95.93911478 105.47906041 99 106 C100.40809918 106.04122738 101.81847702 106.03894982 103.22607422 105.9831543 C104.38790726 105.9452906 104.38790726 105.9452906 105.57321167 105.90666199 C106.39209869 105.87945572 107.21098572 105.85224945 108.0546875 105.82421875 C110.73743216 105.78548471 113.42012693 105.75915087 116.10302734 105.73364258 C117.94796419 105.70293155 119.7926632 105.64895977 121.63623047 105.5715332 C136.67013951 104.97431043 136.67013951 104.97431043 140.6348877 108.42144775 C143.63172061 112.24726292 145.34052556 116.46753822 147 121 C148.22152662 122.45022944 148.22152662 122.45022944 151.87719727 122.11352539 C153.60694167 122.11336621 155.33669081 122.10766849 157.06640625 122.09765625 C157.97502914 122.0962413 158.88365204 122.09482635 159.81980896 122.09336853 C162.73407221 122.08775193 165.64825981 122.07519665 168.5625 122.0625 C170.53320202 122.05748714 172.50390524 122.05292386 174.47460938 122.04882812 C179.31643559 122.03777711 184.15820495 122.02050138 189 122 C187.68856273 116.51638598 185.4067266 111.44858376 183.25 106.25 C182.81945312 105.19039063 182.38890625 104.13078125 181.9453125 103.0390625 C179.70394186 97.63024592 177.32886848 92.67510919 174.10742188 87.78857422 C172.37432745 84.98948918 171.27626768 82.013224 170.125 78.9375 C168.08832995 73.62634169 165.88212373 68.44879288 163.4375 63.3125 C160.84110812 57.84995204 158.42352363 52.34001801 156.1328125 46.7421875 C154.50115458 42.79245006 152.76010682 38.89386761 151 35 C150.34 35 149.68 35 149 35 C148.9175 34.319375 148.835 33.63875 148.75 32.9375 C148.07409478 30.29020457 147.317239 28.63267182 145.953125 26.31640625 C145.30859375 25.22199219 144.6640625 24.12757813 144 23 C129.04040767 22.97666077 114.08081675 22.95901578 99.1212101 22.94818783 C92.17552711 22.94302705 85.22985542 22.9359885 78.28417969 22.92456055 C71.58634663 22.91354561 64.88852775 22.90772229 58.19068527 22.90512276 C55.63011871 22.90326925 53.06955282 22.89965006 50.50899124 22.89426994 C46.93387693 22.88705411 43.35881177 22.88600929 39.78369141 22.88647461 C38.18147484 22.8810817 38.18147484 22.8810817 36.54689026 22.87557983 C35.09132469 22.87764183 35.09132469 22.87764183 33.60635376 22.87974548 C32.33704482 22.87836279 32.33704482 22.87836279 31.04209328 22.87695217 C28.93296614 22.86993062 28.93296614 22.86993062 27 24 Z " fill="#434343" transform="translate(743,398)"/>
<path d="M0 0 C0.680625 0.309375 1.36125 0.61875 2.0625 0.9375 C2.0625 1.5975 2.0625 2.2575 2.0625 2.9375 C3.0525 3.2675 4.0425 3.5975 5.0625 3.9375 C6.77480248 5.55724559 8.43413262 7.2333946 10.0625 8.9375 C11.03902386 9.91930236 12.01826672 10.89840669 13 11.875 C15.04166667 13.91666667 17.08333333 15.95833333 19.125 18 C19.61806641 18.49234131 20.11113281 18.98468262 20.61914062 19.49194336 C21.99087228 20.86576324 23.35502813 22.24713512 24.71875 23.62890625 C26.61003317 25.49182017 28.5068534 27.20236302 30.5625 28.875 C32.84107215 30.79586082 34.57299536 32.55271236 36.5 34.875 C40.43716486 39.58039214 44.95946944 43.53547963 50.0625 46.9375 C50.0625 47.5975 50.0625 48.2575 50.0625 48.9375 C51.0525 49.2675 52.0425 49.5975 53.0625 49.9375 C54.640625 51.5390625 54.640625 51.5390625 56.3125 53.5625 C61.50813509 59.67308969 67.13639293 65.05521858 73.1953125 70.30078125 C75.61573171 72.42244579 77.8896616 74.560958 80.0625 76.9375 C80.0625 77.5975 80.0625 78.2575 80.0625 78.9375 C81.0525 79.2675 82.0425 79.5975 83.0625 79.9375 C84.77476467 81.55728556 86.43642102 83.23121084 88.0625 84.9375 C94.95511502 91.96333965 94.95511502 91.96333965 102.25 98.5625 C105.67483292 101.48225655 108.56240559 104.67039514 111.421875 108.140625 C113.04164107 110.03409467 113.04164107 110.03409467 115.265625 111.546875 C115.85859375 112.00578125 116.4515625 112.4646875 117.0625 112.9375 C117.0625 113.5975 117.0625 114.2575 117.0625 114.9375 C117.63484375 115.1953125 118.2071875 115.453125 118.796875 115.71875 C121.27378995 117.05115942 123.1966166 118.58806118 125.3125 120.4375 C126.37210938 121.35015625 126.37210938 121.35015625 127.453125 122.28125 C129.0625 123.9375 129.0625 123.9375 129.0625 125.9375 C130.0525 126.2675 131.0425 126.5975 132.0625 126.9375 C133.53515625 128.43359375 133.53515625 128.43359375 135.125 130.375 C138.03034634 133.79232882 141.04122267 137.05214436 144.1875 140.25 C144.99445313 141.07113281 145.80140625 141.89226562 146.6328125 142.73828125 C149.54370104 145.37305657 152.5667064 147.1896032 156.0625 148.9375 C156.330625 149.515 156.59875 150.0925 156.875 150.6875 C158.0514622 153.18485519 158.0514622 153.18485519 160.6875 155.5625 C163.0625 157.9375 163.0625 157.9375 163.0625 159.9375 C163.62453125 160.17082031 164.1865625 160.40414062 164.765625 160.64453125 C167.62984142 162.25687076 169.53502021 164.2568562 171.8125 166.625 C174.92321558 169.8091248 178.04607404 172.86665284 181.4375 175.75 C184.37743698 178.26241627 186.64399937 180.91437421 189.0625 183.9375 C191.12955735 185.69877963 193.2210291 187.41471027 195.35546875 189.09375 C197.52608804 191.43821752 198.00973732 192.74295959 198.0625 195.9375 C196.65625 198.4453125 196.65625 198.4453125 194.5625 201.0625 C191.81208321 204.63329973 189.19476352 208.17304697 186.8125 212 C183.64486433 217.05659272 180.37133572 222.0352079 177.0625 227 C176.57620117 227.73162354 176.08990234 228.46324707 175.58886719 229.21704102 C172.98888011 233.11225181 170.34282461 236.96674004 167.63671875 240.7890625 C163.20251991 247.097768 159.14053156 253.63241859 155.04882812 260.16601562 C152.24367437 264.61546367 149.46925555 268.91552901 146.0625 272.9375 C145.21698962 274.05337707 144.38199912 275.17738298 143.5625 276.3125 C143.1809375 276.83585937 142.799375 277.35921875 142.40625 277.8984375 C140.87767327 280.21796382 139.52237316 282.62095094 138.15527344 285.03808594 C136.33377196 288.20414526 134.39508015 291.29181126 132.4375 294.375 C132.04304688 295.01115234 131.64859375 295.64730469 131.2421875 296.30273438 C130.23687773 297.88371984 129.15566273 299.41593566 128.0625 300.9375 C127.4025 300.9375 126.7425 300.9375 126.0625 300.9375 C125.876875 301.72125 125.69125 302.505 125.5 303.3125 C123.78102921 307.6472959 121.35634396 311.01247503 118.62109375 314.765625 C117.04446832 316.84177718 117.04446832 316.84177718 116.0625 318.9375 C115.4025 318.9375 114.7425 318.9375 114.0625 318.9375 C113.79300537 319.66437012 113.52351074 320.39124023 113.24584961 321.14013672 C112.08536208 323.8834555 110.74979527 326.20097398 109.12890625 328.6953125 C108.2790918 330.00435547 108.2790918 330.00435547 107.41210938 331.33984375 C106.82236328 332.23832031 106.23261719 333.13679688 105.625 334.0625 C105.03912109 334.96871094 104.45324219 335.87492187 103.84960938 336.80859375 C97.54487071 346.46965754 97.54487071 346.46965754 94.22871399 347.51625061 C92.01804069 347.94614571 90.09323204 348.021687 87.84472656 347.95922852 C87.02417786 347.93913223 86.20362915 347.91903595 85.35821533 347.89833069 C84.48203552 347.87129562 83.60585571 347.84426056 82.703125 347.81640625 C81.79874695 347.79279526 80.8943689 347.76918427 79.96258545 347.74485779 C77.07905712 347.66839281 74.19580903 347.58429464 71.3125 347.5 C69.35548238 347.44676213 67.39845116 347.39402185 65.44140625 347.34179688 C60.64826063 347.21280089 55.85535213 347.07695947 51.0625 346.9375 C50.7325 347.5975 50.4025 348.2575 50.0625 348.9375 C50.0625 348.2775 50.0625 347.6175 50.0625 346.9375 C-28.1475 346.9375 -106.3575 346.9375 -186.9375 346.9375 C-186.9375 345.9475 -186.9375 344.9575 -186.9375 343.9375 C-186.2775 343.9375 -185.6175 343.9375 -184.9375 343.9375 C-184.66421875 343.38320313 -184.3909375 342.82890625 -184.109375 342.2578125 C-176.93132921 328.04528184 -168.64755277 313.95724824 -159.1875 301.125 C-157.04871446 298.09505381 -155.28936165 295.0585097 -153.52734375 291.8046875 C-151.35754806 287.89159159 -149.08529235 284.04145435 -146.8125 280.1875 C-146.38042236 279.45418457 -145.94834473 278.72086914 -145.50317383 277.96533203 C-143.74504881 274.9855399 -141.98126069 272.01010742 -140.1953125 269.046875 C-138.92968483 266.98351673 -138.92968483 266.98351673 -137.9375 264.9375 C-137.2775 264.9375 -136.6175 264.9375 -135.9375 264.9375 C-135.65841797 264.20120361 -135.37933594 263.46490723 -135.09179688 262.70629883 C-134.04117993 260.18619588 -132.87733776 257.96962603 -131.46875 255.63671875 C-130.98486816 254.83218262 -130.50098633 254.02764648 -130.00244141 253.19873047 C-129.48601074 252.34939941 -128.96958008 251.50006836 -128.4375 250.625 C-127.90431152 249.74215332 -127.37112305 248.85930664 -126.82177734 247.94970703 C-123.0456706 241.7145834 -119.21451964 235.51484263 -115.32421875 229.3503418 C-112.46634371 224.81815022 -109.73261903 220.22654759 -107.09375 215.5625 C-106.52140625 214.758125 -106.52140625 214.758125 -105.9375 213.9375 C-105.2775 213.9375 -104.6175 213.9375 -103.9375 213.9375 C-103.73253906 213.15890625 -103.52757812 212.3803125 -103.31640625 211.578125 C-101.42050799 206.57252394 -98.6756884 202.23411462 -95.875 197.6875 C-94.7794854 195.89090695 -93.68441112 194.0940453 -92.58984375 192.296875 C-92.10507568 191.50764648 -91.62030762 190.71841797 -91.12084961 189.90527344 C-89.9165856 187.96041821 -89.9165856 187.96041821 -88.9375 185.9375 C-88.2775 185.9375 -87.6175 185.9375 -86.9375 185.9375 C-86.6075 184.2875 -86.2775 182.6375 -85.9375 180.9375 C-85.2775 180.9375 -84.6175 180.9375 -83.9375 180.9375 C-83.66421875 180.19757813 -83.3909375 179.45765625 -83.109375 178.6953125 C-82.01144342 176.11151352 -80.8021468 174.09557585 -79.1875 171.8125 C-75.71020185 166.71923118 -72.83796771 161.37296093 -69.9375 155.9375 C-68.98293306 154.20625129 -68.02490364 152.47690456 -67.0625 150.75 C-66.65257812 150.01394531 -66.24265625 149.27789062 -65.8203125 148.51953125 C-65.52898437 147.99746094 -65.23765625 147.47539062 -64.9375 146.9375 C-64.2775 146.9375 -63.6175 146.9375 -62.9375 146.9375 C-62.67582031 146.22464844 -62.41414063 145.51179687 -62.14453125 144.77734375 C-60.87597196 141.79273986 -59.36071997 139.23924116 -57.625 136.5 C-53.7984813 130.40134404 -50.14167689 124.21047273 -46.5 118 C-42.14114442 110.58469087 -37.67044517 103.27863188 -32.97265625 96.07421875 C-29.92377557 91.3750802 -27.00300759 86.59979875 -24.08544922 81.81835938 C-22.75800897 79.64341262 -21.42786749 77.47012806 -20.09765625 75.296875 C-18.18281262 72.16714368 -16.26824126 69.03724761 -14.35546875 65.90625 C-13.96125732 65.26107422 -13.5670459 64.61589844 -13.16088867 63.95117188 C-12.55531128 62.9544043 -12.55531128 62.9544043 -11.9375 61.9375 C-11.35572998 61.15673096 -10.77395996 60.37596191 -10.17456055 59.5715332 C-8.64069133 56.96713852 -8.64069133 56.96713852 -9.46728516 54.01831055 C-10.09062744 52.43723511 -10.09062744 52.43723511 -10.7265625 50.82421875 C-11.17386719 49.65826172 -11.62117187 48.49230469 -12.08203125 47.29101562 C-12.81486328 45.47633789 -12.81486328 45.47633789 -13.5625 43.625 C-14.02785156 42.42681641 -14.49320313 41.22863281 -14.97265625 39.99414062 C-16.60887211 35.78772166 -18.27232659 31.59269525 -19.95532227 27.40478516 C-21.49549824 23.47870556 -22.34656753 21.03660555 -20.9375 16.9375 C-20.2775 16.9375 -19.6175 16.9375 -18.9375 16.9375 C-18.6075 15.9475 -18.2775 14.9575 -17.9375 13.9375 C-16.3359375 12.359375 -16.3359375 12.359375 -14.3125 10.6875 C-11.40204039 8.25083614 -8.80349423 5.74353762 -6.25 2.9375 C-3.32877571 -0.07082502 -3.32877571 -0.07082502 0 0 Z " fill="#434343" transform="translate(416.9375,170.0625)"/>
<path d="M0 0 C-0.45867853 4.93079415 -1.79085331 7.28942415 -5 11 C-5.33 11.99 -5.66 12.98 -6 14 C-6.66 14 -7.32 14 -8 14 C-8.40182495 15.07084839 -8.40182495 15.07084839 -8.81176758 16.16333008 C-10.94745663 21.26186533 -13.89813915 25.92439786 -16.6875 30.6875 C-17.28755859 31.72583984 -17.88761719 32.76417969 -18.50585938 33.83398438 C-21.91276308 39.67073132 -25.51078925 45.25823027 -29.43969727 50.75561523 C-31.55703483 53.80125508 -33.33706251 56.9370446 -35.125 60.1875 C-37.47052537 64.39717192 -39.90265401 68.39866812 -42.80078125 72.25 C-44.32518543 74.4745377 -45.55006091 76.80477314 -46.8125 79.1875 C-48.87722492 83.05625225 -51.08248508 86.69667992 -53.5625 90.3125 C-61.36199053 101.77790194 -68.15181896 113.94919598 -75 126 C-75.66 126 -76.32 126 -77 126 C-77.144375 126.598125 -77.28875 127.19625 -77.4375 127.8125 C-78.69580701 132.70591614 -78.69580701 132.70591614 -80.29296875 134.25 C-82.81378912 136.83427351 -84.49241793 139.9074161 -86.3125 143 C-86.67794922 143.60972656 -87.04339844 144.21945312 -87.41992188 144.84765625 C-89.67023241 148.63315272 -91.79087993 152.46971628 -93.86328125 156.35546875 C-96.87747146 161.91268742 -100.30245761 167.10250141 -103.875 172.3125 C-108.6258688 179.33498285 -113.09381671 186.38997894 -117.20703125 193.80078125 C-123.07369518 204.26875023 -129.66239942 214.36771547 -136.2265625 224.41015625 C-140.81805366 231.45442468 -145.0556647 238.56690611 -149 246 C-150.31552074 248.34416781 -151.65519566 250.67245403 -153 253 C-153.66 253 -154.32 253 -155 253 C-155.25394531 253.68707031 -155.50789062 254.37414062 -155.76953125 255.08203125 C-157.17988515 258.42658479 -158.88083457 261.54665508 -160.6875 264.6875 C-161.0383667 265.30036865 -161.3892334 265.9132373 -161.75073242 266.54467773 C-164.42014981 271.14304195 -167.32170408 275.51929514 -170.45703125 279.81640625 C-176.93532976 288.9844287 -175.44890731 297.54916829 -173.67993164 308.28369141 C-173.4968042 309.34507324 -173.31367676 310.40645508 -173.125 311.5 C-171.79571116 319.54009982 -170.70187418 327.50175109 -170.0625 335.625 C-169.36161615 343.91989427 -167.33915172 351.23476056 -164.64794922 359.07763672 C-157.93570468 378.99180911 -159.78384709 396.28560063 -163.7175293 416.60644531 C-165.79549784 427.39859591 -167.01356813 438.05107334 -167.75830078 449.01171875 C-168.02345423 452.2899796 -168.39092198 455.54634848 -168.77734375 458.8125 C-170.64266913 474.84677247 -171.27857138 490.51263317 -171.06494141 506.63549805 C-171.05579712 507.38664886 -171.04665283 508.13779968 -171.03723145 508.91171265 C-171.00945948 510.96052916 -170.97207362 513.00920884 -170.93408203 515.05786133 C-171 518 -171 518 -172 519 C-174.42619594 519.09989636 -176.82398318 519.13442062 -179.25073242 519.12698364 C-180.01858912 519.12854363 -180.78644583 519.13010362 -181.57757092 519.13171089 C-184.17022261 519.13572388 -186.76281654 519.1325301 -189.35546875 519.12939453 C-191.20618728 519.13074844 -193.05690554 519.13252831 -194.90762329 519.13470459 C-199.94879944 519.13928016 -204.98995522 519.13748886 -210.03113174 519.1343255 C-215.29443672 519.13180254 -220.55773989 519.13413926 -225.82104492 519.13571167 C-234.6616243 519.13753355 -243.50219533 519.13512657 -252.34277344 519.13037109 C-262.57938016 519.12492844 -272.81596697 519.12669108 -283.0525732 519.1321975 C-291.82451263 519.1367281 -300.59644605 519.13737944 -309.36838627 519.13475883 C-314.61492807 519.13319576 -319.8614605 519.1330031 -325.10800171 519.13629532 C-330.03924878 519.13917326 -334.97047005 519.13719976 -339.90171432 519.13140106 C-341.71703422 519.13007305 -343.53235627 519.13046827 -345.34767532 519.13266373 C-347.81490257 519.13537363 -350.28204577 519.13199609 -352.74926758 519.12698364 C-353.4771709 519.12921436 -354.20507421 519.13144509 -354.95503521 519.13374341 C-359.88585014 519.11414986 -359.88585014 519.11414986 -361 518 C-363.42412277 489.12316915 -357.80591683 461.0397531 -341 437 C-338.55322966 434.37571887 -335.821835 432.21170852 -333 430 C-332.45601563 429.55914063 -331.91203125 429.11828125 -331.3515625 428.6640625 C-327.83769481 425.97295407 -324.19754977 424.119308 -320.1875 422.25 C-306.64351383 415.62209188 -298.96616332 404.87396648 -293.9375 391 C-293.59662354 390.08283203 -293.25574707 389.16566406 -292.90454102 388.22070312 C-290.64229165 382.03639896 -288.65362499 375.80831993 -286.86523438 369.47265625 C-285.20487633 363.59754316 -283.35632176 357.79566648 -281.4375 352 C-281.15640381 351.13955078 -280.87530762 350.27910156 -280.58569336 349.39257812 C-276.89822745 338.33554164 -273.80214176 330.17372637 -263.09375 324.4453125 C-261.0347888 323.44182888 -258.97095451 322.44828165 -256.90234375 321.46484375 C-250.1902631 318.07718528 -245.72879026 313.79276807 -241 308 C-239.76400786 306.94175009 -238.51253838 305.90143376 -237.25 304.875 C-231.91366472 300.29530928 -228.03586747 294.71149985 -224 289 C-223.48759766 288.27731934 -222.97519531 287.55463867 -222.44726562 286.81005859 C-220.25753933 283.71917571 -218.07019173 280.6267866 -215.89746094 277.52392578 C-215.15931152 276.46987549 -215.15931152 276.46987549 -214.40625 275.39453125 C-213.96603516 274.76393799 -213.52582031 274.13334473 -213.07226562 273.48364258 C-212 272 -212 272 -211 271 C-210.90080923 269.39836084 -210.87030102 267.79220082 -210.875 266.1875 C-210.87242187 265.31480469 -210.86984375 264.44210937 -210.8671875 263.54296875 C-210.90227601 261.10121197 -210.90227601 261.10121197 -211.49560547 259.21923828 C-212.64054446 254.18172839 -212.22831685 248.8291165 -212.25 243.6875 C-212.270625 242.47642578 -212.29125 241.26535156 -212.3125 240.01757812 C-212.34972558 231.5161863 -211.57926715 225.85048234 -206.1875 219.0625 C-203.46450265 215.59254577 -200.86322717 212.056124 -198.296875 208.46875 C-197.86890625 207.9840625 -197.4409375 207.499375 -197 207 C-196.34 207 -195.68 207 -195 207 C-194.731875 206.443125 -194.46375 205.88625 -194.1875 205.3125 C-192.89100504 202.78774666 -191.57523677 200.36285516 -190 198 C-189.34 198 -188.68 198 -188 198 C-187.8453125 197.195625 -187.8453125 197.195625 -187.6875 196.375 C-186.81180468 193.34987072 -185.52752839 190.7495511 -184 188 C-183.34 187.67 -182.68 187.34 -182 187 C-181.64955016 185.33684823 -181.31994689 183.66928813 -181 182 C-180.16514917 179.98291074 -179.28457021 177.98451683 -178.375 176 C-175.68342691 169.97451864 -173.57641362 163.84346732 -171.5625 157.5625 C-162.22254894 128.80154481 -162.22254894 128.80154481 -151 122 C-149.2984375 121.319375 -149.2984375 121.319375 -147.5625 120.625 C-143.80972882 118.91320964 -141.80417025 116.96440855 -139 114 C-138.34 114 -137.68 114 -137 114 C-136.896875 112.88625 -136.79375 111.7725 -136.6875 110.625 C-136.070803 105.56445698 -134.57493852 100.83377357 -133 96 C-132.34 96 -131.68 96 -131 96 C-130.6596875 94.7315625 -130.6596875 94.7315625 -130.3125 93.4375 C-126.6257459 83.78171546 -119.07963914 78.8511141 -111 73 C-110.28489258 72.48066895 -109.56978516 71.96133789 -108.83300781 71.42626953 C-105.75689129 69.1951889 -102.67790307 66.96833906 -99.58959961 64.75415039 C-95.29458263 61.67406035 -91.06236365 58.53705487 -86.875 55.3125 C-81.79733656 51.46918569 -76.49840833 48.12929519 -71.07519531 44.80664062 C-65.35711207 41.28235616 -59.90476281 37.47282354 -54.4765625 33.51953125 C-44.92596844 26.574031 -35.08852891 20.17150958 -25.1015625 13.87304688 C-19.80487986 10.51094527 -14.62943358 7.12156073 -9.70556641 3.22875977 C-6.22928132 0.72430188 -4.39948175 0 0 0 Z " fill="#444444" transform="translate(388,241)"/>
<path d="M0 0 C16.86280374 12.48224299 16.86280374 12.48224299 21 21 C21 21.66 21 22.32 21 23 C21.66 23 22.32 23 23 23 C28.78501601 33.37313215 30.50682975 43.70856101 30.375 55.5 C30.38660156 56.53769531 30.39820313 57.57539062 30.41015625 58.64453125 C30.36912087 69.62833596 28.4120436 83.35047331 20.41796875 91.640625 C19.71607422 92.31351563 19.71607422 92.31351563 19 93 C18.4121875 94.0828125 18.4121875 94.0828125 17.8125 95.1875 C9.3223226 108.36191321 -5.4306119 116.08882314 -20.34960938 119.54418945 C-25.2200541 120.38180186 -30.13220633 120.22681226 -35.0625 120.25 C-36.13177734 120.270625 -37.20105469 120.29125 -38.30273438 120.3125 C-53.45183172 120.38572827 -67.84348096 115.61307829 -79 105 C-79 104.34 -79 103.68 -79 103 C-79.59039063 102.75894531 -80.18078125 102.51789063 -80.7890625 102.26953125 C-88.51343814 97.83415654 -93.14882659 86.0092053 -96 78 C-100.95614043 59.62870942 -100.33916238 41.23875233 -92 24 C-91.54109375 22.99839844 -91.0821875 21.99679687 -90.609375 20.96484375 C-83.3488127 6.75540996 -69.6705648 -1.00635874 -55 -6 C-36.30893899 -12.04543782 -16.8816332 -11.08216057 0 0 Z M-50 38 C-55.37859281 43.29498774 -58.6840612 48.81381084 -59.25 56.3125 C-58.72848742 64.00481059 -54.56063193 69.85408078 -49.8125 75.6875 C-45.22182882 79.46205186 -40.39322574 80.69540763 -34.5625 81.4375 C-26.98656503 80.50712202 -20.27586211 77.52709364 -15 72 C-11.77110557 67.1722318 -9.69976434 61.88676346 -10 56 C-11.10882328 50.8281314 -12.89829893 45.8500794 -15 41 C-15.66 41 -16.32 41 -17 41 C-17.25394531 40.39542969 -17.50789062 39.79085937 -17.76953125 39.16796875 C-19.86529074 35.47544013 -23.26121756 33.82512512 -27 32 C-35.71493461 29.66564251 -43.14276411 32.64370415 -50 38 Z " fill="#444444" transform="translate(874,640)"/>
<path d="M0 0 C7.54436299 5.99390373 14.35122297 12.47189869 19 21 C19.56074219 21.99773438 19.56074219 21.99773438 20.1328125 23.015625 C28.03358276 37.88077794 29.89809223 57.02086695 25.046875 73.19921875 C18.00555454 92.03737833 8.63095243 104.16140107 -9.640625 113.32421875 C-25.10589708 119.86534798 -46.54745303 121.28220287 -62.3515625 115.265625 C-66.79752905 113.14100382 -70.94262506 110.79676439 -75 108 C-75.79019531 107.45601562 -76.58039063 106.91203125 -77.39453125 106.3515625 C-81.43973173 103.4469527 -81.43973173 103.4469527 -83 102 C-83 101.34 -83 100.68 -83 100 C-84.485 99.505 -84.485 99.505 -86 99 C-89.12301419 95.57575019 -91.21118403 91.95706276 -93.25 87.8125 C-93.77078125 86.76707031 -94.2915625 85.72164062 -94.828125 84.64453125 C-96 82 -96 82 -96 80 C-96.66 80 -97.32 80 -98 80 C-104.23832409 62.62181146 -104.23832409 43.37818854 -98 26 C-97.34 26 -96.68 26 -96 26 C-94.74335022 23.09399739 -94 21.20395416 -94 18 C-92.71889593 16.6164076 -91.36794747 15.29779632 -90 14 C-88.95570091 12.73132896 -87.91432793 11.46024674 -86.875 10.1875 C-82.41903095 5.03859408 -76.94046853 0.93839924 -70.82421875 -2.0703125 C-68.82128976 -2.97275454 -68.82128976 -2.97275454 -67 -5 C-63.74256303 -6.23938339 -60.3574478 -7.071925 -57 -8 C-56.11054688 -8.28359375 -55.22109375 -8.5671875 -54.3046875 -8.859375 C-35.86684959 -14.30341628 -15.77946934 -11.12249128 0 0 Z M-56 39 C-60.21419773 45.04035009 -62.59187151 50.54241901 -62 58 C-59.8664701 65.3282114 -56.86113323 71.22790435 -50.5625 75.75 C-43.67916869 79.10772259 -37.27023498 80.30875021 -29.9375 77.8125 C-23.21368773 75.0064996 -17.97138972 71.15029414 -14.8125 64.5 C-12.69492076 55.3781202 -13.54246728 47.23834431 -18 39 C-21.71133435 33.1055278 -26.41599162 30.74887722 -33 29 C-42.05961539 28.40251003 -49.7533343 32.68069865 -56 39 Z " fill="#434343" transform="translate(455,642)"/>
<path d="M0 0 C0.99 0.33 1.98 0.66 3 1 C3 1.66 3 2.32 3 3 C3.70253906 3.2165625 4.40507812 3.433125 5.12890625 3.65625 C8.71510394 5.3346881 11.20161555 7.71016363 13.9375 10.5 C14.46601563 11.03463867 14.99453125 11.56927734 15.5390625 12.12011719 C19.89249244 16.64822179 23.15318138 21.39205296 26 27 C26.56267578 28.03060547 26.56267578 28.03060547 27.13671875 29.08203125 C32.58435441 39.34950813 36.46754467 52.33364739 36 64 C33.73828125 63.95703125 33.73828125 63.95703125 31 63 C29.484754 60.54112775 28.33140808 58.31081075 27.1875 55.6875 C22.31099254 45.24852536 16.84117966 34.56078644 7 28 C7 27.34 7 26.68 7 26 C6.01 25.67 5.02 25.34 4 25 C4 24.34 4 23.68 4 23 C3.01 22.6596875 3.01 22.6596875 2 22.3125 C-0.48513981 21.22525133 -2.39381269 20.11704913 -4.625 18.625 C-19.39363142 9.17864896 -38.68150955 7.63340737 -55.63671875 10.72265625 C-68.00915995 13.44866415 -79.05073714 18.17324655 -89 26 C-89.51739746 26.40524902 -90.03479492 26.81049805 -90.56787109 27.22802734 C-103.65488942 37.57849441 -112.87629454 48.81483695 -118 65 C-119.32 65 -120.64 65 -122 65 C-125.24529323 51.03404844 -119.23966659 35.06722446 -112.34765625 23.140625 C-109.61707428 18.84112674 -109.61707428 18.84112674 -108 17 C-107.34 17 -106.68 17 -106 17 C-105.7421875 16.40960937 -105.484375 15.81921875 -105.21875 15.2109375 C-101.69681997 8.8217952 -94.57271916 4.92040961 -88.39453125 1.45703125 C-85.91605582 0.04107204 -85.91605582 0.04107204 -83.6875 -2.01171875 C-80.39865929 -4.44488724 -77.0746536 -5.54230518 -73.1875 -6.625 C-72.44411377 -6.83664795 -71.70072754 -7.0482959 -70.93481445 -7.26635742 C-49.59847765 -13.068957 -18.06233385 -15.16112996 0 0 Z " fill="#434343" transform="translate(460,608)"/>
<path d="M0 0 C1.22525391 -0.01611328 2.45050781 -0.03222656 3.71289062 -0.04882812 C15.35564064 -0.05496558 26.83849694 1.21093824 36.9375 7.375 C37.93015869 7.95882446 37.93015869 7.95882446 38.94287109 8.55444336 C56.62789943 19.26392364 68.06375237 34.43267248 73.25 54.5 C73.79714435 56.76463782 74.32149858 59.03503013 74.8125 61.3125 C75.0084375 62.17875 75.204375 63.045 75.40625 63.9375 C75.8247605 66.38417679 75.91200635 68.64557449 75.875 71.125 C75.86597656 71.91519531 75.85695313 72.70539063 75.84765625 73.51953125 C75.83025391 74.40705078 75.83025391 74.40705078 75.8125 75.3125 C74.4925 75.3125 73.1725 75.3125 71.8125 75.3125 C71.50957031 74.47847656 71.20664062 73.64445313 70.89453125 72.78515625 C68.57851292 66.56397471 66.16181026 60.71027917 62.73046875 55.01953125 C61.8125 53.3125 61.8125 53.3125 61.8125 51.3125 C61.1525 51.3125 60.4925 51.3125 59.8125 51.3125 C58.79112543 49.65884594 57.79637706 47.98873498 56.8125 46.3125 C52.40293384 40.24934654 46.71836486 35.87314009 40.8125 31.3125 C40.090625 30.74015625 39.36875 30.1678125 38.625 29.578125 C24.85032276 19.4558243 6.15734222 17.58998942 -10.41992188 19.58056641 C-25.52219652 21.99624699 -38.77875754 28.45755206 -50.1484375 38.625 C-52.1875 40.3125 -52.1875 40.3125 -54.1875 40.3125 C-54.1875 40.9725 -54.1875 41.6325 -54.1875 42.3125 C-54.868125 42.9725 -55.54875 43.6325 -56.25 44.3125 C-63.17989986 51.0862331 -67.28916091 59.05829851 -70.61474609 68.04223633 C-71.4140625 70.06640625 -71.4140625 70.06640625 -73.1875 73.3125 C-75.8984375 74.27734375 -75.8984375 74.27734375 -78.1875 74.3125 C-78.50546954 68.37706867 -77.92632594 62.88768356 -76.875 57.0625 C-76.75729248 56.37736328 -76.63958496 55.69222656 -76.51831055 54.98632812 C-75.72938398 50.84736595 -74.51409212 47.80547384 -72.1875 44.3125 C-71.775 43.28125 -71.3625 42.25 -70.9375 41.1875 C-65.35108676 28.04802804 -54.95629962 16.8565098 -42.1875 10.3125 C-41.1975 10.3125 -40.2075 10.3125 -39.1875 10.3125 C-39.1875 9.6525 -39.1875 8.9925 -39.1875 8.3125 C-33.93082313 5.85700014 -28.83631745 3.72470436 -23.1875 2.3125 C-21.92292969 1.97089844 -20.65835938 1.62929688 -19.35546875 1.27734375 C-12.94720297 -0.13166734 -6.53351582 -0.01691744 0 0 Z " fill="#444444" transform="translate(840.1875,600.6875)"/>
<path d="M0 0 C0.33 0 0.66 0 1 0 C1 4.95 1 9.9 1 15 C0.67 15 0.34 15 0 15 C0 10.05 0 5.1 0 0 Z " fill="#3D3D3D" transform="translate(507,716)"/>
<path d="M0 0 C0.33 0 0.66 0 1 0 C1 3.96 1 7.92 1 12 C0.67 12 0.34 12 0 12 C0 8.04 0 4.08 0 0 Z " fill="#3D3D3D" transform="translate(510,684)"/>
<path d="M0 0 C0.33 0 0.66 0 1 0 C1 3.63 1 7.26 1 11 C0.67 11 0.34 11 0 11 C0 7.37 0 3.74 0 0 Z " fill="#595959" transform="translate(508,737)"/>
<path d="M0 0 C0.33 0 0.66 0 1 0 C1 2.64 1 5.28 1 8 C0.67 8 0.34 8 0 8 C0 5.36 0 2.72 0 0 Z " fill="#414141" transform="translate(327,723)"/>
<path d="M0 0 C0.33 0 0.66 0 1 0 C1 2.31 1 4.62 1 7 C0.67 7 0.34 7 0 7 C0 4.69 0 2.38 0 0 Z " fill="#3D3D3D" transform="translate(327,741)"/>
<path d="M0 0 C0.33 0 0.66 0 1 0 C1 2.31 1 4.62 1 7 C0.67 7 0.34 7 0 7 C0 4.69 0 2.38 0 0 Z " fill="#434345" transform="translate(508,707)"/>
<path d="M0 0 C0.33 0 0.66 0 1 0 C1 2.31 1 4.62 1 7 C0.67 7 0.34 7 0 7 C0 4.69 0 2.38 0 0 Z " fill="#404041" transform="translate(509,697)"/>
<path d="M0 0 C0.33 0 0.66 0 1 0 C1 1.65 1 3.3 1 5 C0.67 5 0.34 5 0 5 C0 3.35 0 1.7 0 0 Z " fill="#3F3F3F" transform="translate(403,590)"/>
<path d="M0 0 C0.66 1.32 1.32 2.64 2 4 C1.34 3.67 0.68 3.34 0 3 C0 2.01 0 1.02 0 0 Z " fill="#3D3D3D" transform="translate(512,590)"/>
<path d="M0 0 C0.99 0.33 1.98 0.66 3 1 C1.68 1.33 0.36 1.66 -1 2 C-0.67 1.34 -0.34 0.68 0 0 Z " fill="#3E3E40" transform="translate(612,289)"/>
<path d="M0 0 C0.99 0.33 1.98 0.66 3 1 C1.68 1.33 0.36 1.66 -1 2 C-0.67 1.34 -0.34 0.68 0 0 Z " fill="#3A3A3A" transform="translate(663,255)"/>
<path d="M0 0 C0.33 0.66 0.66 1.32 1 2 C0.34 2.66 -0.32 3.32 -1 4 C-0.67 2.68 -0.34 1.36 0 0 Z " fill="#3D3D3D" transform="translate(672,252)"/>
<path d="M0 0 C1 4 1 4 1 4 Z " fill="#414141" transform="translate(328,716)"/>
<path d="M0 0 C1 4 1 4 1 4 Z " fill="#404040" transform="translate(330,707)"/>
<path d="M0 0 C1 4 1 4 1 4 Z " fill="#404040" transform="translate(333,697)"/>
<path d="M0 0 C0 3 0 3 0 3 Z " fill="#333334" transform="translate(611,351)"/>
<path d="M0 0 C0 3 0 3 0 3 Z " fill="#343434" transform="translate(619,338)"/>
<path d="M0 0 C0 3 0 3 0 3 Z " fill="#3F403F" transform="translate(634,314)"/>
<path d="M0 0 C0.66 0.33 1.32 0.66 2 1 C1.01 1 0.02 1 -1 1 C-0.67 0.67 -0.34 0.34 0 0 Z " fill="#353736" transform="translate(582,310)"/>
<path d="M0 0 C0.66 0.33 1.32 0.66 2 1 C1.01 1 0.02 1 -1 1 C-0.67 0.67 -0.34 0.34 0 0 Z " fill="#414141" transform="translate(593,302)"/>
<path d="M0 0 C0.66 0.33 1.32 0.66 2 1 C1.01 1 0.02 1 -1 1 C-0.67 0.67 -0.34 0.34 0 0 Z " fill="#3D3D3D" transform="translate(596,300)"/>
<path d="M0 0 C0 3 0 3 0 3 Z " fill="#3B3B3B" transform="translate(645,296)"/>
<path d="M0 0 C0.66 0.33 1.32 0.66 2 1 C1.01 1 0.02 1 -1 1 C-0.67 0.67 -0.34 0.34 0 0 Z " fill="#363739" transform="translate(637,272)"/>
<path d="M0 0 C3 1 3 1 3 1 Z " fill="#303030" transform="translate(335,748)"/>
<path d="" fill="#414243" transform="translate(0,0)"/>
<path d="" fill="#464646" transform="translate(0,0)"/>
<path d="" fill="#424242" transform="translate(0,0)"/>
<path d="" fill="#444444" transform="translate(0,0)"/>
<path d="" fill="#474747" transform="translate(0,0)"/>
<path d="" fill="#3A3A3A" transform="translate(0,0)"/>
<path d="" fill="#3B3B3B" transform="translate(0,0)"/>
<path d="M0 0 C0.99 0.495 0.99 0.495 2 1 C1.01 1.495 1.01 1.495 0 2 C0 1.34 0 0.68 0 0 Z " fill="#3B3C3E" transform="translate(615,287)"/>
<path d="M0 0 C0.33 0.66 0.66 1.32 1 2 C0.34 1.67 -0.32 1.34 -1 1 C-0.67 0.67 -0.34 0.34 0 0 Z " fill="#363636" transform="translate(620,284)"/>
<path d="M0 0 C0.99 0.495 0.99 0.495 2 1 C1.01 1.495 1.01 1.495 0 2 C0 1.34 0 0.68 0 0 Z " fill="#393939" transform="translate(661,269)"/>
<path d="M0 0 C2 1 2 1 2 1 Z " fill="#3D3D3D" transform="translate(506,748)"/>
<path d="" fill="#4B4B4B" transform="translate(0,0)"/>
<path d="" fill="#393939" transform="translate(0,0)"/>
<path d="" fill="#454545" transform="translate(0,0)"/>
<path d="" fill="#393938" transform="translate(0,0)"/>
<path d="" fill="#4A4A48" transform="translate(0,0)"/>
<path d="" fill="#383838" transform="translate(0,0)"/>
<path d="" fill="#39393B" transform="translate(0,0)"/>
<path d="" fill="#404041" transform="translate(0,0)"/>
<path d="" fill="#414243" transform="translate(0,0)"/>
<path d="M0 0 C2 1 2 1 2 1 Z " fill="#393939" transform="translate(358,661)"/>
<path d="" fill="#404040" transform="translate(0,0)"/>
<path d="" fill="#444444" transform="translate(0,0)"/>
<path d="" fill="#444444" transform="translate(0,0)"/>
<path d="" fill="#3D3D3D" transform="translate(0,0)"/>
<path d="" fill="#3E3E3E" transform="translate(0,0)"/>
<path d="" fill="#3A3A3A" transform="translate(0,0)"/>
<path d="" fill="#434343" transform="translate(0,0)"/>
<path d="" fill="#454545" transform="translate(0,0)"/>
<path d="" fill="#3A3A3A" transform="translate(0,0)"/>
<path d="" fill="#3A3C3B" transform="translate(0,0)"/>
<path d="" fill="#3E3E3E" transform="translate(0,0)"/>
<path d="" fill="#424242" transform="translate(0,0)"/>
<path d="" fill="#3B3B3B" transform="translate(0,0)"/>
<path d="" fill="#323232" transform="translate(0,0)"/>
<path d="" fill="#494949" transform="translate(0,0)"/>
<path d="" fill="#3F3F3F" transform="translate(0,0)"/>
<path d="" fill="#434344" transform="translate(0,0)"/>
<path d="" fill="#47484A" transform="translate(0,0)"/>
<path d="" fill="#424245" transform="translate(0,0)"/>
<path d="" fill="#47484A" transform="translate(0,0)"/>
<path d="" fill="#3E3E41" transform="translate(0,0)"/>
<path d="" fill="#3C3D3E" transform="translate(0,0)"/>
<path d="M0 0 C2 1 2 1 2 1 Z " fill="#3F4141" transform="translate(575,315)"/>
<path d="" fill="#424241" transform="translate(0,0)"/>
<path d="M0 0 C2 1 2 1 2 1 Z " fill="#444644" transform="translate(578,313)"/>
<path d="" fill="#3F4042" transform="translate(0,0)"/>
<path d="M0 0 C2 1 2 1 2 1 Z " fill="#383838" transform="translate(585,308)"/>
<path d="" fill="#3F4042" transform="translate(0,0)"/>
<path d="M0 0 C2 1 2 1 2 1 Z " fill="#444443" transform="translate(589,305)"/>
<path d="" fill="#353639" transform="translate(0,0)"/>
<path d="" fill="#3C3C3E" transform="translate(0,0)"/>
<path d="M0 0 C2 1 2 1 2 1 Z " fill="#383838" transform="translate(599,298)"/>
<path d="" fill="#3A3A39" transform="translate(0,0)"/>
<path d="M0 0 C2 1 2 1 2 1 Z " fill="#3F3F3F" transform="translate(605,294)"/>
<path d="" fill="#454545" transform="translate(0,0)"/>
<path d="M0 0 C2 1 2 1 2 1 Z " fill="#3F3F3F" transform="translate(608,292)"/>
<path d="" fill="#2F2F2F" transform="translate(0,0)"/>
<path d="" fill="#3C3C3B" transform="translate(0,0)"/>
<path d="M0 0 C2 1 2 1 2 1 Z " fill="#3C3D3E" transform="translate(617,286)"/>
<path d="" fill="#3B3C3E" transform="translate(0,0)"/>
<path d="M0 0 C2 1 2 1 2 1 Z " fill="#434343" transform="translate(621,283)"/>
<path d="" fill="#3F3F40" transform="translate(0,0)"/>
<path d="M0 0 C2 1 2 1 2 1 Z " fill="#373737" transform="translate(624,281)"/>
<path d="" fill="#333436" transform="translate(0,0)"/>
<path d="" fill="#393939" transform="translate(0,0)"/>
<path d="M0 0 C2 1 2 1 2 1 Z " fill="#474746" transform="translate(630,277)"/>
<path d="M0 0 C2 1 2 1 2 1 Z " fill="#353637" transform="translate(633,275)"/>
<path d="" fill="#3A3A3A" transform="translate(0,0)"/>
<path d="" fill="#353535" transform="translate(0,0)"/>
<path d="M0 0 C2 1 2 1 2 1 Z " fill="#3E3F41" transform="translate(640,270)"/>
<path d="M0 0 C2 1 2 1 2 1 Z " fill="#38393A" transform="translate(642,269)"/>
<path d="" fill="#3E3E3E" transform="translate(0,0)"/>
<path d="M0 0 C2 1 2 1 2 1 Z " fill="#4D4D4F" transform="translate(646,266)"/>
<path d="M0 0 C2 1 2 1 2 1 Z " fill="#353638" transform="translate(648,265)"/>
<path d="" fill="#363636" transform="translate(0,0)"/>
<path d="" fill="#424242" transform="translate(0,0)"/>
<path d="M0 0 C2 1 2 1 2 1 Z " fill="#333333" transform="translate(654,261)"/>
<path d="M0 0 C2 1 2 1 2 1 Z " fill="#2D2D2D" transform="translate(659,258)"/>
<path d="M0 0 C2 1 2 1 2 1 Z " fill="#2E2E2E" transform="translate(669,252)"/>
<path d="" fill="#3C3C3C" transform="translate(0,0)"/>
<path d="" fill="#383837" transform="translate(0,0)"/>
<path d="" fill="#434243" transform="translate(0,0)"/>
<path d="" fill="#49494B" transform="translate(0,0)"/>
<path d="" fill="#333537" transform="translate(0,0)"/>
<path d="" fill="#2C2D30" transform="translate(0,0)"/>
<path d="" fill="#434345" transform="translate(0,0)"/>
<path d="" fill="#434446" transform="translate(0,0)"/>
<path d="" fill="#303133" transform="translate(0,0)"/>
<path d="" fill="#333435" transform="translate(0,0)"/>
<path d="" fill="#2D2D2D" transform="translate(0,0)"/>
<path d="" fill="#3A3A39" transform="translate(0,0)"/>
<path d="" fill="#373737" transform="translate(0,0)"/>
<path d="" fill="#515151" transform="translate(0,0)"/>
<path d="" fill="#4B4B4B" transform="translate(0,0)"/>
<path d="" fill="#383838" transform="translate(0,0)"/>
<path d="" fill="#404040" transform="translate(0,0)"/>
<path d="" fill="#3E3E3E" transform="translate(0,0)"/>
<path d="" fill="#3C3C3C" transform="translate(0,0)"/>
<path d="" fill="#393C3A" transform="translate(0,0)"/>
<path d="" fill="#3D3D3D" transform="translate(0,0)"/>
<path d="" fill="#363938" transform="translate(0,0)"/>
<path d="" fill="#40403F" transform="translate(0,0)"/>
<path d="" fill="#434343" transform="translate(0,0)"/>
<path d="" fill="#373737" transform="translate(0,0)"/>
<path d="" fill="#383838" transform="translate(0,0)"/>
<path d="" fill="#474747" transform="translate(0,0)"/>
<path d="" fill="#313131" transform="translate(0,0)"/>
<path d="" fill="#444447" transform="translate(0,0)"/>
<path d="" fill="#353639" transform="translate(0,0)"/>
<path d="" fill="#3B3C3D" transform="translate(0,0)"/>
<path d="" fill="#3A3C3B" transform="translate(0,0)"/>
<path d="" fill="#4B4D4C" transform="translate(0,0)"/>
<path d="" fill="#3E403F" transform="translate(0,0)"/>
<path d="" fill="#252726" transform="translate(0,0)"/>
<path d="" fill="#444444" transform="translate(0,0)"/>
<path d="" fill="#333333" transform="translate(0,0)"/>
<path d="" fill="#3A3C3B" transform="translate(0,0)"/>
<path d="" fill="#2D2D2D" transform="translate(0,0)"/>
<path d="" fill="#3C3D3F" transform="translate(0,0)"/>
<path d="" fill="#343434" transform="translate(0,0)"/>
<path d="" fill="#363636" transform="translate(0,0)"/>
<path d="" fill="#353639" transform="translate(0,0)"/>
<path d="" fill="#3A3A3A" transform="translate(0,0)"/>
<path d="" fill="#414141" transform="translate(0,0)"/>
<path d="" fill="#333333" transform="translate(0,0)"/>
<path d="" fill="#262626" transform="translate(0,0)"/>
<path d="" fill="#434342" transform="translate(0,0)"/>
<path d="" fill="#3B3B3B" transform="translate(0,0)"/>
<path d="" fill="#373738" transform="translate(0,0)"/>
<path d="" fill="#434343" transform="translate(0,0)"/>
<path d="" fill="#2E3032" transform="translate(0,0)"/>
<path d="" fill="#373737" transform="translate(0,0)"/>
<path d="" fill="#454545" transform="translate(0,0)"/>
<path d="" fill="#363636" transform="translate(0,0)"/>
<path d="" fill="#2D2D2E" transform="translate(0,0)"/>
<path d="" fill="#2F2F2F" transform="translate(0,0)"/>
<path d="" fill="#353635" transform="translate(0,0)"/>
<path d="" fill="#3C3C3C" transform="translate(0,0)"/>
<path d="" fill="#373839" transform="translate(0,0)"/>
<path d="" fill="#494A4C" transform="translate(0,0)"/>
<path d="" fill="#383839" transform="translate(0,0)"/>
<path d="" fill="#3F3F3F" transform="translate(0,0)"/>
<path d="" fill="#434446" transform="translate(0,0)"/>
<path d="" fill="#2F2F31" transform="translate(0,0)"/>
<path d="" fill="#3F3F3F" transform="translate(0,0)"/>
<path d="" fill="#3B3B3B" transform="translate(0,0)"/>
<path d="" fill="#3E3E3E" transform="translate(0,0)"/>
<path d="" fill="#464646" transform="translate(0,0)"/>
<path d="" fill="#414141" transform="translate(0,0)"/>
<path d="" fill="#454545" transform="translate(0,0)"/>
<path d="" fill="#424242" transform="translate(0,0)"/>
<path d="" fill="#2E2E2E" transform="translate(0,0)"/>
<path d="" fill="#484848" transform="translate(0,0)"/>
<path d="" fill="#323232" transform="translate(0,0)"/>
<path d="" fill="#3C3C3C" transform="translate(0,0)"/>
<path d="" fill="#373737" transform="translate(0,0)"/>
</svg>
