<?xml version="1.0" encoding="UTF-8"?>
<svg version="1.1" xmlns="http://www.w3.org/2000/svg" width="1000" height="1000">
<path d="M0 0 C1.46874843 0.00503664 2.93749859 0.00959563 4.40625 0.01367188 C7.93753686 0.02447955 11.46875657 0.04161837 15 0.0625 C15.09708416 5.4992131 14.73601505 10.67377391 14 16.0625 C12.57927152 27.36740466 12.81176156 38.69000235 13 50.0625 C-1.87679302 50.60541042 -16.75177052 51.0448388 -31.63671875 51.28125 C-32.74184311 51.29880844 -33.84696747 51.31636688 -34.98558044 51.3344574 C-36.10771439 51.35226761 -37.22984833 51.37007782 -38.38598633 51.38842773 C-102.7475463 51.06410125 -102.7475463 51.06410125 -166 61.0625 C-166.66338379 61.24006836 -167.32676758 61.41763672 -168.01025391 61.60058594 C-200.92668042 70.71740414 -218.82668435 95.79720775 -235 124.0625 C-235.50982422 124.95275879 -236.01964844 125.84301758 -236.54492188 126.76025391 C-246.6207378 144.59364524 -253.56916665 163.36192112 -259 183.0625 C-257.92709717 182.96227539 -256.85419434 182.86205078 -255.7487793 182.75878906 C-230.29425082 180.40276617 -204.82628769 178.5152877 -179.30923843 177.00437927 C-177.1543923 176.876741 -174.99960315 176.74817193 -172.84481812 176.61950684 C-145.84126968 175.01275951 -118.86245967 173.90090297 -91.8125 173.5 C-90.81109104 173.48515249 -90.81109104 173.48515249 -89.7894516 173.47000504 C-60.42093604 173.04065983 -31.04863041 172.86400377 -1.67733765 172.77639771 C3.35853435 172.76079833 8.39423318 172.73593598 13.43002319 172.70333862 C19.42768143 172.66520777 25.42508573 172.64689283 31.4228611 172.64348602 C33.66190841 172.63900553 35.90095341 172.62766338 38.13992882 172.60916901 C41.2262363 172.58495992 44.31157688 172.58562156 47.39794922 172.5925293 C48.75617939 172.57330996 48.75617939 172.57330996 50.14184856 172.55370235 C54.27198942 172.58804338 56.42136598 172.69559428 59.98207092 174.95339966 C62.04274497 177.10717622 63.89637264 179.28796279 65.69140625 181.66796875 C77.57065831 196.84438743 92.16855528 210.12095178 108 221.0625 C108.58765137 221.4735498 109.17530273 221.88459961 109.78076172 222.30810547 C141.15188549 244.03481886 177.38896817 256.23468846 215 261.0625 C216.04285156 261.1965625 217.08570313 261.330625 218.16015625 261.46875 C234.42286869 263.15352021 250.85203371 262.33681132 267 260.0625 C267.74781738 259.96598145 268.49563477 259.86946289 269.26611328 259.77001953 C298.41753646 256.00155918 324.71786905 245.72867871 350.67602539 232.26416016 C352.77536413 231.17865272 354.88342697 230.11392146 357 229.0625 C374.05107734 252.6331069 374.36248621 286.76476575 374.16015625 314.56640625 C374.15384451 316.58332521 374.14861847 318.60024782 374.14439392 320.61717224 C374.13123782 325.89207882 374.10694124 331.16686439 374.07904053 336.44171143 C374.03043658 345.79572948 373.99655457 355.14979414 373.97265625 364.50390625 C373.96986979 365.53905113 373.96708332 366.57419601 373.96421242 367.64070892 C373.93063149 382.74121257 374.12965734 397.82151593 374.52190781 412.916502 C375.14485828 436.97251284 375.38029004 461.0318714 375.59464306 485.0945552 C375.65537868 491.90389516 375.72504478 498.71307051 375.80188721 505.52224743 C375.86912608 511.53648929 375.92486695 517.55078341 375.976511 523.56518173 C375.99975603 526.08567623 376.02645939 528.6061415 376.05682945 531.12656021 C376.09810864 534.62098603 376.12619535 538.11528773 376.15112305 541.60986328 C376.16609329 542.62687317 376.18106354 543.64388306 376.19648743 544.69171143 C376.24218689 555.08708534 375.22139106 563.28004849 368 571.0625 C359.67185824 579.39064176 347.98559007 580.17963314 336.84936523 580.20214844 C335.64094971 580.19731445 334.43253418 580.19248047 333.1875 580.1875 C331.90883057 580.18266602 330.63016113 580.17783203 329.31274414 580.17285156 C325.68762751 580.1539525 322.06272758 580.121284 318.43774414 580.08532715 C315.85760346 580.06116659 313.27745407 580.04272237 310.69726562 580.02441406 C306.03545012 579.98825897 301.37439307 579.92769879 296.71304321 579.85296631 C294.88237567 579.82627591 293.05160493 579.80583248 291.22079468 579.79205322 C265.56037314 579.57977222 265.56037314 579.57977222 256 571.0625 C254.48828125 568.8359375 254.48828125 568.8359375 253.3125 566.4375 C252.71888672 565.27347656 252.71888672 565.27347656 252.11328125 564.0859375 C248.36411393 553.90398837 248.76061597 543.62053696 248.875 532.9375 C248.88505123 531.29688047 248.89417328 529.65625497 248.90234375 528.015625 C248.92418451 524.03110035 248.9585957 520.04686741 249 516.0625 C248.06805313 516.0779612 247.13610626 516.09342239 246.17591858 516.10935211 C222.95941985 516.49414703 199.74277994 516.86941318 176.52598572 517.23595428 C165.29622407 517.41344451 154.06651809 517.59354439 142.83691406 517.78076172 C48.4891286 519.35014094 -45.75298093 519.29929175 -140.10031414 517.72635508 C-151.37646828 517.53866547 -162.65276509 517.36025478 -173.92907524 517.18222713 C-196.95287568 516.81854514 -219.97649606 516.44446483 -243 516.0625 C-242.98428955 517.05467529 -242.9685791 518.04685059 -242.95239258 519.0690918 C-242.89735706 522.81330985 -242.86338753 526.55749362 -242.83520508 530.30200195 C-242.82028366 531.91078743 -242.79993909 533.51953344 -242.77368164 535.12817383 C-242.3310562 562.97886109 -242.3310562 562.97886109 -252 573.0625 C-259.25380485 578.31888033 -268.20575873 579.34780181 -276.9140625 579.4765625 C-277.75440033 579.49606461 -278.59473816 579.51556671 -279.46054077 579.53565979 C-282.18192762 579.59591588 -284.90332213 579.64245117 -287.625 579.6875 C-289.51042283 579.72404886 -291.39583949 579.76091671 -293.28125 579.7980957 C-298.85395621 579.90316843 -304.42684944 579.98522098 -310 580.0625 C-311.20408508 580.0805368 -311.20408508 580.0805368 -312.43249512 580.09893799 C-317.28835962 580.17133489 -322.14368481 580.21960538 -327 580.25 C-328.77431396 580.26957764 -328.77431396 580.26957764 -330.58447266 580.28955078 C-341.91512605 580.30110089 -353.38784533 579.10021609 -362.11328125 571.1328125 C-370.4940014 561.93657714 -370.17249996 551.78913478 -370.03759766 539.90698242 C-370.02959641 538.82542374 -370.02159515 537.74386505 -370.01335144 536.62953186 C-369.98553398 533.05894494 -369.94995152 529.48848297 -369.9140625 525.91796875 C-369.89222777 523.39065369 -369.87078136 520.86333525 -369.84970093 518.33601379 C-369.80420243 513.01913811 -369.75517994 507.70231226 -369.703125 502.38549805 C-369.63781031 495.71059367 -369.58024446 489.03564425 -369.52498341 482.36064816 C-369.32432463 458.34527261 -369.08340989 434.33652441 -368.45703125 410.328125 C-368.0597095 395.05059046 -367.93119844 379.78652914 -367.97265625 364.50390625 C-367.97528221 363.47837332 -367.97790817 362.45284039 -367.98061371 361.3962307 C-368.00660653 352.0125492 -368.04631384 342.62894614 -368.09594727 333.24536133 C-368.1230347 328.01394595 -368.13985838 322.78257251 -368.15081596 317.55109978 C-368.15690199 315.60630628 -368.16674168 313.66151978 -368.18089485 311.71676826 C-368.47397256 271.26794622 -361.3485924 233.04804535 -332.31762695 203.08691406 C-328.15641025 198.87450033 -324.02350891 195.22077113 -319 192.0625 C-320.1859375 191.7221875 -321.371875 191.381875 -322.59375 191.03125 C-338.73429171 186.25799538 -357.20972093 180.64282323 -366.03125 165.0859375 C-369.75713401 157.30364752 -369.52745177 149.68252636 -367.28125 141.41796875 C-364.39912413 133.33062417 -359.88607969 127.32257583 -352.25 123.25 C-341.08432008 118.21017183 -329.74264679 116.86429158 -317.625 116.875 C-316.6669043 116.87580566 -315.70880859 116.87661133 -314.72167969 116.87744141 C-302.31260967 116.98225468 -290.11374491 118.32713825 -278 121.0625 C-277.79375 119.886875 -277.5875 118.71125 -277.375 117.5 C-269.71292006 83.62832247 -243.87883157 51.03550319 -215.08300781 32.35693359 C-166.27179672 2.02441587 -105.69800259 2.23998216 -50.05126953 1.40356445 C-40.27397033 1.25157551 -30.5689209 0.95561729 -20.81323242 0.27416992 C-13.87797936 -0.11080123 -6.94350583 -0.04235794 0 0 Z M-317 273.0625 C-321.52688989 279.62649034 -320.36771089 289.45636214 -320.61254883 297.11987305 C-320.68695063 299.35847044 -320.77783036 301.59602155 -320.86914062 303.83398438 C-321.29014209 315.57366549 -320.67470196 325.54217833 -313 335.0625 C-296.32128943 350.23231268 -275.98756527 353.31466482 -254.52587891 355.66943359 C-234.49295343 357.90271223 -214.94471282 361.01266793 -195.32128906 365.57519531 C-193.06909201 366.1309834 -193.06909201 366.1309834 -191 366.0625 C-190.83038584 359.74280194 -191.31773704 354.09982638 -192.6875 347.9375 C-192.86756592 347.11419189 -193.04763184 346.29088379 -193.2331543 345.44262695 C-197.58278071 326.22883511 -204.95277329 304.68394273 -222 293.0625 C-229.95089903 288.29846438 -239.21759739 287.25992618 -248.19873047 285.67431641 C-259.03589175 283.73852526 -269.5640056 281.18488721 -280.125 278.0625 C-281.25067383 277.73032471 -282.37634766 277.39814941 -283.53613281 277.0559082 C-289.43563335 275.27141016 -295.14434732 273.30645141 -300.79516602 270.83959961 C-306.48635754 268.833724 -312.3005872 269.07511944 -317 273.0625 Z M300.625 273.125 C284.65675901 279.39979178 267.88778181 283.36373516 251 286.25 C235.68127439 288.87190333 224.52404988 293.29161493 215 306.0625 C205.70664544 319.71720955 201.25960249 335.048658 198 351.0625 C197.80019531 352.02929688 197.60039063 352.99609375 197.39453125 353.9921875 C196.8759046 358.02823251 196.91874277 361.9996386 197 366.0625 C197.62640381 365.93198242 198.25280762 365.80146484 198.89819336 365.66699219 C219.84540812 361.32745128 240.69413877 357.59162964 262 355.5625 C281.44372533 353.6815891 297.40149885 349.77607802 314 339.0625 C314.9075 338.485 315.815 337.9075 316.75 337.3125 C323.66251852 330.39998148 326.84838097 322.07725505 327.0925293 312.3918457 C327.07674546 308.8514698 326.96922654 305.31643036 326.83349609 301.77880859 C326.75019176 299.56758996 326.68826514 297.35650842 326.62890625 295.14453125 C326.87648965 283.07669728 326.87648965 283.07669728 322.61621094 272.39648438 C316.31373469 267.19456139 307.26358656 270.32426579 300.625 273.125 Z M-66.40234375 284.984375 C-67.28087509 285.02572382 -68.15940643 285.06707264 -69.06455994 285.10967445 C-84.7693128 285.86718994 -100.39393254 287.11267539 -116 289.0625 C-116.93634277 289.17706543 -117.87268555 289.29163086 -118.83740234 289.40966797 C-133.58435539 290.91963442 -133.58435539 290.91963442 -145.44921875 298.8359375 C-151.77782455 309.3614082 -150.3036509 326.3965756 -148 338.0625 C-143.95634221 352.36789312 -134.56385338 371.68659774 -122 380.0625 C-119.86273138 380.50480137 -119.86273138 380.50480137 -117.49609375 380.65625 C-116.6026123 380.72972656 -115.70913086 380.80320312 -114.78857422 380.87890625 C-77.5779484 383.3287741 -40.08418074 383.23708939 -2.81152344 383.19287109 C2.0307098 383.18717459 6.87288799 383.1905712 11.71511936 383.19631577 C47.11795429 383.23172978 82.6425036 383.06629455 118 381.0625 C118.89702637 381.02511719 119.79405273 380.98773437 120.71826172 380.94921875 C126.04072001 380.61221789 129.18344197 380.10151678 133 376.0625 C147.25002962 359.76578748 155.11402729 340.88352509 155.3125 319.25 C155.35600586 317.68668945 155.35600586 317.68668945 155.40039062 316.09179688 C155.45524211 309.37037992 154.74943941 303.78290675 151 298.0625 C137.95084928 285.62405632 107.48922996 287.12306232 90.6875 285.9375 C89.0931311 285.82426392 89.0931311 285.82426392 87.46655273 285.70874023 C83.64581109 285.46026177 79.82396086 285.25318378 76 285.0625 C75.15600647 285.01906464 74.31201294 284.97562927 73.44244385 284.93087769 C52.30883734 283.88498665 31.17254436 283.87494433 10.01855469 283.87719727 C6.03478396 283.87727794 2.05112967 283.87041178 -1.93261719 283.85668945 C-23.44614607 283.78384042 -44.90970437 283.96603536 -66.40234375 284.984375 Z M-97 438.0625 C-97.66 448.2925 -98.32 458.5225 -99 469.0625 C-88.33968002 469.19497886 -77.67934213 469.32571248 -67.01896667 469.45365143 C-62.06504016 469.5131692 -57.11112392 469.5733536 -52.15722656 469.63525391 C-14.40502405 470.10592477 23.31161003 470.07065946 61.06359863 469.59893799 C66.03977771 469.53718827 71.01598374 469.47768994 75.9921875 469.41796875 C85.66148536 469.30160896 95.33074865 469.18266256 105 469.0625 C104.34 458.8325 103.68 448.6025 103 438.0625 C37 438.0625 -29 438.0625 -97 438.0625 Z " fill="#444444" transform="translate(498,292.9375)"/>
<path d="M0 0 C1.00111816 0.50478882 1.00111816 0.50478882 2.02246094 1.01977539 C51.70221171 26.44996311 87.62333858 70.33088594 104.9375 123.0625 C108.38485385 133.92936822 110.56228199 144.97627734 112.1875 156.25 C112.2898999 156.91773438 112.3922998 157.58546875 112.49780273 158.2734375 C119.37549243 209.58730563 105.17473462 262.98899825 74.6875 304.5625 C73.2036771 306.47102132 71.70335596 308.36682058 70.1875 310.25 C68.96160156 311.78140625 68.96160156 311.78140625 67.7109375 313.34375 C34.66345263 353.86574558 -12.03123501 379.98805937 -63.8125 387.25 C-64.80757568 387.40142456 -64.80757568 387.40142456 -65.82275391 387.5559082 C-95.96485312 391.60024522 -128.23102682 388.24846588 -156.8125 378.25 C-157.51375 378.01023437 -158.215 377.77046875 -158.9375 377.5234375 C-187.94707343 367.52392545 -212.69757828 351.37065412 -234.8125 330.25 C-236.20082031 328.94095703 -236.20082031 328.94095703 -237.6171875 327.60546875 C-274.00850933 292.3996999 -295.07958305 241.17963833 -296.24191284 190.91653442 C-296.65099098 165.91263721 -294.09297428 141.96749483 -285.8125 118.25 C-285.45285156 117.19014893 -285.45285156 117.19014893 -285.0859375 116.10888672 C-281.53246818 105.70473856 -276.98443805 95.94211774 -271.8125 86.25 C-271.49555176 85.64945801 -271.17860352 85.04891602 -270.85205078 84.43017578 C-245.06471914 35.97031203 -199.11509028 1.91664926 -147.2421875 -13.953125 C-137.91605366 -16.66443982 -128.42266093 -18.40224578 -118.8125 -19.75 C-118.14911621 -19.85094971 -117.48573242 -19.95189941 -116.80224609 -20.0559082 C-77.12887318 -25.37911047 -35.59320213 -17.96270268 0 0 Z M-142.25 96.25 C-150.09616831 105.43575803 -148.11221143 118.91646772 -147.8125 130.25 C-148.60946289 130.22905273 -149.40642578 130.20810547 -150.22753906 130.18652344 C-153.83906434 130.10336678 -157.45038824 130.05133966 -161.0625 130 C-162.31675781 129.96648437 -163.57101562 129.93296875 -164.86328125 129.8984375 C-166.06855469 129.88554687 -167.27382813 129.87265625 -168.515625 129.859375 C-169.62583008 129.83842773 -170.73603516 129.81748047 -171.87988281 129.79589844 C-175.47863964 130.3531485 -176.61866252 131.40101296 -178.8125 134.25 C-179.5625 136.75 -179.5625 136.75 -178.8125 139.25 C-176.19037407 141.85097735 -174.54297019 143.13772213 -170.8581543 143.70410156 C-169.2635437 143.67268066 -169.2635437 143.67268066 -167.63671875 143.640625 C-166.47978516 143.62773437 -165.32285156 143.61484375 -164.13085938 143.6015625 C-162.93267578 143.56804687 -161.73449219 143.53453125 -160.5 143.5 C-159.28248047 143.48195313 -158.06496094 143.46390625 -156.81054688 143.4453125 C-153.81086045 143.3982586 -150.81157948 143.32651797 -147.8125 143.25 C-147.8125 150.51 -147.8125 157.77 -147.8125 165.25 C-149.79894531 165.21519531 -151.78539062 165.18039062 -153.83203125 165.14453125 C-155.75820795 165.12367013 -157.68438746 165.10291571 -159.6105957 165.08520508 C-161.60577701 165.06271667 -163.60076213 165.02459802 -165.59570312 164.98632812 C-166.84931641 164.97666016 -168.10292969 164.96699219 -169.39453125 164.95703125 C-170.55186768 164.9413208 -171.7092041 164.92561035 -172.90161133 164.90942383 C-175.80164073 165.00717081 -175.80164073 165.00717081 -177.6862793 166.6159668 C-179.33070131 169.00185809 -179.29641747 170.41562627 -178.8125 173.25 C-176.62690661 176.10707875 -175.47852323 177.14686953 -171.87988281 177.70410156 C-170.76967773 177.6831543 -169.65947266 177.66220703 -168.515625 177.640625 C-167.31035156 177.62773437 -166.10507812 177.61484375 -164.86328125 177.6015625 C-163.60902344 177.56804687 -162.35476563 177.53453125 -161.0625 177.5 C-159.79277344 177.48195313 -158.52304687 177.46390625 -157.21484375 177.4453125 C-154.07996923 177.39817153 -150.9466144 177.33237664 -147.8125 177.25 C-147.81916183 178.56829803 -147.82582367 179.88659607 -147.83268738 181.24484253 C-147.89360255 193.69156037 -147.93852265 206.13824781 -147.96793652 218.5850811 C-147.98356701 224.98354194 -148.0047577 231.38188206 -148.03881836 237.78027344 C-148.07150477 243.95944525 -148.08937269 250.13850122 -148.09713173 256.31775284 C-148.10265856 258.67076566 -148.11345101 261.02377241 -148.12969017 263.37673569 C-148.15158747 266.68212143 -148.15446174 269.98703343 -148.15307617 273.29248047 C-148.163862 274.25705673 -148.17464783 275.221633 -148.1857605 276.21543884 C-148.15181231 283.73987529 -146.99836103 290.70739763 -143 297.1875 C-138.91464214 301.03940884 -135.37345458 302.43295502 -129.8125 302.625 C-123.74950594 302.40684129 -120.33649881 300.80863514 -116.0625 296.4375 C-112.30746532 291.11786754 -111.56238174 286.48892343 -111.49365234 280.05126953 C-111.48360672 279.35788986 -111.4735611 278.66451019 -111.46321106 277.95011902 C-111.43253042 275.67769129 -111.41538657 273.40538054 -111.3984375 271.1328125 C-111.37971364 269.54954024 -111.36013932 267.96627784 -111.3397522 266.38302612 C-111.28855356 262.2304466 -111.24886246 258.07783478 -111.21160889 253.92510986 C-111.17149204 249.68176359 -111.12043484 245.43855029 -111.0703125 241.1953125 C-110.97369859 232.88029938 -110.88924764 224.56522011 -110.8125 216.25 C-110.18182114 216.24191315 -109.55114227 216.23382629 -108.90135193 216.22549438 C-102.26485945 216.13862296 -95.62863782 216.03909672 -88.99243164 215.93261719 C-86.5243794 215.89461991 -84.05627727 215.85971933 -81.58813477 215.828125 C-43.39562423 215.3767385 -43.39562423 215.3767385 -11.0390625 196.6171875 C-6.6522787 191.95334367 0.1875 183.92242018 0.1875 177.25 C1.28739258 177.27094727 2.38728516 177.29189453 3.52050781 177.31347656 C7.60549881 177.38593635 11.69043314 177.43182115 15.77587891 177.46972656 C17.54322872 177.4898285 19.31051213 177.51711472 21.07763672 177.55175781 C23.61963285 177.60034009 26.16074896 177.62298226 28.703125 177.640625 C29.49180969 177.66127014 30.28049438 177.68191528 31.09307861 177.70318604 C34.69594011 177.70465607 36.75890403 177.56923126 39.69042969 175.38574219 C41.36303075 173.32371376 41.36303075 173.32371376 41.625 170.6875 C41.35079033 168.28220351 41.35079033 168.28220351 40.15698242 166.6159668 C37.08019522 164.48201063 33.84556797 164.88256808 30.23828125 164.95703125 C29.07935616 164.96339851 29.07935616 164.96339851 27.89701843 164.96989441 C25.43099008 164.98667817 22.96578104 165.02432853 20.5 165.0625 C18.82748577 165.07754729 17.15495872 165.09123562 15.48242188 165.10351562 C11.38379922 165.13658054 7.28578849 165.18835972 3.1875 165.25 C3.5175 164.26 3.8475 163.27 4.1875 162.25 C4.2681622 160.76876453 4.29511193 159.28417796 4.28515625 157.80078125 C4.28193359 156.95322266 4.27871094 156.10566406 4.27539062 155.23242188 C4.26701172 154.35134766 4.25863281 153.47027344 4.25 152.5625 C4.24323242 151.22348633 4.24323242 151.22348633 4.23632812 149.85742188 C4.22454983 147.65488013 4.20810164 145.45247401 4.1875 143.25 C5.13069092 143.27094727 6.07388184 143.29189453 7.0456543 143.31347656 C10.55877524 143.38181428 14.07118585 143.43187747 17.5847168 143.46972656 C19.1027341 143.48979203 20.62067459 143.51705134 22.13842773 143.55175781 C24.32555122 143.60050393 26.51164952 143.62301805 28.69921875 143.640625 C30.01365967 143.66157227 31.32810059 143.68251953 32.68237305 143.70410156 C36.75001178 143.17712461 38.42215914 142.24692113 41.1875 139.25 C41.3591367 135.61760187 41.3591367 135.61760187 40.1875 132.25 C36.43086832 129.74557888 33.37741875 129.90114563 29.01953125 129.8359375 C27.82731209 129.80688828 27.82731209 129.80688828 26.61100769 129.7772522 C24.07411405 129.71750558 21.53717491 129.67109117 19 129.625 C17.27927716 129.58681565 15.55857335 129.54776365 13.83789062 129.5078125 C9.62124835 129.41180821 5.4045166 129.32775924 1.1875 129.25 C0.73366943 128.30318359 0.27983887 127.35636719 -0.18774414 126.38085938 C-0.8031786 125.11830937 -1.41900353 123.85594964 -2.03515625 122.59375 C-2.48018494 121.66127441 -2.48018494 121.66127441 -2.9342041 120.70996094 C-8.33071607 109.72227324 -17.8080282 100.82733258 -29.1328125 96.125 C-43.44756419 91.45079537 -58.28950577 91.08396408 -73.1875 91.046875 C-73.96019226 91.04404762 -74.73288452 91.04122025 -75.5289917 91.03830719 C-79.61243011 91.02341242 -83.69583404 91.01411978 -87.77929688 91.00976562 C-91.96847462 91.00427229 -96.15732883 90.98019824 -100.34640503 90.95179367 C-103.59628198 90.93307574 -106.84608202 90.92795701 -110.0960083 90.92642975 C-111.63960553 90.92342709 -113.1832022 90.91548055 -114.72674561 90.90224457 C-124.68178065 90.82291602 -133.47422374 91.14409381 -142.25 96.25 Z " fill="#454545" transform="translate(827.8125,146.75)"/>
<path d="M0 0 C1.61538806 8.0769403 0.9993549 14.17988264 -1 22 C-11.41342925 22.02312359 -21.82685244 22.04091517 -32.24030209 22.05181217 C-37.07516827 22.05704097 -41.91001694 22.06413854 -46.74487305 22.07543945 C-51.4067712 22.08626847 -56.06865246 22.09227686 -60.73056221 22.09487724 C-62.51324288 22.09673147 -64.29592259 22.10035203 -66.07859612 22.10573006 C-68.5666596 22.11294069 -71.05465243 22.11399093 -73.54272461 22.11352539 C-74.65942032 22.1189183 -74.65942032 22.1189183 -75.79867554 22.12442017 C-80.88594784 22.11405216 -80.88594784 22.11405216 -82 21 C-82.08685603 19.43827255 -82.10702219 17.87270656 -82.09765625 16.30859375 C-82.09443359 15.36435547 -82.09121094 14.42011719 -82.08789062 13.44726562 C-82.07951172 12.45404297 -82.07113281 11.46082031 -82.0625 10.4375 C-82.05798828 9.44041016 -82.05347656 8.44332031 -82.04882812 7.41601562 C-82.03700007 4.94395151 -82.02051849 2.47200482 -82 0 C-71.75157371 -0.15375605 -61.50308353 -0.30193759 -51.25447369 -0.4429636 C-46.49585743 -0.50862058 -41.73728489 -0.5762119 -36.97875977 -0.64819336 C-32.38823208 -0.71756288 -27.79765912 -0.78189118 -23.20701027 -0.84269524 C-21.45387002 -0.86680766 -19.70075397 -0.89274969 -17.94766808 -0.92053413 C-15.49599364 -0.9590807 -13.04431453 -0.99117528 -10.5925293 -1.02172852 C-9.50064552 -1.04114754 -9.50064552 -1.04114754 -8.38670349 -1.06095886 C-5.29485738 -1.0935002 -2.96005441 -0.9866848 0 0 Z " fill="#4D4D4D" transform="translate(798,290)"/>
<path d="M0 0 C6.68534137 -0.09998785 13.37023331 -0.17199046 20.05615234 -0.21972656 C22.32348223 -0.23965772 24.59076197 -0.26681268 26.85791016 -0.30175781 C59.45907634 -0.79113514 59.45907634 -0.79113514 72.49609375 8.53515625 C74 10 74 10 75 13 C50.25 13 25.5 13 0 13 C0 8.71 0 4.42 0 0 Z " fill="#505050" transform="translate(716,264)"/>
<path d="M0 0 C24.09 0 48.18 0 73 0 C69.28831706 4.63960367 68.40167331 5.68509324 63.3125 7.6875 C62.33925781 8.08324219 61.36601563 8.47898437 60.36328125 8.88671875 C52.36536614 11.53411225 45.03076286 12.28182001 36.62109375 12.1953125 C35.56841812 12.1924826 34.51574249 12.18965271 33.4311676 12.18673706 C30.09982484 12.17562562 26.76876023 12.15053798 23.4375 12.125 C21.16601953 12.11495852 18.89453481 12.10583472 16.62304688 12.09765625 C11.0819256 12.07571592 5.54100981 12.041249 0 12 C0 8.04 0 4.08 0 0 Z " fill="#4F4F4F" transform="translate(716,324)"/>
</svg>
